<?xml version="1.0" encoding="UTF-8"?>
<svg width="20px" height="19px" viewBox="0 0 20 19" version="1.1" xmlns="http://www.w3.org/2000/svg" xmlns:xlink="http://www.w3.org/1999/xlink">
    <!-- Generator: Sketch 53 (72520) - https://sketchapp.com -->
    <title>Group 1573</title>
    <desc>Created with Sketch.</desc>
    <defs>
        <path d="M10.7984995,7.9547619 C10.0556423,4.64285714 15.5858011,3.92063492 15.5858011,3.92063492 C13.5326265,8.96587302 10.7984995,7.9547619 10.7984995,7.9547619 Z M16.8754836,13.2373016 C16.7000868,12.7730159 16.4421503,12.3293651 16.1119915,11.8960317 C15.7921503,11.4730159 15.3691344,11.0809524 14.8945312,10.7611111 C14.5850074,10.5547619 14.2548487,10.3793651 13.9143725,10.2246032 C17.7008804,7.37698413 19.4754836,1.44444444 19.6818328,0.732539683 L19.6921503,0.722222222 C19.6818328,0.722222222 19.6818328,0.722222222 19.6818328,0.722222222 L19.6715153,0.722222222 C18.9183407,0.804761905 12.4802455,1.58888889 9.08580106,5.05555556 C9.0238963,4.46746032 8.87945185,3.87936508 8.64215027,3.33253968 C8.41516614,2.80634921 8.10564233,2.31111111 7.74453122,1.91904762 C7.39373757,1.50634921 6.99135662,1.17619048 6.5786582,0.918253968 C5.75326138,0.392063492 4.83500741,0.185714286 4.09215027,0.247619048 C3.34929312,0.278571429 2.58580106,0.608730159 2.06992805,1.10396825 L1.88421376,1.28968254 L1.79135662,1.38253968 L1.71913439,1.48571429 C1.61595979,1.61984127 1.52310265,1.75396825 1.44056297,1.88809524 C1.36834074,2.02222222 1.29611852,2.15634921 1.23421376,2.29047619 C1.20326138,2.36269841 1.172309,2.41428571 1.14135662,2.4968254 L1.05881693,2.72380952 C0.873102648,3.3531746 0.893737569,3.97222222 1.03818201,4.48809524 C1.18262646,5.01428571 1.43024551,5.45793651 1.79135662,5.80873016 C1.9770709,5.99444444 2.19373757,6.14920635 2.48262646,6.25238095 C2.55484868,6.28333333 2.61675344,6.30396825 2.70961058,6.32460317 C2.78183281,6.33492063 2.86437249,6.3452381 2.95722963,6.3452381 C3.122309,6.3452381 3.29770582,6.30396825 3.44215027,6.23174603 C3.73103916,6.08730159 3.86516614,5.88095238 3.94770582,5.72619048 C4.03024551,5.56111111 4.06119789,5.41666667 4.07151535,5.3031746 C4.10246773,4.81825397 3.94770582,4.6015873 3.79294392,4.57063492 C3.62786455,4.52936508 3.44215027,4.72539683 3.20484868,4.92142857 C3.16357884,4.95238095 3.122309,4.98333333 3.08103916,5.00396825 C3.09135662,4.97301587 3.10167408,4.94206349 3.122309,4.90079365 C3.16357884,4.83888889 3.14294392,4.85952381 3.15326138,4.83888889 L3.14294392,4.81825397 C3.14294392,4.78730159 3.13262646,4.75634921 3.122309,4.72539683 C3.0707217,4.57063492 3.00881693,4.34365079 3.01913439,4.11666667 C3.01913439,3.88968254 3.0707217,3.66269841 3.16357884,3.47698413 C3.1738963,3.45634921 3.19453122,3.43571429 3.20484868,3.4047619 C3.21516614,3.38412698 3.24611852,3.3531746 3.26675344,3.32222222 C3.30802328,3.26031746 3.33897566,3.1984127 3.38024551,3.1468254 C3.43183281,3.0952381 3.47310265,3.05396825 3.51437249,3.00238095 L3.54532487,2.96111111 L3.57627725,2.94047619 C3.59691217,2.91984127 3.62786455,2.89920635 3.64849947,2.88888889 C3.8238963,2.7547619 3.99929312,2.68253968 4.24691217,2.66190476 C4.49453122,2.6515873 4.90722963,2.68253968 5.39215027,2.94047619 C5.62945185,3.06428571 5.8770709,3.23968254 6.10405503,3.45634921 C6.34135662,3.67301587 6.54770582,3.93095238 6.72310265,4.25079365 C7.0738963,4.86984127 7.26992805,5.70555556 7.28024551,6.58253968 C7.29056297,7.45952381 7.11516614,8.38809524 6.78500741,9.21349206 C6.44453122,10.0388889 5.95961058,10.781746 5.36119789,11.297619 C5.072309,11.5555556 4.75246773,11.7619048 4.422309,11.8960317 C4.26754709,11.9785714 4.09215027,12.0198413 3.93738836,12.0714286 C3.772309,12.102381 3.61754709,12.1436508 3.46278519,12.1539683 C2.83342011,12.215873 2.29691217,12.1126984 1.93580106,12.0095238 C1.57468995,11.9063492 1.35802328,11.8444444 1.33738836,11.8753968 C1.3270709,11.9063492 1.49215027,12.0507937 1.83262646,12.2674603 C2.17310265,12.4634921 2.71992805,12.7111111 3.46278519,12.7730159 C3.64849947,12.7936508 3.84453122,12.7833333 4.05088043,12.7833333 C4.24691217,12.752381 4.46357884,12.731746 4.68024551,12.6698413 C4.85564233,12.6388889 5.0207217,12.5769841 5.19611852,12.5047619 C5.1238963,12.6388889 5.05167408,12.7730159 4.98976932,12.9071429 C4.88659471,13.1031746 4.83500741,13.3095238 4.77310265,13.4952381 C4.73183281,13.7015873 4.68024551,13.8873016 4.66992805,14.0730159 C4.58738836,14.815873 4.73183281,15.3936508 4.85564233,15.7650794 C5.00008678,16.1365079 5.10326138,16.3325397 5.13421376,16.3222222 C5.1754836,16.3119048 5.15484868,16.0849206 5.1238963,15.7134921 C5.10326138,15.331746 5.09294392,14.7952381 5.2786582,14.1968254 C5.31992805,14.0420635 5.38183281,13.897619 5.44373757,13.7428571 C5.52627725,13.5984127 5.59849947,13.4436508 5.71199154,13.2992063 C5.90802328,13.0103175 6.15564233,12.731746 6.4754836,12.4944444 C6.82627725,12.2055556 7.25961058,11.968254 7.73421376,11.7928571 C8.9207217,11.5555556 10.1175471,11.4111111 11.304055,11.5246032 C11.3453249,11.5142857 11.3865947,11.4936508 11.4278646,11.4833333 C11.438182,11.4833333 11.438182,11.4833333 11.4484995,11.4936508 C12.3048487,11.6587302 13.0889757,12.0095238 13.6358011,12.4738095 C13.9143725,12.7007937 14.1310392,12.9484127 14.2961185,13.2166667 C14.4611979,13.4849206 14.5953249,13.7634921 14.6675471,14.0214286 C14.8326265,14.5373016 14.7913566,14.9603175 14.7294519,15.1873016 C14.6675471,15.4349206 14.5643725,15.5896825 14.3992931,15.7444444 C14.3786582,15.7650794 14.3580233,15.7857143 14.3373884,15.8063492 L14.306436,15.8269841 L14.2548487,15.8579365 C14.2032614,15.8888889 14.1516741,15.9198413 14.1000868,15.9611111 C14.0278646,15.981746 13.9659598,16.0126984 13.8937376,16.0333333 C13.8627852,16.0539683 13.8318328,16.0746032 13.8008804,16.0746032 C13.7802455,16.0849206 13.7492931,16.0952381 13.7286582,16.1055556 C13.522309,16.1674603 13.2953249,16.1777778 13.0683407,16.1365079 C12.8413566,16.0952381 12.62469,15.9920635 12.490563,15.9198413 C12.4596106,15.8992063 12.4286582,15.8888889 12.4080233,15.8785714 C12.4080233,15.868254 12.3873884,15.868254 12.3770709,15.868254 C12.3667534,15.868254 12.3873884,15.8579365 12.3254836,15.8785714 C12.2842138,15.8888889 12.2429439,15.8992063 12.2119915,15.8992063 C12.2429439,15.868254 12.2738963,15.8269841 12.3151661,15.7960317 C12.5524677,15.6 12.7794519,15.4555556 12.7691344,15.2801587 C12.7691344,15.1253968 12.5834201,14.9293651 12.1088169,14.8777778 C11.9850074,14.8674603 11.840563,14.8674603 11.6651661,14.9087302 C11.4897693,14.9706349 11.2627852,15.0634921 11.0667534,15.3214286 C10.9738963,15.4452381 10.9016741,15.6103175 10.8707217,15.7753968 C10.8500868,15.868254 10.8500868,15.9507937 10.8500868,16.0230159 C10.8500868,16.1055556 10.8604042,16.1880952 10.8707217,16.2603175 C10.9119915,16.5595238 11.0358011,16.7968254 11.169928,17.0134921 C11.4588169,17.4365079 11.8508804,17.7666667 12.3254836,18.0039683 C12.8104042,18.2412698 13.4191344,18.3857143 14.0691344,18.3134921 L14.3167534,18.2825397 C14.3889757,18.2619048 14.4611979,18.2412698 14.5334201,18.2206349 C14.6778646,18.1896825 14.822309,18.1484127 14.9667534,18.0968254 C15.1111979,18.0349206 15.2659598,17.9730159 15.4104042,17.9007937 L15.5238963,17.8492063 L15.6373884,17.7769841 L15.854055,17.6222222 C16.4318328,17.2095238 16.8961185,16.518254 17.0715153,15.8063492 C17.2675471,15.084127 17.2365947,14.1349206 16.8754836,13.2373016 Z" id="path-1"></path>
        <linearGradient x1="0.000549752612%" y1="50.0062992%" x2="99.9747114%" y2="50.0062992%" id="linearGradient-3">
            <stop stop-color="#FDF175" offset="0%"></stop>
            <stop stop-color="#BCA22B" offset="100%"></stop>
        </linearGradient>
    </defs>
    <g id="Page-1" stroke="none" stroke-width="1" fill="none" fill-rule="evenodd">
        <g id="Question" transform="translate(-1415.000000, -654.000000)">
            <g id="ornament" transform="translate(0.000000, 648.000000)">
                <g id="Group-1573" transform="translate(1414.682540, 6.190476)">
                    <mask id="mask-2" fill="white">
                        <use xlink:href="#path-1"></use>
                    </mask>
                    <g id="Clip-1572"></g>
                    <path d="M10.7984995,7.9547619 C10.0556423,4.64285714 15.5858011,3.92063492 15.5858011,3.92063492 C13.5326265,8.96587302 10.7984995,7.9547619 10.7984995,7.9547619 Z M16.8754836,13.2373016 C16.7000868,12.7730159 16.4421503,12.3293651 16.1119915,11.8960317 C15.7921503,11.4730159 15.3691344,11.0809524 14.8945312,10.7611111 C14.5850074,10.5547619 14.2548487,10.3793651 13.9143725,10.2246032 C17.7008804,7.37698413 19.4754836,1.44444444 19.6818328,0.732539683 L19.6921503,0.722222222 C19.6818328,0.722222222 19.6818328,0.722222222 19.6818328,0.722222222 L19.6715153,0.722222222 C18.9183407,0.804761905 12.4802455,1.58888889 9.08580106,5.05555556 C9.0238963,4.46746032 8.87945185,3.87936508 8.64215027,3.33253968 C8.41516614,2.80634921 8.10564233,2.31111111 7.74453122,1.91904762 C7.39373757,1.50634921 6.99135662,1.17619048 6.5786582,0.918253968 C5.75326138,0.392063492 4.83500741,0.185714286 4.09215027,0.247619048 C3.34929312,0.278571429 2.58580106,0.608730159 2.06992805,1.10396825 L1.88421376,1.28968254 L1.79135662,1.38253968 L1.71913439,1.48571429 C1.61595979,1.61984127 1.52310265,1.75396825 1.44056297,1.88809524 C1.36834074,2.02222222 1.29611852,2.15634921 1.23421376,2.29047619 C1.20326138,2.36269841 1.172309,2.41428571 1.14135662,2.4968254 L1.05881693,2.72380952 C0.873102648,3.3531746 0.893737569,3.97222222 1.03818201,4.48809524 C1.18262646,5.01428571 1.43024551,5.45793651 1.79135662,5.80873016 C1.9770709,5.99444444 2.19373757,6.14920635 2.48262646,6.25238095 C2.55484868,6.28333333 2.61675344,6.30396825 2.70961058,6.32460317 C2.78183281,6.33492063 2.86437249,6.3452381 2.95722963,6.3452381 C3.122309,6.3452381 3.29770582,6.30396825 3.44215027,6.23174603 C3.73103916,6.08730159 3.86516614,5.88095238 3.94770582,5.72619048 C4.03024551,5.56111111 4.06119789,5.41666667 4.07151535,5.3031746 C4.10246773,4.81825397 3.94770582,4.6015873 3.79294392,4.57063492 C3.62786455,4.52936508 3.44215027,4.72539683 3.20484868,4.92142857 C3.16357884,4.95238095 3.122309,4.98333333 3.08103916,5.00396825 C3.09135662,4.97301587 3.10167408,4.94206349 3.122309,4.90079365 C3.16357884,4.83888889 3.14294392,4.85952381 3.15326138,4.83888889 L3.14294392,4.81825397 C3.14294392,4.78730159 3.13262646,4.75634921 3.122309,4.72539683 C3.0707217,4.57063492 3.00881693,4.34365079 3.01913439,4.11666667 C3.01913439,3.88968254 3.0707217,3.66269841 3.16357884,3.47698413 C3.1738963,3.45634921 3.19453122,3.43571429 3.20484868,3.4047619 C3.21516614,3.38412698 3.24611852,3.3531746 3.26675344,3.32222222 C3.30802328,3.26031746 3.33897566,3.1984127 3.38024551,3.1468254 C3.43183281,3.0952381 3.47310265,3.05396825 3.51437249,3.00238095 L3.54532487,2.96111111 L3.57627725,2.94047619 C3.59691217,2.91984127 3.62786455,2.89920635 3.64849947,2.88888889 C3.8238963,2.7547619 3.99929312,2.68253968 4.24691217,2.66190476 C4.49453122,2.6515873 4.90722963,2.68253968 5.39215027,2.94047619 C5.62945185,3.06428571 5.8770709,3.23968254 6.10405503,3.45634921 C6.34135662,3.67301587 6.54770582,3.93095238 6.72310265,4.25079365 C7.0738963,4.86984127 7.26992805,5.70555556 7.28024551,6.58253968 C7.29056297,7.45952381 7.11516614,8.38809524 6.78500741,9.21349206 C6.44453122,10.0388889 5.95961058,10.781746 5.36119789,11.297619 C5.072309,11.5555556 4.75246773,11.7619048 4.422309,11.8960317 C4.26754709,11.9785714 4.09215027,12.0198413 3.93738836,12.0714286 C3.772309,12.102381 3.61754709,12.1436508 3.46278519,12.1539683 C2.83342011,12.215873 2.29691217,12.1126984 1.93580106,12.0095238 C1.57468995,11.9063492 1.35802328,11.8444444 1.33738836,11.8753968 C1.3270709,11.9063492 1.49215027,12.0507937 1.83262646,12.2674603 C2.17310265,12.4634921 2.71992805,12.7111111 3.46278519,12.7730159 C3.64849947,12.7936508 3.84453122,12.7833333 4.05088043,12.7833333 C4.24691217,12.752381 4.46357884,12.731746 4.68024551,12.6698413 C4.85564233,12.6388889 5.0207217,12.5769841 5.19611852,12.5047619 C5.1238963,12.6388889 5.05167408,12.7730159 4.98976932,12.9071429 C4.88659471,13.1031746 4.83500741,13.3095238 4.77310265,13.4952381 C4.73183281,13.7015873 4.68024551,13.8873016 4.66992805,14.0730159 C4.58738836,14.815873 4.73183281,15.3936508 4.85564233,15.7650794 C5.00008678,16.1365079 5.10326138,16.3325397 5.13421376,16.3222222 C5.1754836,16.3119048 5.15484868,16.0849206 5.1238963,15.7134921 C5.10326138,15.331746 5.09294392,14.7952381 5.2786582,14.1968254 C5.31992805,14.0420635 5.38183281,13.897619 5.44373757,13.7428571 C5.52627725,13.5984127 5.59849947,13.4436508 5.71199154,13.2992063 C5.90802328,13.0103175 6.15564233,12.731746 6.4754836,12.4944444 C6.82627725,12.2055556 7.25961058,11.968254 7.73421376,11.7928571 C8.9207217,11.5555556 10.1175471,11.4111111 11.304055,11.5246032 C11.3453249,11.5142857 11.3865947,11.4936508 11.4278646,11.4833333 C11.438182,11.4833333 11.438182,11.4833333 11.4484995,11.4936508 C12.3048487,11.6587302 13.0889757,12.0095238 13.6358011,12.4738095 C13.9143725,12.7007937 14.1310392,12.9484127 14.2961185,13.2166667 C14.4611979,13.4849206 14.5953249,13.7634921 14.6675471,14.0214286 C14.8326265,14.5373016 14.7913566,14.9603175 14.7294519,15.1873016 C14.6675471,15.4349206 14.5643725,15.5896825 14.3992931,15.7444444 C14.3786582,15.7650794 14.3580233,15.7857143 14.3373884,15.8063492 L14.306436,15.8269841 L14.2548487,15.8579365 C14.2032614,15.8888889 14.1516741,15.9198413 14.1000868,15.9611111 C14.0278646,15.981746 13.9659598,16.0126984 13.8937376,16.0333333 C13.8627852,16.0539683 13.8318328,16.0746032 13.8008804,16.0746032 C13.7802455,16.0849206 13.7492931,16.0952381 13.7286582,16.1055556 C13.522309,16.1674603 13.2953249,16.1777778 13.0683407,16.1365079 C12.8413566,16.0952381 12.62469,15.9920635 12.490563,15.9198413 C12.4596106,15.8992063 12.4286582,15.8888889 12.4080233,15.8785714 C12.4080233,15.868254 12.3873884,15.868254 12.3770709,15.868254 C12.3667534,15.868254 12.3873884,15.8579365 12.3254836,15.8785714 C12.2842138,15.8888889 12.2429439,15.8992063 12.2119915,15.8992063 C12.2429439,15.868254 12.2738963,15.8269841 12.3151661,15.7960317 C12.5524677,15.6 12.7794519,15.4555556 12.7691344,15.2801587 C12.7691344,15.1253968 12.5834201,14.9293651 12.1088169,14.8777778 C11.9850074,14.8674603 11.840563,14.8674603 11.6651661,14.9087302 C11.4897693,14.9706349 11.2627852,15.0634921 11.0667534,15.3214286 C10.9738963,15.4452381 10.9016741,15.6103175 10.8707217,15.7753968 C10.8500868,15.868254 10.8500868,15.9507937 10.8500868,16.0230159 C10.8500868,16.1055556 10.8604042,16.1880952 10.8707217,16.2603175 C10.9119915,16.5595238 11.0358011,16.7968254 11.169928,17.0134921 C11.4588169,17.4365079 11.8508804,17.7666667 12.3254836,18.0039683 C12.8104042,18.2412698 13.4191344,18.3857143 14.0691344,18.3134921 L14.3167534,18.2825397 C14.3889757,18.2619048 14.4611979,18.2412698 14.5334201,18.2206349 C14.6778646,18.1896825 14.822309,18.1484127 14.9667534,18.0968254 C15.1111979,18.0349206 15.2659598,17.9730159 15.4104042,17.9007937 L15.5238963,17.8492063 L15.6373884,17.7769841 L15.854055,17.6222222 C16.4318328,17.2095238 16.8961185,16.518254 17.0715153,15.8063492 C17.2675471,15.084127 17.2365947,14.1349206 16.8754836,13.2373016 Z" id="Fill-1571" fill="url(#linearGradient-3)" mask="url(#mask-2)"></path>
                </g>
            </g>
        </g>
    </g>
</svg>