<?xml version="1.0" encoding="UTF-8"?>
<svg width="20px" height="20px" viewBox="0 0 20 20" version="1.1" xmlns="http://www.w3.org/2000/svg" xmlns:xlink="http://www.w3.org/1999/xlink">
    <!-- Generator: Sketch 53 (72520) - https://sketchapp.com -->
    <title>Group 1576</title>
    <desc>Created with Sketch.</desc>
    <defs>
        <path d="M10.6850074,11.6896825 C13.904055,10.2349206 15.8024677,15.7031746 15.8024677,15.7031746 C10.2516741,14.681746 10.6850074,11.6896825 10.6850074,11.6896825 Z M6.60961058,18.9738095 C7.03262646,18.7055556 7.43500741,18.3444444 7.80643598,17.9214286 C8.16754709,17.4984127 8.4770709,16.9825397 8.70405503,16.4357143 C8.84849947,16.0746032 8.96199154,15.7031746 9.03421376,15.3214286 C12.7278646,18.581746 19.1350074,19.1388889 19.8984995,19.1904762 L19.9088169,19.2007937 C19.9088169,19.2007937 19.9088169,19.2007937 19.9088169,19.1904762 C19.6611979,18.4373016 17.5151661,12.0507937 13.27469,9.33730159 C13.8731026,9.1515873 14.4302455,8.88333333 14.9461185,8.52222222 C15.4207217,8.18174603 15.8643725,7.76904762 16.1945312,7.31507937 C16.52469,6.87142857 16.7826265,6.3968254 16.9580233,5.92222222 C17.3191344,4.97301587 17.3294519,3.99285714 17.1231026,3.25 C16.9270709,2.50714286 16.4318328,1.80555556 15.8231026,1.38253968 L15.5961185,1.22777778 L15.4826265,1.15555556 L15.3691344,1.10396825 C15.204055,1.03174603 15.0492931,0.95952381 14.8945312,0.897619048 C14.7397693,0.856349206 14.5953249,0.815079365 14.440563,0.773809524 C14.3683407,0.753174603 14.2961185,0.732539683 14.2135788,0.722222222 L13.9659598,0.691269841 C13.2850074,0.629365079 12.6556423,0.784126984 12.1604042,1.04206349 C11.6651661,1.3 11.2627852,1.64047619 10.9842138,2.08412698 C10.8397693,2.31111111 10.7159598,2.55873016 10.67469,2.87857143 C10.6643725,2.95079365 10.654055,3.03333333 10.654055,3.11587302 C10.654055,3.1984127 10.6643725,3.28095238 10.6850074,3.37380952 C10.7159598,3.54920635 10.7984995,3.71428571 10.9016741,3.8484127 C11.1080233,4.10634921 11.3453249,4.20952381 11.5207217,4.26111111 C11.706436,4.30238095 11.8508804,4.30238095 11.97469,4.29206349 C12.469928,4.21984127 12.6659598,4.02380952 12.6659598,3.85873016 C12.6659598,3.68333333 12.4286582,3.52857143 12.1810392,3.33253968 C12.1397693,3.3015873 12.1088169,3.26031746 12.0778646,3.22936508 C12.1088169,3.22936508 12.1397693,3.22936508 12.1913566,3.25 C12.2532614,3.27063492 12.2326265,3.26031746 12.2532614,3.26031746 C12.2532614,3.26031746 12.2738963,3.25 12.2842138,3.25 C12.3048487,3.23968254 12.3358011,3.21904762 12.3667534,3.1984127 C12.5008804,3.11587302 12.7278646,3.01269841 12.9548487,2.97142857 C13.1921503,2.91984127 13.4397693,2.93015873 13.6461185,2.98174603 C13.6667534,2.99206349 13.6977058,3.00238095 13.7183407,3.01269841 C13.7492931,3.02301587 13.790563,3.04365079 13.8215153,3.05396825 C13.8834201,3.08492063 13.9556423,3.11587302 14.0278646,3.13650794 C14.0794519,3.17777778 14.1413566,3.20873016 14.2032614,3.23968254 L14.2445312,3.26031746 L14.2754836,3.29126984 C14.2961185,3.31190476 14.3167534,3.33253968 14.3477058,3.3531746 C14.5127852,3.50793651 14.6262773,3.67301587 14.6984995,3.92063492 C14.7604042,4.15793651 14.8119915,4.59126984 14.6469122,5.13809524 C14.5850074,5.40634921 14.4508804,5.6952381 14.2754836,5.97380952 C14.1104042,6.26269841 13.8937376,6.52063492 13.6048487,6.75793651 C13.0477058,7.2531746 12.2429439,7.62460317 11.3556423,7.82063492 C10.4580233,8.01666667 9.48818201,8.03730159 8.56992805,7.87222222 C7.66199154,7.70714286 6.80564233,7.35634921 6.15564233,6.86111111 C5.8254836,6.62380952 5.55722963,6.33492063 5.35088043,6.03571429 C5.23738836,5.89126984 5.15484868,5.72619048 5.072309,5.57142857 C5.01040424,5.41666667 4.92786455,5.26190476 4.88659471,5.10714286 C4.69056297,4.48809524 4.69056297,3.92063492 4.71119789,3.52857143 C4.73183281,3.13650794 4.76278519,2.90952381 4.72151535,2.89920635 C4.69056297,2.88888889 4.5770709,3.08492063 4.43262646,3.47698413 C4.29849947,3.86904762 4.16437249,4.47777778 4.25722963,5.24126984 C4.27786455,5.43730159 4.32945185,5.63333333 4.3707217,5.83968254 C4.44294392,6.03571429 4.50484868,6.25238095 4.61834074,6.45873016 C4.69056297,6.62380952 4.78342011,6.78888889 4.88659471,6.95396825 C4.74215027,6.90238095 4.59770582,6.85079365 4.44294392,6.81984127 C4.22627725,6.76825397 3.99929312,6.74761905 3.79294392,6.72698413 C3.58659471,6.72698413 3.38024551,6.71666667 3.18421376,6.73730159 C2.4207217,6.81984127 1.86357884,7.07777778 1.50246773,7.28412698 C1.15167408,7.51111111 0.986594712,7.66587302 0.996912172,7.68650794 C1.01754709,7.72777778 1.24453122,7.65555556 1.61595979,7.54206349 C1.99770582,7.43888889 2.54453122,7.32539683 3.19453122,7.38730159 C3.34929312,7.39761905 3.51437249,7.42857143 3.68976932,7.45952381 C3.85484868,7.51111111 4.01992805,7.55238095 4.19532487,7.63492063 C4.5254836,7.76904762 4.86595979,7.97539683 5.1754836,8.24365079 C5.53659471,8.54285714 5.86675344,8.93492063 6.15564233,9.37857143 C6.64056297,10.534127 7.04294392,11.7103175 7.16675344,12.9484127 C7.18738836,12.9896825 7.21834074,13.0309524 7.23897566,13.0722222 C7.23897566,13.0722222 7.23897566,13.0825397 7.23897566,13.0928571 C7.23897566,14.0007937 7.05326138,14.8674603 6.69215027,15.5174603 C6.51675344,15.847619 6.3207217,16.1261905 6.07310265,16.3428571 C5.84611852,16.5698413 5.58818201,16.765873 5.34056297,16.8896825 C4.84532487,17.168254 4.41199154,17.2095238 4.16437249,17.1992063 C3.90643598,17.1888889 3.7207217,17.1166667 3.53500741,16.9825397 C3.51437249,16.9619048 3.48342011,16.9412698 3.46278519,16.9309524 L3.42151535,16.9 L3.39056297,16.8587302 C3.34929312,16.8071429 3.30802328,16.765873 3.25643598,16.7142857 C3.21516614,16.652381 3.1738963,16.5904762 3.13262646,16.5285714 C3.11199154,16.5079365 3.08103916,16.4666667 3.0707217,16.4460317 C3.05008678,16.4253968 3.03976932,16.3944444 3.02945185,16.3738095 C2.92627725,16.1880952 2.86437249,15.9507937 2.86437249,15.7134921 C2.85405503,15.4761905 2.90564233,15.2388889 2.95722963,15.084127 C2.96754709,15.0428571 2.97786455,15.0119048 2.98818201,14.9912698 C2.98818201,14.9809524 2.98818201,14.9603175 2.98818201,14.9603175 C2.98818201,14.9396825 2.99849947,14.9603175 2.95722963,14.8984127 C2.93659471,14.8571429 2.92627725,14.8261905 2.91595979,14.7952381 C2.95722963,14.815873 2.99849947,14.8365079 3.03976932,14.8674603 C3.29770582,15.0738095 3.49373757,15.2698413 3.65881693,15.2285714 C3.8238963,15.1873016 3.9786582,14.9603175 3.93738836,14.4650794 C3.91675344,14.3412698 3.88580106,14.1968254 3.80326138,14.031746 C3.71040424,13.8666667 3.56595979,13.65 3.26675344,13.5055556 C3.122309,13.4436508 2.93659471,13.402381 2.76119789,13.402381 C2.66834074,13.402381 2.58580106,13.4126984 2.50326138,13.4333333 C2.4207217,13.4436508 2.34849947,13.4746032 2.26595979,13.4952381 C1.9770709,13.6087302 1.75008678,13.784127 1.56437249,13.9698413 C1.20326138,14.3515873 0.945324871,14.8055556 0.800880426,15.352381 C0.666753442,15.8992063 0.646118521,16.5388889 0.852467728,17.1888889 L0.945324871,17.4261905 C0.976277252,17.4984127 1.00722963,17.5706349 1.03818201,17.6325397 C1.11040424,17.7769841 1.18262646,17.9111111 1.25484868,18.0555556 C1.35802328,18.1896825 1.45088043,18.334127 1.55405503,18.468254 L1.63659471,18.5714286 L1.72945185,18.6642857 L1.93580106,18.85 C2.472309,19.3555556 3.26675344,19.6857143 4.04056297,19.7166667 C4.80405503,19.7579365 5.76357884,19.5309524 6.60961058,18.9738095 Z" id="path-1"></path>
        <linearGradient x1="-0.00587040952%" y1="49.968601%" x2="100.01289%" y2="49.968601%" id="linearGradient-3">
            <stop stop-color="#FDF175" offset="0%"></stop>
            <stop stop-color="#BCA22B" offset="100%"></stop>
        </linearGradient>
    </defs>
    <g id="Page-1" stroke="none" stroke-width="1" fill="none" fill-rule="evenodd">
        <g id="Success" transform="translate(-1415.000000, -754.000000)">
            <g id="ornament" transform="translate(0.000000, 648.000000)">
                <g id="Group-1576" transform="translate(1414.682540, 106.269841)">
                    <mask id="mask-2" fill="white">
                        <use xlink:href="#path-1"></use>
                    </mask>
                    <g id="Clip-1575"></g>
                    <path d="M10.6850074,11.6896825 C13.904055,10.2349206 15.8024677,15.7031746 15.8024677,15.7031746 C10.2516741,14.681746 10.6850074,11.6896825 10.6850074,11.6896825 Z M6.60961058,18.9738095 C7.03262646,18.7055556 7.43500741,18.3444444 7.80643598,17.9214286 C8.16754709,17.4984127 8.4770709,16.9825397 8.70405503,16.4357143 C8.84849947,16.0746032 8.96199154,15.7031746 9.03421376,15.3214286 C12.7278646,18.581746 19.1350074,19.1388889 19.8984995,19.1904762 L19.9088169,19.2007937 C19.9088169,19.2007937 19.9088169,19.2007937 19.9088169,19.1904762 C19.6611979,18.4373016 17.5151661,12.0507937 13.27469,9.33730159 C13.8731026,9.1515873 14.4302455,8.88333333 14.9461185,8.52222222 C15.4207217,8.18174603 15.8643725,7.76904762 16.1945312,7.31507937 C16.52469,6.87142857 16.7826265,6.3968254 16.9580233,5.92222222 C17.3191344,4.97301587 17.3294519,3.99285714 17.1231026,3.25 C16.9270709,2.50714286 16.4318328,1.80555556 15.8231026,1.38253968 L15.5961185,1.22777778 L15.4826265,1.15555556 L15.3691344,1.10396825 C15.204055,1.03174603 15.0492931,0.95952381 14.8945312,0.897619048 C14.7397693,0.856349206 14.5953249,0.815079365 14.440563,0.773809524 C14.3683407,0.753174603 14.2961185,0.732539683 14.2135788,0.722222222 L13.9659598,0.691269841 C13.2850074,0.629365079 12.6556423,0.784126984 12.1604042,1.04206349 C11.6651661,1.3 11.2627852,1.64047619 10.9842138,2.08412698 C10.8397693,2.31111111 10.7159598,2.55873016 10.67469,2.87857143 C10.6643725,2.95079365 10.654055,3.03333333 10.654055,3.11587302 C10.654055,3.1984127 10.6643725,3.28095238 10.6850074,3.37380952 C10.7159598,3.54920635 10.7984995,3.71428571 10.9016741,3.8484127 C11.1080233,4.10634921 11.3453249,4.20952381 11.5207217,4.26111111 C11.706436,4.30238095 11.8508804,4.30238095 11.97469,4.29206349 C12.469928,4.21984127 12.6659598,4.02380952 12.6659598,3.85873016 C12.6659598,3.68333333 12.4286582,3.52857143 12.1810392,3.33253968 C12.1397693,3.3015873 12.1088169,3.26031746 12.0778646,3.22936508 C12.1088169,3.22936508 12.1397693,3.22936508 12.1913566,3.25 C12.2532614,3.27063492 12.2326265,3.26031746 12.2532614,3.26031746 C12.2532614,3.26031746 12.2738963,3.25 12.2842138,3.25 C12.3048487,3.23968254 12.3358011,3.21904762 12.3667534,3.1984127 C12.5008804,3.11587302 12.7278646,3.01269841 12.9548487,2.97142857 C13.1921503,2.91984127 13.4397693,2.93015873 13.6461185,2.98174603 C13.6667534,2.99206349 13.6977058,3.00238095 13.7183407,3.01269841 C13.7492931,3.02301587 13.790563,3.04365079 13.8215153,3.05396825 C13.8834201,3.08492063 13.9556423,3.11587302 14.0278646,3.13650794 C14.0794519,3.17777778 14.1413566,3.20873016 14.2032614,3.23968254 L14.2445312,3.26031746 L14.2754836,3.29126984 C14.2961185,3.31190476 14.3167534,3.33253968 14.3477058,3.3531746 C14.5127852,3.50793651 14.6262773,3.67301587 14.6984995,3.92063492 C14.7604042,4.15793651 14.8119915,4.59126984 14.6469122,5.13809524 C14.5850074,5.40634921 14.4508804,5.6952381 14.2754836,5.97380952 C14.1104042,6.26269841 13.8937376,6.52063492 13.6048487,6.75793651 C13.0477058,7.2531746 12.2429439,7.62460317 11.3556423,7.82063492 C10.4580233,8.01666667 9.48818201,8.03730159 8.56992805,7.87222222 C7.66199154,7.70714286 6.80564233,7.35634921 6.15564233,6.86111111 C5.8254836,6.62380952 5.55722963,6.33492063 5.35088043,6.03571429 C5.23738836,5.89126984 5.15484868,5.72619048 5.072309,5.57142857 C5.01040424,5.41666667 4.92786455,5.26190476 4.88659471,5.10714286 C4.69056297,4.48809524 4.69056297,3.92063492 4.71119789,3.52857143 C4.73183281,3.13650794 4.76278519,2.90952381 4.72151535,2.89920635 C4.69056297,2.88888889 4.5770709,3.08492063 4.43262646,3.47698413 C4.29849947,3.86904762 4.16437249,4.47777778 4.25722963,5.24126984 C4.27786455,5.43730159 4.32945185,5.63333333 4.3707217,5.83968254 C4.44294392,6.03571429 4.50484868,6.25238095 4.61834074,6.45873016 C4.69056297,6.62380952 4.78342011,6.78888889 4.88659471,6.95396825 C4.74215027,6.90238095 4.59770582,6.85079365 4.44294392,6.81984127 C4.22627725,6.76825397 3.99929312,6.74761905 3.79294392,6.72698413 C3.58659471,6.72698413 3.38024551,6.71666667 3.18421376,6.73730159 C2.4207217,6.81984127 1.86357884,7.07777778 1.50246773,7.28412698 C1.15167408,7.51111111 0.986594712,7.66587302 0.996912172,7.68650794 C1.01754709,7.72777778 1.24453122,7.65555556 1.61595979,7.54206349 C1.99770582,7.43888889 2.54453122,7.32539683 3.19453122,7.38730159 C3.34929312,7.39761905 3.51437249,7.42857143 3.68976932,7.45952381 C3.85484868,7.51111111 4.01992805,7.55238095 4.19532487,7.63492063 C4.5254836,7.76904762 4.86595979,7.97539683 5.1754836,8.24365079 C5.53659471,8.54285714 5.86675344,8.93492063 6.15564233,9.37857143 C6.64056297,10.534127 7.04294392,11.7103175 7.16675344,12.9484127 C7.18738836,12.9896825 7.21834074,13.0309524 7.23897566,13.0722222 C7.23897566,13.0722222 7.23897566,13.0825397 7.23897566,13.0928571 C7.23897566,14.0007937 7.05326138,14.8674603 6.69215027,15.5174603 C6.51675344,15.847619 6.3207217,16.1261905 6.07310265,16.3428571 C5.84611852,16.5698413 5.58818201,16.765873 5.34056297,16.8896825 C4.84532487,17.168254 4.41199154,17.2095238 4.16437249,17.1992063 C3.90643598,17.1888889 3.7207217,17.1166667 3.53500741,16.9825397 C3.51437249,16.9619048 3.48342011,16.9412698 3.46278519,16.9309524 L3.42151535,16.9 L3.39056297,16.8587302 C3.34929312,16.8071429 3.30802328,16.765873 3.25643598,16.7142857 C3.21516614,16.652381 3.1738963,16.5904762 3.13262646,16.5285714 C3.11199154,16.5079365 3.08103916,16.4666667 3.0707217,16.4460317 C3.05008678,16.4253968 3.03976932,16.3944444 3.02945185,16.3738095 C2.92627725,16.1880952 2.86437249,15.9507937 2.86437249,15.7134921 C2.85405503,15.4761905 2.90564233,15.2388889 2.95722963,15.084127 C2.96754709,15.0428571 2.97786455,15.0119048 2.98818201,14.9912698 C2.98818201,14.9809524 2.98818201,14.9603175 2.98818201,14.9603175 C2.98818201,14.9396825 2.99849947,14.9603175 2.95722963,14.8984127 C2.93659471,14.8571429 2.92627725,14.8261905 2.91595979,14.7952381 C2.95722963,14.815873 2.99849947,14.8365079 3.03976932,14.8674603 C3.29770582,15.0738095 3.49373757,15.2698413 3.65881693,15.2285714 C3.8238963,15.1873016 3.9786582,14.9603175 3.93738836,14.4650794 C3.91675344,14.3412698 3.88580106,14.1968254 3.80326138,14.031746 C3.71040424,13.8666667 3.56595979,13.65 3.26675344,13.5055556 C3.122309,13.4436508 2.93659471,13.402381 2.76119789,13.402381 C2.66834074,13.402381 2.58580106,13.4126984 2.50326138,13.4333333 C2.4207217,13.4436508 2.34849947,13.4746032 2.26595979,13.4952381 C1.9770709,13.6087302 1.75008678,13.784127 1.56437249,13.9698413 C1.20326138,14.3515873 0.945324871,14.8055556 0.800880426,15.352381 C0.666753442,15.8992063 0.646118521,16.5388889 0.852467728,17.1888889 L0.945324871,17.4261905 C0.976277252,17.4984127 1.00722963,17.5706349 1.03818201,17.6325397 C1.11040424,17.7769841 1.18262646,17.9111111 1.25484868,18.0555556 C1.35802328,18.1896825 1.45088043,18.334127 1.55405503,18.468254 L1.63659471,18.5714286 L1.72945185,18.6642857 L1.93580106,18.85 C2.472309,19.3555556 3.26675344,19.6857143 4.04056297,19.7166667 C4.80405503,19.7579365 5.76357884,19.5309524 6.60961058,18.9738095 Z" id="Fill-1574" fill="url(#linearGradient-3)" mask="url(#mask-2)"></path>
                </g>
            </g>
        </g>
    </g>
</svg>