<?xml version="1.0" encoding="UTF-8"?>
<svg width="121px" height="119px" viewBox="0 0 121 119" version="1.1" xmlns="http://www.w3.org/2000/svg" xmlns:xlink="http://www.w3.org/1999/xlink">
    <!-- Generator: Sketch 53 (72520) - https://sketchapp.com -->
    <title>Group</title>
    <desc>Created with Sketch.</desc>
    <defs>
        <filter x="-0.8%" y="-1.5%" width="101.7%" height="103.1%" filterUnits="objectBoundingBox" id="filter-1">
            <feOffset dx="0" dy="2" in="SourceAlpha" result="shadowOffsetOuter1"></feOffset>
            <feGaussianBlur stdDeviation="2" in="shadowOffsetOuter1" result="shadowBlurOuter1"></feGaussianBlur>
            <feColorMatrix values="0 0 0 0 0   0 0 0 0 0   0 0 0 0 0  0 0 0 0.5 0" type="matrix" in="shadowBlurOuter1" result="shadowMatrixOuter1"></feColorMatrix>
            <feMerge>
                <feMergeNode in="shadowMatrixOuter1"></feMergeNode>
                <feMergeNode in="SourceGraphic"></feMergeNode>
            </feMerge>
        </filter>
        <path d="M15.6265741,23.7298657 C15.6265741,23.7298657 11.3703677,16.8488865 15.7730496,14.6483874 C15.7730496,14.6483874 19.4071561,16.8034286 15.6265741,23.7298657 Z M31.25399,11.4697017 L31.2228429,11.0883604 L31.2034812,10.8997943 L31.1622324,10.7238554 C31.1066728,10.4906732 31.0452204,10.2608583 30.9804008,10.036936 C30.8970613,9.83069183 30.808671,9.63118216 30.7194388,9.43503973 C30.6714555,9.33486399 30.6344157,9.24226456 30.5780142,9.1404052 L30.3953408,8.83230165 C29.8717331,8.0367884 29.161243,7.49213541 28.4541201,7.16635379 C27.7385791,6.84309761 27.0163035,6.70924935 26.2839263,6.77575257 C25.9177376,6.81447597 25.53808,6.90286633 25.1550551,7.1217377 C25.0590884,7.17813917 24.9690144,7.23538245 24.8747314,7.3161965 C24.7846574,7.38690879 24.6987925,7.47109008 24.6188202,7.57042401 C24.4614012,7.75478105 24.3443892,7.98964687 24.2888295,8.21020187 C24.1768684,8.66478087 24.2770442,9.00824056 24.3746945,9.25320813 C24.4858138,9.48891576 24.6137693,9.65391111 24.7349904,9.78270849 C25.2358691,10.2608583 25.6197358,10.2945308 25.8007256,10.153948 C25.9985517,10.0032635 25.9598283,9.61771315 25.956461,9.16818502 C25.9606701,9.09410548 25.9707718,9.02507682 25.9859245,8.96194085 C26.0103371,9.00150606 26.0355914,9.04696396 26.0591622,9.10252361 C26.0928347,9.19680666 26.0877838,9.16481777 26.0987274,9.18417947 C26.1012529,9.19007216 26.1256654,9.20185754 26.136609,9.20775023 C26.1685979,9.22374468 26.213214,9.23889731 26.2654064,9.25994264 C26.4750178,9.34075668 26.7772287,9.4914412 27.0297726,9.70862895 C27.2848419,9.92581669 27.4894024,10.1935132 27.603889,10.4729951 C27.6156744,10.5091931 27.6274598,10.545391 27.6417706,10.5799054 C27.6552396,10.6186288 27.6678668,10.6783975 27.6821776,10.7263808 C27.7082738,10.8265566 27.7411045,10.9258905 27.7739352,11.0243826 C27.7798279,11.1186657 27.7924551,11.2104233 27.8092914,11.3013391 L27.8227604,11.3695259 L27.8160259,11.4326619 C27.8135004,11.4739107 27.8118168,11.5151596 27.8126586,11.5564084 C27.7941387,11.8796646 27.7057484,12.1406266 27.4944533,12.436103 C27.2873673,12.7197939 26.86141,13.1491185 26.1214564,13.4378604 C25.7645277,13.5952794 25.3368867,13.6996642 24.8839913,13.7535403 C24.4294123,13.8166762 23.953788,13.7947891 23.4411239,13.6954552 C22.4191629,13.5136236 21.3155461,12.9512925 20.3331504,12.1448357 C20.3264159,12.138943 20.3205232,12.1338921 20.3137887,12.1279994 C20.2868507,12.0665471 20.2658054,12.0042529 20.2380255,11.9436424 C19.0190804,10.7213299 18.0964534,9.24647363 17.2706348,7.70174683 C17.0416617,7.0047257 16.9086553,6.3034955 16.9010789,5.635096 C16.8825591,5.06771406 16.9583222,4.52727014 17.1064813,4.03986043 C17.16625,3.78900016 17.2765275,3.56844517 17.3657597,3.34283929 C17.4802463,3.13406968 17.5821056,2.91940737 17.7125866,2.73673396 C18.2201999,1.99004585 18.8330397,1.49085076 19.2766751,1.17264546 C19.7270451,0.862016478 19.997267,0.686919381 19.9745381,0.630517912 C19.9593854,0.59011089 19.6428638,0.638936042 19.0948435,0.825818521 C18.5560832,1.02532819 17.7790899,1.40330222 17.0172491,2.16345933 C16.8236321,2.34865818 16.6552696,2.57594768 16.4717543,2.80660443 C16.3143353,3.05409744 16.1341873,3.30832496 16.0062318,3.59959225 C15.9035306,3.78815835 15.8260838,3.99019346 15.7520042,4.19896308 C15.6661393,3.9405265 15.5802744,3.68966623 15.4590533,3.45900948 C15.334465,3.16437494 15.1568425,2.90762199 15.0019489,2.65676172 C14.8209591,2.42189591 14.6542801,2.19208097 14.4631886,2.00351486 C13.7072405,1.23073056 12.931089,0.843496593 12.3923287,0.639777855 C11.8434666,0.447844498 11.5252613,0.399861159 11.5067414,0.446160873 C11.4856961,0.495827838 11.7567599,0.670924935 12.2054462,0.984079358 C12.647398,1.30565191 13.2577124,1.8115815 13.7594329,2.56837136 C13.8882303,2.75357022 13.9884061,2.96907433 14.101209,3.1812112 C14.1879157,3.4085007 14.2956678,3.63242295 14.3529111,3.88496684 C14.4960193,4.37658562 14.565048,4.92039679 14.5389518,5.49030417 C14.5103301,6.6284353 14.1273052,7.85748223 13.50268,8.9914043 C12.8763711,10.1253264 12.0008857,11.1691744 11.0058627,11.9655295 C10.009998,12.7585173 8.89543762,13.3056958 7.87010943,13.4715329 C7.35491989,13.5632905 6.87761194,13.5776013 6.42387475,13.5085727 C5.97182119,13.4479621 5.54502201,13.3368428 5.19061875,13.1735311 C4.45403241,12.8730039 4.03480955,12.4369448 3.83193263,12.1515702 C3.62400482,11.8527266 3.53898171,11.5909227 3.52467089,11.2676666 C3.52551271,11.2264177 3.52551271,11.1851689 3.52298727,11.1430782 L3.51793639,11.0807841 L3.53224721,11.0125972 C3.55076709,10.9216814 3.56339429,10.8299238 3.57181242,10.7356408 C3.60464312,10.6379905 3.63831564,10.5394983 3.66693728,10.4384808 C3.6812481,10.3913393 3.69471711,10.3315705 3.70902793,10.293689 C3.72333875,10.2591746 3.73596595,10.2238185 3.74859314,10.1867787 C3.86644696,9.90898043 4.07437476,9.64380935 4.33196953,9.42998886 C4.58703886,9.21701018 4.89177515,9.06969291 5.10307021,8.99224611 C5.15526261,8.97120079 5.1998787,8.95688997 5.23186759,8.94173734 C5.24365297,8.93500283 5.26806555,8.92405926 5.26974917,8.91816657 C5.28153455,8.89880487 5.27564186,8.93163558 5.3101562,8.83735253 C5.33541058,8.78179287 5.36150679,8.73633497 5.38591936,8.69761157 C5.40023018,8.76074755 5.41033194,8.82977621 5.41285738,8.90469756 C5.40359744,9.35338388 5.35982316,9.7380924 5.55512377,9.89214418 C5.73442993,10.0352524 6.11829664,10.0066307 6.62590986,9.53521548 C6.74881456,9.40810172 6.87929557,9.24479 6.99294032,9.00992419 C7.09395787,8.76579843 7.19918449,8.42402236 7.09311606,7.96860155 C7.04008184,7.74720474 6.92643709,7.51065529 6.77070169,7.32377281 C6.6932549,7.22443888 6.60823179,7.13857396 6.51899962,7.06701986 C6.42640019,6.98452219 6.3363262,6.92643709 6.24120134,6.86919381 C5.86154369,6.64442975 5.48272785,6.55098851 5.11653921,6.50721423 C4.38500375,6.43145107 3.66188641,6.55603939 2.94213632,6.86919381 C2.22996255,7.18571549 1.5127379,7.72110853 0.979028481,8.50988728 L0.792146002,8.81462358 C0.734060907,8.91648295 0.696179324,9.00824056 0.647354172,9.10673268 C0.555596558,9.3028751 0.463838945,9.50154296 0.377132209,9.70610351 C0.309787172,9.92918395 0.245809386,10.1581571 0.186882479,10.3913393 L0.143108204,10.5664364 L0.121221067,10.7541607 L0.0850231097,11.1355019 C0.0075763167,12.1641974 0.333357935,13.3200066 0.968084912,14.1870739 C1.58765926,15.0692939 2.66265441,15.919525 4.00618791,16.3572678 C4.67458741,16.5963426 5.41285738,16.7301909 6.193218,16.761338 C6.97357862,16.8025868 7.80865708,16.6956766 8.59743583,16.4667034 C9.43588155,16.2335213 10.2255021,15.8572309 10.9545121,15.3866574 C10.1648916,22.3678123 15.1896732,30.3221031 15.7865186,31.2379956 L15.7865186,31.2556737 C15.7882022,31.25399 15.7907276,31.249781 15.7924113,31.2472555 C15.7940949,31.249781 15.7974621,31.25399 15.798304,31.2565155 L15.798304,31.2379956 C16.410302,30.3633519 21.4519198,22.9284598 21.1732797,16.0626332 C21.6522713,16.3143353 22.1523082,16.5264722 22.6733905,16.6805239 C23.458802,16.9204406 24.291355,17.0399781 25.0717156,17.0096728 C25.8512344,16.9894693 26.5920298,16.8665646 27.2637966,16.6367497 C28.6123809,16.2183686 29.6991615,15.384132 30.3305212,14.5094883 C30.9770336,13.6508391 31.3179678,12.5000807 31.25399,11.4697017 L31.25399,11.4697017 Z" id="path-2"></path>
        <linearGradient x1="0.000954190645%" y1="49.9995337%" x2="100.000364%" y2="49.9995337%" id="linearGradient-4">
            <stop stop-color="#FDF175" offset="0%"></stop>
            <stop stop-color="#BCA22B" offset="100%"></stop>
        </linearGradient>
        <path d="M9.29177369,8.31565108 C7.48490108,12.4781289 7.00006942,18.3204849 6.94258938,19.0902176 C6.93842416,19.1392775 6.9109337,19.1756495 6.87761194,19.1756495 L5.11489066,21.2023304 C4.88080528,21.4704681 4.4692815,21.4704681 4.23519611,21.2023304 L2.47247484,19.1756495 C2.43915307,19.1756495 2.41082957,19.1392775 2.4074974,19.0902176 C2.35001736,18.3204849 1.94099271,12.9272806 0.0583130857,8.31565108 C0.0433182923,8.28012496 3.69038528,1.66126932 4.5109337,0.278287988 C4.59423811,0.138721064 4.75584866,0.138721064 4.83832003,0.278287988 C5.65970149,1.66126932 9.30760153,8.28012496 9.29177369,8.31565108" id="path-5"></path>
        <linearGradient x1="-0.0085226045%" y1="49.9988047%" x2="99.9976395%" y2="49.9988047%" id="linearGradient-7">
            <stop stop-color="#FDF175" offset="0%"></stop>
            <stop stop-color="#BCA22B" offset="100%"></stop>
        </linearGradient>
        <path d="M2.98896217,0.102814301 L0.166504686,2.90344186 C0.674953141,3.61634432 2.98896217,7.72551753 2.98896217,7.72551753 C2.98896217,7.72551753 5.19250955,3.61634432 5.70014578,2.90344186 L2.98896217,0.102814301" id="path-8"></path>
        <linearGradient x1="0%" y1="49.9988853%" x2="100.001468%" y2="49.9988853%" id="linearGradient-10">
            <stop stop-color="#FDF175" offset="0%"></stop>
            <stop stop-color="#BCA22B" offset="100%"></stop>
        </linearGradient>
        <path d="M1.398338,6.73476154 C1.06921698,6.74155918 0.758854156,6.60305727 0.486007718,6.2818688 C0.221687731,5.96237973 0.0230214182,5.44915793 0.0162002573,4.76599514 C0.0102317414,4.08878028 0.24982502,3.24162444 0.800633767,2.46754321 C1.34376871,1.68836376 2.19982441,1.03409094 3.16587133,0.672966331 C3.64761582,0.47583478 4.30074198,0.34073169 5.04339588,0.300795557 C5.78604978,0.262558834 6.6122629,0.35262756 7.42568634,0.587995835 C8.24081508,0.81996529 9.04230149,1.19298577 9.76022868,1.66627143 C10.4790085,2.13870739 11.1142291,2.70885942 11.6428691,3.30705172 C12.1638353,3.91459077 12.5807787,4.54507185 12.9022259,5.14241444 C13.0574074,5.44490941 13.1938306,5.7355085 13.310643,6.01166262 C13.4172236,6.29291496 13.5186884,6.55122527 13.5920158,6.79509059 C13.6619327,7.04150503 13.7199126,7.26412773 13.7651028,7.46040958 C13.8085877,7.65839084 13.8273459,7.83597917 13.8418409,7.98127872 C13.8682729,8.27187782 13.8495147,8.44436793 13.7804504,8.47665672 C13.7207653,8.50384728 13.5749629,8.40698091 13.3669175,8.216647 C13.1409666,8.00082194 12.8630043,7.73401458 12.5458203,7.4289705 C12.3769965,7.27007567 12.1834461,7.10693232 11.9907483,6.92849427 C11.7878188,6.75940299 11.5720996,6.58436376 11.3470012,6.40932454 C10.8882782,6.06774314 10.3801017,5.73975703 9.84975642,5.46530233 C9.31258999,5.19934467 8.75410744,4.99116696 8.21523572,4.86371121 C7.67636401,4.73370635 7.15710313,4.68442346 6.70349593,4.69631933 C6.24818343,4.70566609 5.85937726,4.77874072 5.55754089,4.86795974 C5.47909754,4.88325443 5.41259122,4.91554321 5.34523225,4.93508643 C5.27872593,4.95632905 5.21477755,4.97332315 5.16106091,4.99966401 C5.10563897,5.02260604 5.05277498,5.04129955 5.00246891,5.05659424 C4.95642608,5.07953627 4.91379382,5.09822978 4.87286686,5.11267477 C4.54971436,5.23503228 4.28965759,5.33189865 4.03215877,5.43726206 C3.77721788,5.54092607 3.49755028,5.66073447 3.21361945,5.8383228 C2.63723135,6.17735509 2.06510648,6.72116626 1.398338,6.73476154" id="path-11"></path>
        <linearGradient x1="0.000785443329%" y1="49.9993987%" x2="99.9978274%" y2="49.9993987%" id="linearGradient-13">
            <stop stop-color="#FDF175" offset="0%"></stop>
            <stop stop-color="#BCA22B" offset="100%"></stop>
        </linearGradient>
        <path d="M3.8018799,6.88515932 C3.83946685,7.05934884 3.80267963,7.23948629 3.669126,7.42047345 C3.53637209,7.59636237 3.29885456,7.75950573 2.95657341,7.83937799 C2.61669143,7.91755085 2.16644776,7.88441236 1.72020271,7.67708435 C1.27155849,7.47485456 0.853303714,7.09248733 0.571001736,6.61835196 C0.422253384,6.38383339 0.28630059,6.05159875 0.188734467,5.66073447 C0.0919680666,5.26987018 0.0511822284,4.82037626 0.0847705658,4.36153558 C0.115959736,3.90184519 0.219923638,3.43450746 0.382267268,2.99945852 C0.545410621,2.56440958 0.765334259,2.16334884 1.01084901,1.81581951 C1.26196182,1.47083929 1.53546685,1.17854078 1.80177438,0.940623395 C1.93772718,0.82506352 2.06968136,0.719700104 2.19523776,0.627082263 C2.32639222,0.539562652 2.44555085,0.456291565 2.56071086,0.390014578 C2.6766706,0.326286706 2.78223395,0.270206178 2.87660118,0.22432211 C2.97176814,0.179287747 3.05893787,0.149548074 3.13011316,0.125756335 C3.27326345,0.0790225616 3.36203263,0.070525512 3.38522457,0.102814301 C3.40521763,0.131704269 3.3716293,0.220073586 3.29805484,0.35262756 C3.21328428,0.496227699 3.10772093,0.673816036 2.98776258,0.876045817 C2.92538424,0.983958348 2.86380562,1.10546616 2.7950295,1.22782367 C2.730252,1.35442971 2.66467477,1.4886831 2.60069698,1.62803471 C2.47674002,1.91013676 2.3647789,2.21688025 2.2824075,2.52957168 C2.20483443,2.84481222 2.15845054,3.16515099 2.15045331,3.46594655 C2.14165637,3.76759181 2.17044637,4.04884415 2.22402777,4.28846095 C2.27680944,4.52977716 2.35358278,4.72860812 2.43035613,4.8790059 C2.44555085,4.91979174 2.4687428,4.95123082 2.48553697,4.98521902 C2.50313086,5.01835751 2.51832558,5.0497966 2.53751892,5.07613745 C2.55511281,5.10247831 2.56950781,5.12881916 2.58230337,5.1534606 C2.59829781,5.17555293 2.61269281,5.19594585 2.62388893,5.21633877 C2.71905588,5.3752336 2.7950295,5.50268934 2.87500174,5.62759597 C2.95417425,5.7525026 3.04294342,5.88760569 3.16130233,6.01846026 C3.39242208,6.28781673 3.72510656,6.53168205 3.8018799,6.88515932" id="path-14"></path>
        <linearGradient x1="-0.0127701301%" y1="49.9972665%" x2="99.9917364%" y2="49.9972665%" id="linearGradient-16">
            <stop stop-color="#FDF175" offset="0%"></stop>
            <stop stop-color="#BCA22B" offset="100%"></stop>
        </linearGradient>
        <path d="M40.83928,22.104 C40.8611454,22.108186 40.8830109,22.1106977 40.9048763,22.1140465 C40.8670323,22.1307907 40.8266653,22.1466977 40.7862984,22.1617674 C40.8039589,22.1425116 40.8216195,22.1232558 40.83928,22.104 Z M51.9048664,12.9683721 C50.9915644,8.9547907 47.6024238,4.99144186 43.8247513,2.77451163 C39.9705499,0.513209302 35.2459364,0.229395349 30.9476987,0.594418605 C25.8993088,1.02306977 21.0258422,2.20688372 16.0674369,3.01562791 C11.3697347,3.78083721 6.35330193,4.23293023 1.67662419,2.55013953 C1.15185402,2.36093023 0.566533446,2.42790698 0.412634502,2.7812093 C0.0468091437,2.99302326 0.0468091437,3.58074419 0.346197253,4.04288372 C2.60758665,7.53823256 7.14550305,9.36502326 11.3234809,9.82967442 C15.6368563,10.3093953 19.1563485,7.77097674 22.3108563,5.47702326 C21.7633798,7.33646512 21.5413616,9.26288372 22.6607031,11.1055814 C23.1484703,11.9084651 25.0230099,13.7545116 24.4217107,10.7447442 C23.7926593,7.59432558 27.4416621,5.25767442 30.2614608,3.90893023 C33.6253721,2.30148837 37.9370655,2.68493023 41.5852274,3.6812093 C41.6886676,3.70967442 41.7853801,3.71804651 41.8778876,3.71804651 C42.2142788,3.87293023 42.5498289,4.03702326 42.8794922,4.21953488 C49.188508,7.69562791 51.310295,14.3531163 49.8839966,20.3274419 C48.771383,24.984 45.5260495,30.8067907 39.8242198,31.5853953 C37.3139009,31.927814 34.5824049,30.8762791 32.9097,29.1407442 C32.3840889,28.5948837 32.1721624,28.1026047 31.9459394,27.6287442 C31.3303436,26.3402791 31.8643646,24.3251163 32.8264432,23.0140465 C34.3225428,24.4666047 36.9808737,25.0442791 39.1110706,24.9923721 C41.9510527,24.9228837 44.7414172,22.9135814 44.3427937,20.5275349 C44.3545674,20.3676279 43.8121367,19.1570233 43.6750573,18.8824186 C41.6205484,14.755814 33.5278187,15.7462326 30.2454822,20.0436279 C26.5813418,24.8425116 29.9746874,30.4141395 35.5772817,32.6737674 C40.8737601,34.8111628 45.7161105,31.6130233 48.4728358,27.9016744 C51.5482918,23.7608372 53.0687797,18.0837209 51.9048664,12.9683721 L51.9048664,12.9683721 Z" id="path-17"></path>
        <linearGradient x1="-0.00021614639%" y1="49.9998551%" x2="99.9992331%" y2="49.9998551%" id="linearGradient-19">
            <stop stop-color="#FDF175" offset="0%"></stop>
            <stop stop-color="#BCA22B" offset="100%"></stop>
        </linearGradient>
        <path d="M12.6036237,6.73476154 C12.9327448,6.74155918 13.2431076,6.60305727 13.515954,6.2818688 C13.780274,5.96237973 13.9789403,5.44915793 13.9857615,4.76599514 C13.99173,4.08878028 13.7521367,3.24162444 13.201328,2.46754321 C12.658193,1.68836376 11.8021373,1.03409094 10.8360904,0.672966331 C10.3543459,0.47583478 9.70121976,0.34073169 8.95856586,0.300795557 C8.2167646,0.262558834 7.38969884,0.35262756 6.57627539,0.587995835 C5.76114666,0.81996529 4.95966025,1.19298577 4.24173306,1.66627143 C3.52295322,2.13870739 2.88858525,2.70885942 2.35909264,3.30705172 C1.83897911,3.91459077 1.421183,4.54507185 1.09973579,5.14241444 C0.944554383,5.44490941 0.808131164,5.7355085 0.691318782,6.01166262 C0.584738142,6.29291496 0.483273373,6.55122527 0.409945893,6.79509059 C0.340028993,7.04150503 0.282049125,7.26412773 0.236858934,7.46040958 C0.193374033,7.65839084 0.17461584,7.83597917 0.160120873,7.98127872 C0.133688874,8.27187782 0.152447067,8.44436793 0.221511322,8.47665672 C0.28119648,8.50384728 0.426998795,8.40698091 0.635044204,8.216647 C0.860995161,8.00082194 1.13895747,7.73401458 1.45614145,7.4289705 C1.62496519,7.27007567 1.81851563,7.10693232 2.01121343,6.92849427 C2.21414297,6.75940299 2.42986218,6.58436376 2.65496049,6.40932454 C3.11368357,6.06774314 3.62186006,5.73975703 4.15220532,5.46530233 C4.68937175,5.19934467 5.2478543,4.99116696 5.78672601,4.86371121 C6.32559773,4.73370635 6.84485861,4.68442346 7.29846581,4.69631933 C7.7537783,4.70566609 8.14258448,4.77874072 8.44442085,4.86795974 C8.5228642,4.88325443 8.59022317,4.91554321 8.65672949,4.93508643 C8.7232358,4.95632905 8.78718419,4.97332315 8.84090083,4.99966401 C8.89632276,5.02260604 8.94918676,5.04129955 8.99949282,5.05659424 C9.04553566,5.07953627 9.08816792,5.09822978 9.12909488,5.11267477 C9.45224738,5.23503228 9.71230414,5.33189865 9.96980297,5.43726206 C10.2255965,5.54092607 10.5044115,5.66073447 10.7883423,5.8383228 C11.3647304,6.17735509 11.9377079,6.72116626 12.6036237,6.73476154" id="path-20"></path>
        <linearGradient x1="0.00278881943%" y1="49.9993987%" x2="99.9998308%" y2="49.9993987%" id="linearGradient-22">
            <stop stop-color="#FDF175" offset="0%"></stop>
            <stop stop-color="#BCA22B" offset="100%"></stop>
        </linearGradient>
        <path d="M0.203129469,6.88515932 C0.16554252,7.05934884 0.202329747,7.23948629 0.335883374,7.42047345 C0.468637279,7.59636237 0.706154807,7.75950573 1.04843596,7.83937799 C1.38831795,7.91755085 1.83856161,7.88441236 2.28480666,7.67708435 C2.73345089,7.47485456 3.15170566,7.09248733 3.43400764,6.61835196 C3.58275599,6.38383339 3.71870878,6.05159875 3.8162749,5.66073447 C3.91304131,5.26987018 3.95382714,4.82037626 3.92023881,4.36153558 C3.88904964,3.90184519 3.78508573,3.43450746 3.6227421,2.99945852 C3.46039847,2.56440958 3.23967511,2.16334884 2.99416036,1.81581951 C2.74304755,1.47083929 2.46954252,1.17854078 2.20323499,0.940623395 C2.06808192,0.82506352 1.93532801,0.719700104 1.80977161,0.627082263 C1.67861715,0.539562652 1.55945852,0.456291565 1.44509823,0.390014578 C1.32833877,0.326286706 1.22277543,0.270206178 1.12840819,0.22432211 C1.03324124,0.179287747 0.946071503,0.149548074 0.874896217,0.125756335 C0.731745922,0.0790225616 0.642976744,0.070525512 0.619784797,0.102814301 C0.599791739,0.131704269 0.633380076,0.220073586 0.70695453,0.35262756 C0.791725095,0.496227699 0.897288442,0.673816036 1.01724679,0.876045817 C1.07962513,0.983958348 1.14120375,1.10546616 1.21077959,1.22782367 C1.27475738,1.35442971 1.34033461,1.4886831 1.40431239,1.62803471 C1.52826935,1.91013676 1.64023048,2.21688025 1.72260187,2.52957168 C1.80017494,2.84481222 1.84655883,3.16515099 1.85455606,3.46594655 C1.863353,3.76759181 1.834563,4.04884415 1.7809816,4.28846095 C1.72819993,4.52977716 1.65142659,4.72860812 1.57465325,4.8790059 C1.55945852,4.91979174 1.53626657,4.95123082 1.51947241,4.98521902 C1.50187851,5.01835751 1.48668379,5.0497966 1.46749045,5.07613745 C1.44989656,5.10247831 1.43550156,5.12881916 1.422706,5.1534606 C1.40671156,5.17555293 1.39231656,5.19594585 1.38112044,5.21633877 C1.28595349,5.3752336 1.20997987,5.50268934 1.13000764,5.62759597 C1.05083513,5.7525026 0.962065949,5.88760569 0.843707046,6.01846026 C0.612587296,6.28781673 0.279902812,6.53168205 0.203129469,6.88515932" id="path-23"></path>
        <linearGradient x1="0.00826356324%" y1="49.9972665%" x2="100.01277%" y2="49.9972665%" id="linearGradient-25">
            <stop stop-color="#FDF175" offset="0%"></stop>
            <stop stop-color="#BCA22B" offset="100%"></stop>
        </linearGradient>
        <path d="M11.7022066,22.1617674 C11.6618396,22.1466977 11.6214727,22.1307907 11.5836287,22.1140465 C11.6054941,22.1106977 11.6282005,22.108186 11.649225,22.104 C11.6668855,22.1232558 11.684546,22.1425116 11.7022066,22.1617674 Z M4.01566916,27.9016744 C6.77239451,31.6130233 11.6147449,34.8111628 16.9112233,32.6737674 C22.5138176,30.4141395 25.9080042,24.8425116 22.2430228,20.0436279 C18.9606863,15.7462326 10.8679566,14.755814 8.81344771,18.8824186 C8.67636832,19.1570233 8.13393762,20.3676279 8.14571131,20.5275349 C7.74708782,22.9135814 10.5374523,24.9228837 13.3774344,24.9923721 C15.5076313,25.0442791 18.1659622,24.4666047 19.6620618,23.0140465 C20.6241404,24.3251163 21.1581614,26.3402791 20.5425656,27.6287442 C20.3163425,28.1026047 20.1044161,28.5948837 19.578805,29.1407442 C17.9061001,30.8762791 15.1746041,31.927814 12.6642852,31.5853953 C6.9624555,30.8067907 3.71712203,24.984 2.60534933,20.3274419 C1.17820995,14.3531163 3.29999702,7.69562791 9.60901274,4.21953488 C9.93867605,4.03702326 10.2742262,3.87293023 10.6114583,3.71804651 C10.7031249,3.71804651 10.7998374,3.70967442 10.9032776,3.6812093 C14.5514395,2.68493023 18.8639738,2.30148837 22.2270442,3.90893023 C25.0468429,5.25767442 28.6958457,7.59432558 28.0667943,10.7447442 C27.4654951,13.7545116 29.3400347,11.9084651 29.8278019,11.1055814 C30.9471434,9.26288372 30.7251252,7.33646512 30.1776486,5.47702326 C33.3321565,7.77097674 36.8516487,10.3093953 41.165024,9.82967442 C45.3430019,9.36502326 49.8809183,7.53823256 52.1431487,4.04288372 C52.4416958,3.58074419 52.4416958,2.99302326 52.0758705,2.7812093 C51.9219715,2.42790698 51.336651,2.36093023 50.8118808,2.55013953 C46.1352031,4.23293023 41.1187703,3.78083721 36.4210681,3.01562791 C31.4626628,2.20688372 26.5891962,1.02306977 21.5408063,0.594418605 C17.2425686,0.229395349 12.5179551,0.513209302 8.66375366,2.77451163 C4.88608122,4.99144186 1.49694055,8.9547907 0.583638618,12.9683721 C-0.579433728,18.0837209 0.94021322,23.7608372 4.01566916,27.9016744 L4.01566916,27.9016744 Z" id="path-26"></path>
        <linearGradient x1="0.00059372918%" y1="49.9998551%" x2="100.000466%" y2="49.9998551%" id="linearGradient-28">
            <stop stop-color="#FDF175" offset="0%"></stop>
            <stop stop-color="#BCA22B" offset="100%"></stop>
        </linearGradient>
        <path d="M23.3901757,15.8069325 C23.3901757,15.8069325 16.5449039,20.0656643 14.3547184,15.6638243 C14.3547184,15.6638243 16.4980013,12.0297178 23.3901757,15.8069325 Z M11.186278,0.184567493 L10.8060317,0.215714573 L10.6184212,0.235918084 L10.4433738,0.276325106 C10.2113733,0.332726575 9.98272297,0.394178922 9.75993546,0.458156707 C9.55557398,0.542338004 9.35623779,0.631570178 9.16025179,0.720802353 C9.06142124,0.767943879 8.97012862,0.80498365 8.86794788,0.862226931 L8.56224322,1.04405853 C7.77076128,1.56850801 7.22886835,2.27899815 6.9055752,2.98696286 C6.58395715,3.70250388 6.45162472,4.42393759 6.51779093,5.15631488 C6.5563181,5.52250352 6.64342299,5.90216116 6.86202276,6.28518606 C6.91813841,6.38115274 6.97509161,6.47206854 7.05549612,6.56550978 C7.12668762,6.65558377 7.20960477,6.74144869 7.30843532,6.82057911 C7.49185812,6.97883995 7.72553374,7.09585195 7.94580861,7.15141161 C8.39724645,7.26337273 8.73896564,7.16235518 8.98269182,7.06386306 C9.21804253,6.95358556 9.38220175,6.82562999 9.5095089,6.70440892 C9.98523561,6.20268839 10.0187375,5.81966349 9.87886714,5.63867371 C9.72894622,5.44084766 9.34534968,5.48041287 8.89726202,5.48293831 C8.82439543,5.47957106 8.75487903,5.46862749 8.692063,5.45347485 C8.73226526,5.42906228 8.77665525,5.4046497 8.8327709,5.38023713 C8.92657617,5.34656461 8.89474938,5.35161548 8.91317542,5.34067192 C8.91903825,5.33898829 8.93076391,5.31457571 8.93662673,5.30279033 C8.95254013,5.27080144 8.96761597,5.22618535 8.9893922,5.17399295 C9.06895916,4.96438152 9.21971763,4.66132885 9.43496721,4.40962677 C9.6502168,4.15371563 9.9173943,3.94999689 10.1946224,3.83466852 C10.2314744,3.82372495 10.267489,3.81109775 10.3018284,3.79678693 C10.3403555,3.78331793 10.3998214,3.77153255 10.446724,3.75722172 C10.5472297,3.73028371 10.6460602,3.697453 10.7440532,3.66546411 C10.8370209,3.65788779 10.9283136,3.64694423 11.0196062,3.63010797 L11.0874475,3.61663896 L11.149426,3.62168984 C11.1913033,3.62505709 11.2323431,3.6258989 11.2725454,3.6258989 C11.595001,3.64441879 11.8546406,3.73196734 12.1486196,3.9441042 C12.4308729,4.15034838 12.8580219,4.57630574 13.1461381,5.31625934 C13.3027594,5.67318804 13.4066152,6.10082903 13.4602182,6.55288259 C13.5230342,7.00746159 13.501258,7.48392773 13.403265,7.99659183 C13.2231924,9.01855277 12.663711,10.1230114 11.8613409,11.1054071 C11.8563157,11.1112998 11.8504528,11.1180343 11.84459,11.1247688 C11.7842866,11.150865 11.7214706,11.1719103 11.6620047,11.1996902 C10.4458865,12.420319 8.97934163,13.342946 7.44244285,14.1696063 C6.74895391,14.3994213 6.05043969,14.5315859 5.3862649,14.540004 C4.82175821,14.5585239 4.28405302,14.4827607 3.7991133,14.3354435 C3.55036183,14.2748329 3.33008696,14.1653972 3.10562436,14.0761651 C2.89707515,13.9616785 2.68433821,13.860661 2.5025905,13.7293381 C1.75884875,13.2225667 1.26218336,12.6097269 0.945590589,12.1660915 C0.636535737,11.7165633 0.46148841,11.4454996 0.405372759,11.4682285 C0.365170502,11.4833811 0.414585776,11.7999028 0.601358762,12.3479231 C0.79901986,12.8866834 1.17591602,13.6636767 1.93222098,14.4255175 C2.11648133,14.6182926 2.34261902,14.787497 2.57294445,14.9701704 C2.81918328,15.1275895 3.07128493,15.3077374 3.36191375,15.435693 C3.54868674,15.5375524 3.75053557,15.615841 3.95740968,15.6890787 C3.70112029,15.7757855 3.45153128,15.8616504 3.2220434,15.9828714 C2.92890194,16.1074598 2.6734501,16.2850823 2.42386108,16.4408177 C2.19102301,16.6209657 1.96237267,16.7884865 1.77476214,16.979578 C1.00589397,17.735526 0.620622344,18.5116776 0.418773511,19.0512797 C0.226975243,19.5993 0.179235063,19.9175053 0.226137696,19.9360251 C0.275552971,19.9570705 0.448925204,19.6860067 0.761330244,19.2373204 C1.08043566,18.7953686 1.58380142,18.1842124 2.33591865,17.6824918 C2.52017899,17.5536944 2.73542858,17.4535187 2.94649043,17.3407158 C3.17262812,17.254009 3.39541563,17.146257 3.64584219,17.0890137 C4.13496965,16.9459055 4.67602503,16.8768768 5.24304436,16.9021312 C6.37540794,16.9307528 7.59906414,17.3129359 8.72640243,17.9367193 C9.85541582,18.5630282 10.8939741,19.4376719 11.6871312,20.4326948 C12.476938,21.4277177 13.0213436,22.5422781 13.1871779,23.5684481 C13.2784705,24.0827958 13.2927088,24.5601038 13.2240299,25.0146828 C13.1637266,25.4667363 13.0531704,25.8935355 12.8915238,26.247097 C12.593357,26.9836833 12.1595077,27.403748 11.8755792,27.6066249 C11.57825,27.8145527 11.3177729,27.898734 10.9953173,27.9138866 C10.9542775,27.912203 10.9140753,27.9130448 10.8721979,27.9155703 L10.8102194,27.9206211 L10.7423781,27.9063103 C10.651923,27.8886322 10.5606304,27.876005 10.4668251,27.8675869 C10.3696697,27.8339144 10.2708391,27.8002419 10.171171,27.7716202 C10.1242684,27.7573094 10.0648026,27.7446822 10.027113,27.7303714 C9.99277353,27.7160606 9.95675901,27.7025916 9.92074449,27.6908062 C9.64435397,27.5729524 9.37968911,27.3650246 9.16695217,27.106588 C8.95505277,26.8523605 8.80848204,26.5476242 8.73142771,26.3363291 C8.71048904,26.2841367 8.69541319,26.2403624 8.68117489,26.2083736 C8.67447452,26.1957464 8.66274886,26.1721756 8.65688603,26.1696502 C8.63845999,26.1578648 8.67028678,26.1637575 8.57731906,26.1292431 C8.52204096,26.1039887 8.47681342,26.0787344 8.43828626,26.05348 C8.50026474,26.040011 8.56978114,26.0299092 8.64348528,26.0273838 C9.09073539,26.0358019 9.47349438,26.0795762 9.62676548,25.8842756 C9.76831093,25.7049694 9.73983433,25.3211027 9.270808,24.8134895 C9.1443384,24.6905848 8.98185427,24.5609456 8.74817865,24.446459 C8.50529002,24.3454415 8.16524593,24.2410567 7.71213299,24.3471251 C7.49185812,24.4001593 7.25650741,24.5138041 7.07140951,24.6686976 C6.97174142,24.7478281 6.88714917,24.8320094 6.81512013,24.9220833 C6.73304052,25.0146828 6.67524977,25.1047568 6.61829657,25.1990398 C6.39550907,25.5786975 6.30254135,25.9583551 6.25982645,26.3237019 C6.18444722,27.0552374 6.30756663,27.7783547 6.61997167,28.4981048 C6.9357269,29.2102786 7.4684068,29.9275032 8.25318836,30.4612127 L8.55721793,30.6472533 C8.65772358,30.7053384 8.7490162,30.7440618 8.84784675,30.7920452 C9.04215766,30.8846446 9.23981876,30.9755604 9.44418023,31.0622671 C9.66529264,31.1296122 9.89310543,31.1935899 10.125106,31.2525169 L10.2993157,31.2962911 L10.4860887,31.3173365 L10.8663351,31.3535344 C11.8898175,31.4309812 13.0389321,31.1043578 13.9016055,30.4696308 C14.7793548,29.8492146 15.6244397,28.7742195 16.0599642,27.430686 C16.29699,26.7622865 16.4293224,26.0231747 16.4603116,25.2428141 C16.5013514,24.4632953 16.394983,23.6282168 16.1663326,22.8394381 C15.9343321,22.0009923 15.559111,21.2113718 15.0909223,20.4823618 C22.0375373,21.2694569 29.9490064,16.241308 30.8602576,15.6436208 L30.8778461,15.6436208 C30.876171,15.6419372 30.8711457,15.6394118 30.8694706,15.6377281 C30.8711457,15.6360445 30.876171,15.6335191 30.8786836,15.6318354 L30.8602576,15.6318354 C29.9900462,15.0206792 22.5903183,9.9815868 15.7592848,10.2635941 C16.0097113,9.78376076 16.2207732,9.28456567 16.3732068,8.76264163 C16.6119077,7.97807194 16.7300018,7.14551892 16.6998501,6.3651583 C16.6789114,5.58479768 16.5566295,4.84484408 16.3279792,4.17307733 C15.9108808,2.82449296 15.0800341,1.73771242 14.2098228,1.1071945 C13.3555248,0.460682146 12.2097605,0.119747895 11.186278,0.184567493 L11.186278,0.184567493 Z" id="path-29"></path>
        <linearGradient x1="-1.68432179e-05%" y1="49.9996762%" x2="99.9983615%" y2="49.9996762%" id="linearGradient-31">
            <stop stop-color="#FDF175" offset="0%"></stop>
            <stop stop-color="#BCA22B" offset="100%"></stop>
        </linearGradient>
        <path d="M8.30211732,0.168274905 C12.4031933,1.97348143 18.1561958,2.45581395 18.9150989,2.513294 C18.9634155,2.51662617 18.9992364,2.54494967 18.9992364,2.57743839 L20.99521,4.34015967 C21.259285,4.57341201 21.260118,4.98576883 20.996043,5.21902117 L19.0009025,6.98257549 C19.0009025,7.01589726 18.9650816,7.04422076 18.916765,7.04838598 C18.1578619,7.10586602 12.8472058,7.51655675 8.30628254,9.40173551 C8.27046165,9.4167303 1.75105866,5.77216244 0.388198542,4.95161402 C0.250746269,4.86914266 0.250746269,4.70753211 0.388198542,4.6242277 C1.75022562,3.80284623 8.26712947,0.152447067 8.30211732,0.168274905" id="path-32"></path>
        <linearGradient x1="-0.000996055596%" y1="50.000028%" x2="99.9990016%" y2="50.000028%" id="linearGradient-34">
            <stop stop-color="#FDF175" offset="0%"></stop>
            <stop stop-color="#BCA22B" offset="100%"></stop>
        </linearGradient>
        <path d="M0.230070115,2.96834432 L3.03154738,5.78836515 C3.74444984,5.2799167 7.85192364,2.96509545 7.85192364,2.96509545 C7.85192364,2.96509545 3.74275043,0.76317251 3.02899826,0.254724054 L0.230070115,2.96834432" id="path-35"></path>
        <linearGradient x1="0%" y1="50.0058711%" x2="100.005574%" y2="50.0058711%" id="linearGradient-37">
            <stop stop-color="#FDF175" offset="0%"></stop>
            <stop stop-color="#BCA22B" offset="100%"></stop>
        </linearGradient>
        <path d="M6.5214856,12.5567283 C6.52743353,12.8858493 6.38978133,13.1962121 6.06859285,13.4699112 C5.74910378,13.7342312 5.23588199,13.9328975 4.5535689,13.9397186 C3.87550434,13.9465398 3.0291982,13.7069465 2.25426727,13.1569904 C1.47508782,12.6138555 0.81996529,11.7577998 0.45884068,10.7926055 C0.260859424,10.310861 0.12660604,9.65688221 0.0858202013,8.91508096 C0.047583478,8.17242706 0.136802499,7.34621394 0.372170774,6.53279049 C0.604140229,5.71766176 0.976311003,4.9153227 1.44874696,4.19739551 C1.92118292,3.47861568 2.49133495,2.84339506 3.08952725,2.31390244 C3.6970663,1.79293628 4.32754738,1.37599281 4.92404026,1.05369296 C5.22653523,0.898511546 5.51798403,0.761235682 5.79328844,0.645275946 C6.07454078,0.538695306 6.33285109,0.437230537 6.57671642,0.363050411 C6.82228115,0.293986157 7.04575356,0.236006289 7.2420354,0.190816097 C7.44001666,0.146478551 7.617605,0.128573004 7.76205484,0.113225392 C8.05350364,0.0867933928 8.22684346,0.105551585 8.25828254,0.17461584 C8.2854731,0.234300998 8.18860673,0.380103314 7.99827282,0.588148723 C7.78329747,0.814099679 7.5156404,1.09206199 7.21144603,1.40924597 C7.05170149,1.57892235 6.88855814,1.77247279 6.7109698,1.96517059 C6.54102881,2.16724748 6.36683929,2.38381934 6.19180007,2.60891766 C5.85021867,3.06764073 5.52308226,3.57581722 5.24777785,4.10616248 C4.98266991,4.64418155 4.7753419,5.20181146 4.64703645,5.74068318 C4.51788129,6.28040754 4.4685984,6.79881577 4.48049427,7.25327562 C4.49069073,7.70773547 4.56376536,8.09739429 4.65298438,8.39923066 C4.66827907,8.47767401 4.70056786,8.54418033 4.72011107,8.61153929 C4.74050399,8.67804561 4.7583478,8.74114135 4.78468865,8.79485799 C4.80763068,8.85027993 4.82632419,8.90399657 4.84161888,8.95430263 C4.86456092,8.99949282 4.88240472,9.04212508 4.89769941,9.08305204 C5.02005692,9.40620454 5.11692329,9.66711395 5.22228671,9.92376013 C5.32680042,10.1795537 5.44660882,10.4583686 5.62419715,10.7422994 C5.96322943,11.3186875 6.50789032,11.8908124 6.5214856,12.5567283" id="path-38"></path>
        <linearGradient x1="-0.000498799505%" y1="49.9971863%" x2="99.9967961%" y2="49.9971863%" id="linearGradient-40">
            <stop stop-color="#FDF175" offset="0%"></stop>
            <stop stop-color="#BCA22B" offset="100%"></stop>
        </linearGradient>
        <path d="M6.74511249,0.158345019 C6.91278155,0.12075807 7.08699378,0.157545297 7.26120602,0.291098924 C7.43051087,0.423852829 7.58754725,0.660570635 7.66361175,1.00285179 C7.73967625,1.34273377 7.70777823,1.79297744 7.50902906,2.24002221 C7.31436938,2.68786671 6.94549746,3.10692121 6.48992837,3.38922319 C6.26500647,3.53797154 5.94439052,3.67472405 5.56897542,3.77229018 C5.19274242,3.86825686 4.76007447,3.90984242 4.31759175,3.8770538 C3.87510902,3.84506491 3.42526522,3.74190073 3.00650153,3.5795571 C2.58773784,3.41641375 2.20169007,3.19649011 1.86635196,2.95097536 C1.53510334,2.69986255 1.25374649,2.42715724 1.0247351,2.1608497 C0.912683096,2.02489691 0.811263766,1.89294273 0.722930801,1.7665866 C0.637869427,1.63623186 0.558533338,1.51707324 0.494737307,1.40271295 C0.432577072,1.28595349 0.379413714,1.18039014 0.334429333,1.08602291 C0.291080748,0.991655675 0.262454325,0.90368622 0.239553185,0.833310656 C0.194568805,0.689360639 0.185571929,0.600591461 0.217469944,0.577399514 C0.24527847,0.557406456 0.330339844,0.590994793 0.457114007,0.664569247 C0.596156638,0.750139535 0.767097283,0.854903159 0.961756966,0.974861506 C1.06562999,1.03723985 1.18258938,1.09881847 1.30036667,1.16759459 C1.42223344,1.23237209 1.5514613,1.2971496 1.68559654,1.36192711 C1.95713862,1.48508435 2.25239973,1.59704547 2.55338613,1.68021659 C2.85682623,1.75698993 3.16517371,1.80337383 3.45470954,1.81137105 C3.74506327,1.820168 4.01578745,1.79057827 4.24725253,1.73699688 C4.47953551,1.68501493 4.67092361,1.60744186 4.81569152,1.53066852 C4.85413272,1.51547379 4.88521284,1.49228185 4.91711085,1.47468796 C4.94900887,1.45789379 4.98008898,1.44189934 5.00462592,1.42350573 C5.03079865,1.40591184 5.05533558,1.39071711 5.07987252,1.37792156 C5.10031996,1.36192711 5.11994951,1.34833183 5.13957906,1.33633599 C5.29252595,1.24116904 5.41521063,1.16519542 5.53544161,1.08522319 C5.65567259,1.0068504 5.78490044,0.917281499 5.91167461,0.798922596 C6.17094822,0.567802846 6.40568489,0.235118362 6.74511249,0.158345019" id="path-41"></path>
        <linearGradient x1="0.00200603905%" y1="49.995192%" x2="100.002435%" y2="49.995192%" id="linearGradient-43">
            <stop stop-color="#FDF175" offset="0%"></stop>
            <stop stop-color="#BCA22B" offset="100%"></stop>
        </linearGradient>
        <path d="M21.8905116,11.5996073 C21.8955349,11.5777419 21.8972093,11.5558764 21.9013953,11.534011 C21.9173023,11.571855 21.9332093,11.6122219 21.9491163,11.6525889 C21.9298605,11.6340874 21.9106047,11.6164268 21.8905116,11.5996073 Z M12.7498605,0.538225814 C8.73795349,1.45236872 4.77544186,4.84403233 2.56018605,8.62170477 C0.29972093,12.4767472 0.0184186047,17.2022016 0.385116279,21.4995984 C0.81544186,26.5479883 2.00176744,31.4214549 2.81218605,36.3798602 C3.57906977,41.0775624 4.03451163,46.0931542 2.35339535,50.7698319 C2.16418605,51.2946021 2.23116279,51.8799226 2.58446512,52.0346626 C2.79711628,52.3996469 3.384,52.4004879 3.84697674,52.1002588 C7.34148837,49.8371875 9.16576744,45.2984301 9.62874419,41.1204522 C10.1067907,36.8062359 7.56669767,33.2884256 5.27190698,30.1347588 C7.13134884,30.6813944 9.05860465,30.9025715 10.8996279,29.7823891 C11.7025116,29.2937809 13.5477209,27.4192413 10.5387907,28.0213815 C7.38837209,28.6521148 5.05004651,25.003953 3.70046512,22.1841543 C2.09134884,18.8219249 2.47311628,14.5093906 3.46772093,10.8612287 C3.49618605,10.7577885 3.50455814,10.661076 3.50455814,10.5685685 C3.65860465,10.2321773 3.82353488,9.89662716 4.0052093,9.56612287 C7.4787907,3.25626618 14.1354419,1.13111519 20.1106047,2.55573164 C24.7671628,3.66582238 30.5916279,6.90947389 31.3727442,12.6104626 C31.716,15.1207815 30.6653023,17.8531185 28.9306047,19.5258234 C28.3855814,20.0514345 27.8933023,20.2633609 27.4194419,20.490425 C26.1309767,21.1068617 24.115814,20.5736818 22.8047442,19.6124441 C24.2564651,18.1155035 24.8324651,15.4571726 24.7797209,13.3269758 C24.7093953,10.4869936 22.6984186,7.69662915 20.3132093,8.0969346 C20.1533023,8.08431993 18.9426977,8.62843259 18.668093,8.76551198 C14.5423256,10.8208618 15.536093,18.9135915 19.8351628,22.194246 C24.6348837,25.8567045 30.2048372,22.460836 32.4627907,16.8565597 C34.5976744,11.5600813 31.3978605,6.71857192 27.6856744,3.96352854 C23.5431628,0.88975455 17.8652093,-0.628210443 12.7498605,0.538225814 L12.7498605,0.538225814 Z" id="path-44"></path>
        <linearGradient x1="-0.000143237005%" y1="50.0003624%" x2="99.9992092%" y2="50.0003624%" id="linearGradient-46">
            <stop stop-color="#FDF175" offset="0%"></stop>
            <stop stop-color="#BCA22B" offset="100%"></stop>
        </linearGradient>
        <path d="M6.50279209,1.6535925 C6.50874002,1.33287053 6.37023811,1.02880944 6.04904964,0.763068379 C5.72956057,0.504824714 5.21633877,0.310725443 4.53317598,0.304894134 C3.85511142,0.299062825 3.00880528,0.533981257 2.23472405,1.07212773 C1.45639431,1.60277681 0.802121486,2.43998612 0.440996876,3.38382506 C0.243865325,3.85449497 0.10961194,4.49260673 0.069675807,5.21818813 C0.0322887886,5.94293648 0.122357515,6.75098924 0.358575495,7.54571329 C0.59054495,8.34210344 0.963565429,9.12433183 1.43685109,9.82575495 C1.90928705,10.5280111 2.48028879,11.1477959 3.07933079,11.6642832 C3.68686984,12.1732732 4.31735092,12.5806317 4.91469351,12.8946893 C5.21718848,13.0463034 5.50863728,13.1795904 5.78394169,13.2937175 C6.06604373,13.3970149 6.32435404,13.4953141 6.56736966,13.567789 C6.8137841,13.6352655 7.0364068,13.6919125 7.23353835,13.7360639 C7.43066991,13.7785491 7.60910795,13.7968761 7.75355779,13.8110378 C8.04500659,13.8360292 8.2174967,13.8177022 8.24893579,13.7510587 C8.27697605,13.6927456 8.17925998,13.549462 7.98977577,13.3470323 C7.77310101,13.1262756 7.50629365,12.8547032 7.20124957,12.5456439 C7.04150503,12.3798681 6.87921138,12.1907671 6.70077334,12.0024991 C6.53083235,11.8050677 6.35579313,11.5934745 6.1807539,11.3743839 C5.83917251,10.9262062 5.51118639,10.4297119 5.23588199,9.91155849 C4.96992433,9.38674072 4.76174662,8.84192989 4.63344117,8.31544603 C4.50428601,7.78812912 4.45415342,7.28163832 4.46604929,6.83845887 C4.47539604,6.39361333 4.54847067,6.01291218 4.63768969,5.71884762 C4.65213468,5.64137452 4.68442346,5.57639708 4.70396668,5.5105866 C4.7252093,5.44560916 4.7422034,5.38313086 4.76939396,5.33148212 C4.79233599,5.27733426 4.8101798,5.22485248 4.82547449,5.17570288 C4.84841652,5.13155154 4.86711003,5.0890663 4.88155502,5.04991322 C5.00391253,4.73335647 5.1007789,4.47927803 5.20614231,4.22769872 C5.30980632,3.97778549 5.42961472,3.70538008 5.60635335,3.4279764 C5.94538563,2.8648386 6.48919681,2.30503297 6.50279209,1.6535925" id="path-47"></path>
        <linearGradient x1="-0.00402764601%" y1="50.0008838%" x2="99.9971445%" y2="50.0008838%" id="linearGradient-49">
            <stop stop-color="#FDF175" offset="0%"></stop>
            <stop stop-color="#BCA22B" offset="100%"></stop>
        </linearGradient>
        <path d="M6.99627074,3.75709545 C7.17130996,3.7946824 7.35144741,3.75709545 7.53243457,3.62434155 C7.7083235,3.49158764 7.87061715,3.25407011 7.95048941,2.91178896 C8.02866227,2.57190698 7.99467407,2.12086359 7.78819577,1.67461854 C7.58596598,1.22677404 7.20274905,0.808519264 6.72861368,0.526217286 C6.49409511,0.377468934 6.16186047,0.24151614 5.77099618,0.143950017 C5.3801319,0.0479833391 4.93063797,0.00719750087 4.47094759,0.0407858383 C4.01210691,0.0719750087 3.54476918,0.17593891 3.10972024,0.339082263 C2.67467129,0.501425894 2.27361055,0.722149254 1.92608122,0.967664006 C1.58195071,1.21877681 1.2896522,1.49228185 1.05258452,1.7593891 C0.936174939,1.89454217 0.830811524,2.02729608 0.738193683,2.15285248 C0.650674072,2.28400694 0.56825269,2.40316557 0.501975703,2.51752586 C0.437398126,2.63428532 0.381317598,2.73984866 0.33543353,2.8342159 C0.291248872,2.92938285 0.260659493,3.01655259 0.237717459,3.08772787 C0.190983686,3.23167789 0.181636932,3.31964734 0.214775425,3.34283929 C0.243665394,3.36363207 0.33203471,3.32924401 0.46373898,3.25566956 C0.607339118,3.17089899 0.785777161,3.06533565 0.988006942,2.9453773 C1.09506977,2.88299896 1.21657758,2.82062062 1.33893509,2.7518445 C1.46554113,2.68706699 1.60064422,2.62228948 1.73914613,2.55751198 C2.02124818,2.43355502 2.32799167,2.32159389 2.6406831,2.23922249 C2.95592364,2.16164943 3.27626241,2.11526553 3.57705797,2.10646859 C3.87870323,2.09767164 4.15995557,2.12726137 4.39957237,2.18004304 C4.64088858,2.23282471 4.83971954,2.30959806 4.99011732,2.38557168 C5.03090316,2.40156612 5.06319195,2.42475807 5.09633044,2.44155224 C5.12946893,2.45914613 5.16090802,2.47434085 5.18724887,2.49353419 C5.21358973,2.51032836 5.23993058,2.52552308 5.26542173,2.53831864 C5.28666435,2.55431309 5.30790698,2.56790837 5.32745019,2.5799042 C5.48634502,2.67507116 5.61380076,2.75104478 5.73870739,2.83101701 C5.86361402,2.9093898 5.99871711,2.99895869 6.13042138,3.1173176 C6.39977785,3.34843735 6.64364318,3.68112183 6.99627074,3.75709545" id="path-50"></path>
        <linearGradient x1="0.00200624316%" y1="49.994254%" x2="100.003888%" y2="49.994254%" id="linearGradient-52">
            <stop stop-color="#FDF175" offset="0%"></stop>
            <stop stop-color="#BCA22B" offset="100%"></stop>
        </linearGradient>
        <path d="M21.9365581,40.7366807 C21.919814,40.7770477 21.903907,40.8165736 21.888,40.8552586 C21.8846512,40.8333932 21.8829767,40.8115277 21.8779535,40.7896623 C21.8972093,40.7720018 21.9164651,40.7543413 21.9365581,40.7366807 Z M27.6789767,48.4206952 C31.3894884,45.6622879 34.5842791,40.8182556 32.4460465,35.5226181 C30.1830698,29.9208648 24.6106047,26.5300421 19.8133953,30.1967055 C15.5168372,33.480724 14.5297674,41.5742946 18.6572093,43.6262806 C18.9326512,43.7633599 20.1424186,44.3057906 20.3023256,44.293176 C22.6883721,44.6909585 24.6976744,41.8997531 24.7654884,39.0597709 C24.8165581,36.9295741 24.2380465,34.2712431 22.7846512,32.7759845 C24.0957209,31.8139059 26.1100465,31.279044 27.3985116,31.8937988 C27.8732093,32.1200218 28.3654884,32.3319482 28.9113488,32.8575594 C30.6477209,34.5285823 31.7009302,37.2600783 31.3585116,39.7703972 C30.5832558,45.4722269 24.7613023,48.7209243 20.1055814,49.8343789 C14.1312558,51.2640413 7.47376744,49.1456181 3.99348837,42.8374433 C3.81181395,42.50778 3.64688372,42.1730709 3.49283721,41.8349978 C3.492,41.7433312 3.48362791,41.6466187 3.45516279,41.5431785 C2.4572093,37.8958576 2.07209302,33.5833233 3.67869767,30.2194119 C5.02660465,27.3987723 7.3615814,23.7480875 10.512,24.3771389 C13.5217674,24.9767561 11.6748837,23.1030575 10.872,22.6161313 C9.02930233,21.4976308 7.10288372,21.7196489 5.24427907,22.2679665 C7.53572093,19.1126176 10.0733023,15.5922844 9.59106977,11.2789091 C9.12474419,7.10093122 7.29711628,2.5638558 3.80009302,0.304148361 C3.33795349,0.0047602519 2.75023256,0.00560122973 2.5384186,0.37058561 C2.18511628,0.525325532 2.11897674,1.11064611 2.30818605,1.63541627 C3.99265116,6.31125304 3.54223256,11.3268448 2.77869767,16.025388 C1.97246512,20.9846343 0.790325581,25.8589418 0.364186047,30.9073318 C0.0016744186,35.2055695 0.286325581,39.930183 2.55013953,43.7827024 C4.76874419,47.5595339 8.73376744,50.9478336 12.7465116,51.8586126 C17.8626977,53.020003 23.5389767,51.4978331 27.6789767,48.4206952 L27.6789767,48.4206952 Z" id="path-53"></path>
        <linearGradient x1="-0.000592399297%" y1="49.9998701%" x2="99.9999636%" y2="49.9998701%" id="linearGradient-55">
            <stop stop-color="#FDF175" offset="0%"></stop>
            <stop stop-color="#BCA22B" offset="100%"></stop>
        </linearGradient>
    </defs>
    <g id="Page-1" stroke="none" stroke-width="1" fill="none" fill-rule="evenodd">
        <g id="Level" transform="translate(-1319.000000, -659.000000)">
            <g id="ornament" filter="url(#filter-1)">
                <g id="Group" transform="translate(1381.020479, 719.250260) rotate(-180.000000) translate(-1381.020479, -719.250260) translate(1322.790698, 660.770566)">
                    <g id="Group-2062" transform="translate(44.984380, 28.490108)">
                        <mask id="mask-3" fill="white">
                            <use xlink:href="#path-2"></use>
                        </mask>
                        <g id="Clip-2061"></g>
                        <path d="M15.6265741,23.7298657 C15.6265741,23.7298657 11.3703677,16.8488865 15.7730496,14.6483874 C15.7730496,14.6483874 19.4071561,16.8034286 15.6265741,23.7298657 Z M31.25399,11.4697017 L31.2228429,11.0883604 L31.2034812,10.8997943 L31.1622324,10.7238554 C31.1066728,10.4906732 31.0452204,10.2608583 30.9804008,10.036936 C30.8970613,9.83069183 30.808671,9.63118216 30.7194388,9.43503973 C30.6714555,9.33486399 30.6344157,9.24226456 30.5780142,9.1404052 L30.3953408,8.83230165 C29.8717331,8.0367884 29.161243,7.49213541 28.4541201,7.16635379 C27.7385791,6.84309761 27.0163035,6.70924935 26.2839263,6.77575257 C25.9177376,6.81447597 25.53808,6.90286633 25.1550551,7.1217377 C25.0590884,7.17813917 24.9690144,7.23538245 24.8747314,7.3161965 C24.7846574,7.38690879 24.6987925,7.47109008 24.6188202,7.57042401 C24.4614012,7.75478105 24.3443892,7.98964687 24.2888295,8.21020187 C24.1768684,8.66478087 24.2770442,9.00824056 24.3746945,9.25320813 C24.4858138,9.48891576 24.6137693,9.65391111 24.7349904,9.78270849 C25.2358691,10.2608583 25.6197358,10.2945308 25.8007256,10.153948 C25.9985517,10.0032635 25.9598283,9.61771315 25.956461,9.16818502 C25.9606701,9.09410548 25.9707718,9.02507682 25.9859245,8.96194085 C26.0103371,9.00150606 26.0355914,9.04696396 26.0591622,9.10252361 C26.0928347,9.19680666 26.0877838,9.16481777 26.0987274,9.18417947 C26.1012529,9.19007216 26.1256654,9.20185754 26.136609,9.20775023 C26.1685979,9.22374468 26.213214,9.23889731 26.2654064,9.25994264 C26.4750178,9.34075668 26.7772287,9.4914412 27.0297726,9.70862895 C27.2848419,9.92581669 27.4894024,10.1935132 27.603889,10.4729951 C27.6156744,10.5091931 27.6274598,10.545391 27.6417706,10.5799054 C27.6552396,10.6186288 27.6678668,10.6783975 27.6821776,10.7263808 C27.7082738,10.8265566 27.7411045,10.9258905 27.7739352,11.0243826 C27.7798279,11.1186657 27.7924551,11.2104233 27.8092914,11.3013391 L27.8227604,11.3695259 L27.8160259,11.4326619 C27.8135004,11.4739107 27.8118168,11.5151596 27.8126586,11.5564084 C27.7941387,11.8796646 27.7057484,12.1406266 27.4944533,12.436103 C27.2873673,12.7197939 26.86141,13.1491185 26.1214564,13.4378604 C25.7645277,13.5952794 25.3368867,13.6996642 24.8839913,13.7535403 C24.4294123,13.8166762 23.953788,13.7947891 23.4411239,13.6954552 C22.4191629,13.5136236 21.3155461,12.9512925 20.3331504,12.1448357 C20.3264159,12.138943 20.3205232,12.1338921 20.3137887,12.1279994 C20.2868507,12.0665471 20.2658054,12.0042529 20.2380255,11.9436424 C19.0190804,10.7213299 18.0964534,9.24647363 17.2706348,7.70174683 C17.0416617,7.0047257 16.9086553,6.3034955 16.9010789,5.635096 C16.8825591,5.06771406 16.9583222,4.52727014 17.1064813,4.03986043 C17.16625,3.78900016 17.2765275,3.56844517 17.3657597,3.34283929 C17.4802463,3.13406968 17.5821056,2.91940737 17.7125866,2.73673396 C18.2201999,1.99004585 18.8330397,1.49085076 19.2766751,1.17264546 C19.7270451,0.862016478 19.997267,0.686919381 19.9745381,0.630517912 C19.9593854,0.59011089 19.6428638,0.638936042 19.0948435,0.825818521 C18.5560832,1.02532819 17.7790899,1.40330222 17.0172491,2.16345933 C16.8236321,2.34865818 16.6552696,2.57594768 16.4717543,2.80660443 C16.3143353,3.05409744 16.1341873,3.30832496 16.0062318,3.59959225 C15.9035306,3.78815835 15.8260838,3.99019346 15.7520042,4.19896308 C15.6661393,3.9405265 15.5802744,3.68966623 15.4590533,3.45900948 C15.334465,3.16437494 15.1568425,2.90762199 15.0019489,2.65676172 C14.8209591,2.42189591 14.6542801,2.19208097 14.4631886,2.00351486 C13.7072405,1.23073056 12.931089,0.843496593 12.3923287,0.639777855 C11.8434666,0.447844498 11.5252613,0.399861159 11.5067414,0.446160873 C11.4856961,0.495827838 11.7567599,0.670924935 12.2054462,0.984079358 C12.647398,1.30565191 13.2577124,1.8115815 13.7594329,2.56837136 C13.8882303,2.75357022 13.9884061,2.96907433 14.101209,3.1812112 C14.1879157,3.4085007 14.2956678,3.63242295 14.3529111,3.88496684 C14.4960193,4.37658562 14.565048,4.92039679 14.5389518,5.49030417 C14.5103301,6.6284353 14.1273052,7.85748223 13.50268,8.9914043 C12.8763711,10.1253264 12.0008857,11.1691744 11.0058627,11.9655295 C10.009998,12.7585173 8.89543762,13.3056958 7.87010943,13.4715329 C7.35491989,13.5632905 6.87761194,13.5776013 6.42387475,13.5085727 C5.97182119,13.4479621 5.54502201,13.3368428 5.19061875,13.1735311 C4.45403241,12.8730039 4.03480955,12.4369448 3.83193263,12.1515702 C3.62400482,11.8527266 3.53898171,11.5909227 3.52467089,11.2676666 C3.52551271,11.2264177 3.52551271,11.1851689 3.52298727,11.1430782 L3.51793639,11.0807841 L3.53224721,11.0125972 C3.55076709,10.9216814 3.56339429,10.8299238 3.57181242,10.7356408 C3.60464312,10.6379905 3.63831564,10.5394983 3.66693728,10.4384808 C3.6812481,10.3913393 3.69471711,10.3315705 3.70902793,10.293689 C3.72333875,10.2591746 3.73596595,10.2238185 3.74859314,10.1867787 C3.86644696,9.90898043 4.07437476,9.64380935 4.33196953,9.42998886 C4.58703886,9.21701018 4.89177515,9.06969291 5.10307021,8.99224611 C5.15526261,8.97120079 5.1998787,8.95688997 5.23186759,8.94173734 C5.24365297,8.93500283 5.26806555,8.92405926 5.26974917,8.91816657 C5.28153455,8.89880487 5.27564186,8.93163558 5.3101562,8.83735253 C5.33541058,8.78179287 5.36150679,8.73633497 5.38591936,8.69761157 C5.40023018,8.76074755 5.41033194,8.82977621 5.41285738,8.90469756 C5.40359744,9.35338388 5.35982316,9.7380924 5.55512377,9.89214418 C5.73442993,10.0352524 6.11829664,10.0066307 6.62590986,9.53521548 C6.74881456,9.40810172 6.87929557,9.24479 6.99294032,9.00992419 C7.09395787,8.76579843 7.19918449,8.42402236 7.09311606,7.96860155 C7.04008184,7.74720474 6.92643709,7.51065529 6.77070169,7.32377281 C6.6932549,7.22443888 6.60823179,7.13857396 6.51899962,7.06701986 C6.42640019,6.98452219 6.3363262,6.92643709 6.24120134,6.86919381 C5.86154369,6.64442975 5.48272785,6.55098851 5.11653921,6.50721423 C4.38500375,6.43145107 3.66188641,6.55603939 2.94213632,6.86919381 C2.22996255,7.18571549 1.5127379,7.72110853 0.979028481,8.50988728 L0.792146002,8.81462358 C0.734060907,8.91648295 0.696179324,9.00824056 0.647354172,9.10673268 C0.555596558,9.3028751 0.463838945,9.50154296 0.377132209,9.70610351 C0.309787172,9.92918395 0.245809386,10.1581571 0.186882479,10.3913393 L0.143108204,10.5664364 L0.121221067,10.7541607 L0.0850231097,11.1355019 C0.0075763167,12.1641974 0.333357935,13.3200066 0.968084912,14.1870739 C1.58765926,15.0692939 2.66265441,15.919525 4.00618791,16.3572678 C4.67458741,16.5963426 5.41285738,16.7301909 6.193218,16.761338 C6.97357862,16.8025868 7.80865708,16.6956766 8.59743583,16.4667034 C9.43588155,16.2335213 10.2255021,15.8572309 10.9545121,15.3866574 C10.1648916,22.3678123 15.1896732,30.3221031 15.7865186,31.2379956 L15.7865186,31.2556737 C15.7882022,31.25399 15.7907276,31.249781 15.7924113,31.2472555 C15.7940949,31.249781 15.7974621,31.25399 15.798304,31.2565155 L15.798304,31.2379956 C16.410302,30.3633519 21.4519198,22.9284598 21.1732797,16.0626332 C21.6522713,16.3143353 22.1523082,16.5264722 22.6733905,16.6805239 C23.458802,16.9204406 24.291355,17.0399781 25.0717156,17.0096728 C25.8512344,16.9894693 26.5920298,16.8665646 27.2637966,16.6367497 C28.6123809,16.2183686 29.6991615,15.384132 30.3305212,14.5094883 C30.9770336,13.6508391 31.3179678,12.5000807 31.25399,11.4697017 L31.25399,11.4697017 Z" id="Fill-2060" fill="url(#linearGradient-4)" mask="url(#mask-3)"></path>
                    </g>
                    <g id="Group-2065" transform="translate(55.980562, 0.000000)">
                        <mask id="mask-6" fill="white">
                            <use xlink:href="#path-5"></use>
                        </mask>
                        <g id="Clip-2064"></g>
                        <path d="M9.29177369,8.31565108 C7.48490108,12.4781289 7.00006942,18.3204849 6.94258938,19.0902176 C6.93842416,19.1392775 6.9109337,19.1756495 6.87761194,19.1756495 L5.11489066,21.2023304 C4.88080528,21.4704681 4.4692815,21.4704681 4.23519611,21.2023304 L2.47247484,19.1756495 C2.43915307,19.1756495 2.41082957,19.1392775 2.4074974,19.0902176 C2.35001736,18.3204849 1.94099271,12.9272806 0.0583130857,8.31565108 C0.0433182923,8.28012496 3.69038528,1.66126932 4.5109337,0.278287988 C4.59423811,0.138721064 4.75584866,0.138721064 4.83832003,0.278287988 C5.65970149,1.66126932 9.30760153,8.28012496 9.29177369,8.31565108" id="Fill-2063" fill="url(#linearGradient-7)" mask="url(#mask-6)"></path>
                    </g>
                    <g id="Group-2068" transform="translate(57.480042, 21.992364)">
                        <mask id="mask-9" fill="white">
                            <use xlink:href="#path-8"></use>
                        </mask>
                        <g id="Clip-2067"></g>
                        <path d="M2.98896217,0.102814301 L0.166504686,2.90344186 C0.674953141,3.61634432 2.98896217,7.72551753 2.98896217,7.72551753 C2.98896217,7.72551753 5.19250955,3.61634432 5.70014578,2.90344186 L2.98896217,0.102814301" id="Fill-2066" fill="url(#linearGradient-10)" mask="url(#mask-9)"></path>
                    </g>
                    <g id="Group-2071" transform="translate(36.487331, 5.997917)">
                        <mask id="mask-12" fill="white">
                            <use xlink:href="#path-11"></use>
                        </mask>
                        <g id="Clip-2070"></g>
                        <path d="M1.398338,6.73476154 C1.06921698,6.74155918 0.758854156,6.60305727 0.486007718,6.2818688 C0.221687731,5.96237973 0.0230214182,5.44915793 0.0162002573,4.76599514 C0.0102317414,4.08878028 0.24982502,3.24162444 0.800633767,2.46754321 C1.34376871,1.68836376 2.19982441,1.03409094 3.16587133,0.672966331 C3.64761582,0.47583478 4.30074198,0.34073169 5.04339588,0.300795557 C5.78604978,0.262558834 6.6122629,0.35262756 7.42568634,0.587995835 C8.24081508,0.81996529 9.04230149,1.19298577 9.76022868,1.66627143 C10.4790085,2.13870739 11.1142291,2.70885942 11.6428691,3.30705172 C12.1638353,3.91459077 12.5807787,4.54507185 12.9022259,5.14241444 C13.0574074,5.44490941 13.1938306,5.7355085 13.310643,6.01166262 C13.4172236,6.29291496 13.5186884,6.55122527 13.5920158,6.79509059 C13.6619327,7.04150503 13.7199126,7.26412773 13.7651028,7.46040958 C13.8085877,7.65839084 13.8273459,7.83597917 13.8418409,7.98127872 C13.8682729,8.27187782 13.8495147,8.44436793 13.7804504,8.47665672 C13.7207653,8.50384728 13.5749629,8.40698091 13.3669175,8.216647 C13.1409666,8.00082194 12.8630043,7.73401458 12.5458203,7.4289705 C12.3769965,7.27007567 12.1834461,7.10693232 11.9907483,6.92849427 C11.7878188,6.75940299 11.5720996,6.58436376 11.3470012,6.40932454 C10.8882782,6.06774314 10.3801017,5.73975703 9.84975642,5.46530233 C9.31258999,5.19934467 8.75410744,4.99116696 8.21523572,4.86371121 C7.67636401,4.73370635 7.15710313,4.68442346 6.70349593,4.69631933 C6.24818343,4.70566609 5.85937726,4.77874072 5.55754089,4.86795974 C5.47909754,4.88325443 5.41259122,4.91554321 5.34523225,4.93508643 C5.27872593,4.95632905 5.21477755,4.97332315 5.16106091,4.99966401 C5.10563897,5.02260604 5.05277498,5.04129955 5.00246891,5.05659424 C4.95642608,5.07953627 4.91379382,5.09822978 4.87286686,5.11267477 C4.54971436,5.23503228 4.28965759,5.33189865 4.03215877,5.43726206 C3.77721788,5.54092607 3.49755028,5.66073447 3.21361945,5.8383228 C2.63723135,6.17735509 2.06510648,6.72116626 1.398338,6.73476154" id="Fill-2069" fill="url(#linearGradient-13)" mask="url(#mask-12)"></path>
                    </g>
                    <g id="Group-2074" transform="translate(20.492884, 8.996876)">
                        <mask id="mask-15" fill="white">
                            <use xlink:href="#path-14"></use>
                        </mask>
                        <g id="Clip-2073"></g>
                        <path d="M3.8018799,6.88515932 C3.83946685,7.05934884 3.80267963,7.23948629 3.669126,7.42047345 C3.53637209,7.59636237 3.29885456,7.75950573 2.95657341,7.83937799 C2.61669143,7.91755085 2.16644776,7.88441236 1.72020271,7.67708435 C1.27155849,7.47485456 0.853303714,7.09248733 0.571001736,6.61835196 C0.422253384,6.38383339 0.28630059,6.05159875 0.188734467,5.66073447 C0.0919680666,5.26987018 0.0511822284,4.82037626 0.0847705658,4.36153558 C0.115959736,3.90184519 0.219923638,3.43450746 0.382267268,2.99945852 C0.545410621,2.56440958 0.765334259,2.16334884 1.01084901,1.81581951 C1.26196182,1.47083929 1.53546685,1.17854078 1.80177438,0.940623395 C1.93772718,0.82506352 2.06968136,0.719700104 2.19523776,0.627082263 C2.32639222,0.539562652 2.44555085,0.456291565 2.56071086,0.390014578 C2.6766706,0.326286706 2.78223395,0.270206178 2.87660118,0.22432211 C2.97176814,0.179287747 3.05893787,0.149548074 3.13011316,0.125756335 C3.27326345,0.0790225616 3.36203263,0.070525512 3.38522457,0.102814301 C3.40521763,0.131704269 3.3716293,0.220073586 3.29805484,0.35262756 C3.21328428,0.496227699 3.10772093,0.673816036 2.98776258,0.876045817 C2.92538424,0.983958348 2.86380562,1.10546616 2.7950295,1.22782367 C2.730252,1.35442971 2.66467477,1.4886831 2.60069698,1.62803471 C2.47674002,1.91013676 2.3647789,2.21688025 2.2824075,2.52957168 C2.20483443,2.84481222 2.15845054,3.16515099 2.15045331,3.46594655 C2.14165637,3.76759181 2.17044637,4.04884415 2.22402777,4.28846095 C2.27680944,4.52977716 2.35358278,4.72860812 2.43035613,4.8790059 C2.44555085,4.91979174 2.4687428,4.95123082 2.48553697,4.98521902 C2.50313086,5.01835751 2.51832558,5.0497966 2.53751892,5.07613745 C2.55511281,5.10247831 2.56950781,5.12881916 2.58230337,5.1534606 C2.59829781,5.17555293 2.61269281,5.19594585 2.62388893,5.21633877 C2.71905588,5.3752336 2.7950295,5.50268934 2.87500174,5.62759597 C2.95417425,5.7525026 3.04294342,5.88760569 3.16130233,6.01846026 C3.39242208,6.28781673 3.72510656,6.53168205 3.8018799,6.88515932" id="Fill-2072" fill="url(#linearGradient-16)" mask="url(#mask-15)"></path>
                    </g>
                    <g id="Group-2077" transform="translate(3.998612, 0.000000)">
                        <mask id="mask-18" fill="white">
                            <use xlink:href="#path-17"></use>
                        </mask>
                        <g id="Clip-2076"></g>
                        <path d="M40.83928,22.104 C40.8611454,22.108186 40.8830109,22.1106977 40.9048763,22.1140465 C40.8670323,22.1307907 40.8266653,22.1466977 40.7862984,22.1617674 C40.8039589,22.1425116 40.8216195,22.1232558 40.83928,22.104 Z M51.9048664,12.9683721 C50.9915644,8.9547907 47.6024238,4.99144186 43.8247513,2.77451163 C39.9705499,0.513209302 35.2459364,0.229395349 30.9476987,0.594418605 C25.8993088,1.02306977 21.0258422,2.20688372 16.0674369,3.01562791 C11.3697347,3.78083721 6.35330193,4.23293023 1.67662419,2.55013953 C1.15185402,2.36093023 0.566533446,2.42790698 0.412634502,2.7812093 C0.0468091437,2.99302326 0.0468091437,3.58074419 0.346197253,4.04288372 C2.60758665,7.53823256 7.14550305,9.36502326 11.3234809,9.82967442 C15.6368563,10.3093953 19.1563485,7.77097674 22.3108563,5.47702326 C21.7633798,7.33646512 21.5413616,9.26288372 22.6607031,11.1055814 C23.1484703,11.9084651 25.0230099,13.7545116 24.4217107,10.7447442 C23.7926593,7.59432558 27.4416621,5.25767442 30.2614608,3.90893023 C33.6253721,2.30148837 37.9370655,2.68493023 41.5852274,3.6812093 C41.6886676,3.70967442 41.7853801,3.71804651 41.8778876,3.71804651 C42.2142788,3.87293023 42.5498289,4.03702326 42.8794922,4.21953488 C49.188508,7.69562791 51.310295,14.3531163 49.8839966,20.3274419 C48.771383,24.984 45.5260495,30.8067907 39.8242198,31.5853953 C37.3139009,31.927814 34.5824049,30.8762791 32.9097,29.1407442 C32.3840889,28.5948837 32.1721624,28.1026047 31.9459394,27.6287442 C31.3303436,26.3402791 31.8643646,24.3251163 32.8264432,23.0140465 C34.3225428,24.4666047 36.9808737,25.0442791 39.1110706,24.9923721 C41.9510527,24.9228837 44.7414172,22.9135814 44.3427937,20.5275349 C44.3545674,20.3676279 43.8121367,19.1570233 43.6750573,18.8824186 C41.6205484,14.755814 33.5278187,15.7462326 30.2454822,20.0436279 C26.5813418,24.8425116 29.9746874,30.4141395 35.5772817,32.6737674 C40.8737601,34.8111628 45.7161105,31.6130233 48.4728358,27.9016744 C51.5482918,23.7608372 53.0687797,18.0837209 51.9048664,12.9683721 L51.9048664,12.9683721 Z" id="Fill-2075" fill="url(#linearGradient-19)" mask="url(#mask-18)"></path>
                    </g>
                    <g id="Group-2080" transform="translate(70.475529, 5.997917)">
                        <mask id="mask-21" fill="white">
                            <use xlink:href="#path-20"></use>
                        </mask>
                        <g id="Clip-2079"></g>
                        <path d="M12.6036237,6.73476154 C12.9327448,6.74155918 13.2431076,6.60305727 13.515954,6.2818688 C13.780274,5.96237973 13.9789403,5.44915793 13.9857615,4.76599514 C13.99173,4.08878028 13.7521367,3.24162444 13.201328,2.46754321 C12.658193,1.68836376 11.8021373,1.03409094 10.8360904,0.672966331 C10.3543459,0.47583478 9.70121976,0.34073169 8.95856586,0.300795557 C8.2167646,0.262558834 7.38969884,0.35262756 6.57627539,0.587995835 C5.76114666,0.81996529 4.95966025,1.19298577 4.24173306,1.66627143 C3.52295322,2.13870739 2.88858525,2.70885942 2.35909264,3.30705172 C1.83897911,3.91459077 1.421183,4.54507185 1.09973579,5.14241444 C0.944554383,5.44490941 0.808131164,5.7355085 0.691318782,6.01166262 C0.584738142,6.29291496 0.483273373,6.55122527 0.409945893,6.79509059 C0.340028993,7.04150503 0.282049125,7.26412773 0.236858934,7.46040958 C0.193374033,7.65839084 0.17461584,7.83597917 0.160120873,7.98127872 C0.133688874,8.27187782 0.152447067,8.44436793 0.221511322,8.47665672 C0.28119648,8.50384728 0.426998795,8.40698091 0.635044204,8.216647 C0.860995161,8.00082194 1.13895747,7.73401458 1.45614145,7.4289705 C1.62496519,7.27007567 1.81851563,7.10693232 2.01121343,6.92849427 C2.21414297,6.75940299 2.42986218,6.58436376 2.65496049,6.40932454 C3.11368357,6.06774314 3.62186006,5.73975703 4.15220532,5.46530233 C4.68937175,5.19934467 5.2478543,4.99116696 5.78672601,4.86371121 C6.32559773,4.73370635 6.84485861,4.68442346 7.29846581,4.69631933 C7.7537783,4.70566609 8.14258448,4.77874072 8.44442085,4.86795974 C8.5228642,4.88325443 8.59022317,4.91554321 8.65672949,4.93508643 C8.7232358,4.95632905 8.78718419,4.97332315 8.84090083,4.99966401 C8.89632276,5.02260604 8.94918676,5.04129955 8.99949282,5.05659424 C9.04553566,5.07953627 9.08816792,5.09822978 9.12909488,5.11267477 C9.45224738,5.23503228 9.71230414,5.33189865 9.96980297,5.43726206 C10.2255965,5.54092607 10.5044115,5.66073447 10.7883423,5.8383228 C11.3647304,6.17735509 11.9377079,6.72116626 12.6036237,6.73476154" id="Fill-2078" fill="url(#linearGradient-22)" mask="url(#mask-21)"></path>
                    </g>
                    <g id="Group-2083" transform="translate(95.966678, 8.996876)">
                        <mask id="mask-24" fill="white">
                            <use xlink:href="#path-23"></use>
                        </mask>
                        <g id="Clip-2082"></g>
                        <path d="M0.203129469,6.88515932 C0.16554252,7.05934884 0.202329747,7.23948629 0.335883374,7.42047345 C0.468637279,7.59636237 0.706154807,7.75950573 1.04843596,7.83937799 C1.38831795,7.91755085 1.83856161,7.88441236 2.28480666,7.67708435 C2.73345089,7.47485456 3.15170566,7.09248733 3.43400764,6.61835196 C3.58275599,6.38383339 3.71870878,6.05159875 3.8162749,5.66073447 C3.91304131,5.26987018 3.95382714,4.82037626 3.92023881,4.36153558 C3.88904964,3.90184519 3.78508573,3.43450746 3.6227421,2.99945852 C3.46039847,2.56440958 3.23967511,2.16334884 2.99416036,1.81581951 C2.74304755,1.47083929 2.46954252,1.17854078 2.20323499,0.940623395 C2.06808192,0.82506352 1.93532801,0.719700104 1.80977161,0.627082263 C1.67861715,0.539562652 1.55945852,0.456291565 1.44509823,0.390014578 C1.32833877,0.326286706 1.22277543,0.270206178 1.12840819,0.22432211 C1.03324124,0.179287747 0.946071503,0.149548074 0.874896217,0.125756335 C0.731745922,0.0790225616 0.642976744,0.070525512 0.619784797,0.102814301 C0.599791739,0.131704269 0.633380076,0.220073586 0.70695453,0.35262756 C0.791725095,0.496227699 0.897288442,0.673816036 1.01724679,0.876045817 C1.07962513,0.983958348 1.14120375,1.10546616 1.21077959,1.22782367 C1.27475738,1.35442971 1.34033461,1.4886831 1.40431239,1.62803471 C1.52826935,1.91013676 1.64023048,2.21688025 1.72260187,2.52957168 C1.80017494,2.84481222 1.84655883,3.16515099 1.85455606,3.46594655 C1.863353,3.76759181 1.834563,4.04884415 1.7809816,4.28846095 C1.72819993,4.52977716 1.65142659,4.72860812 1.57465325,4.8790059 C1.55945852,4.91979174 1.53626657,4.95123082 1.51947241,4.98521902 C1.50187851,5.01835751 1.48668379,5.0497966 1.46749045,5.07613745 C1.44989656,5.10247831 1.43550156,5.12881916 1.422706,5.1534606 C1.40671156,5.17555293 1.39231656,5.19594585 1.38112044,5.21633877 C1.28595349,5.3752336 1.20997987,5.50268934 1.13000764,5.62759597 C1.05083513,5.7525026 0.962065949,5.88760569 0.843707046,6.01846026 C0.612587296,6.28781673 0.279902812,6.53168205 0.203129469,6.88515932" id="Fill-2081" fill="url(#linearGradient-25)" mask="url(#mask-24)"></path>
                    </g>
                    <g id="Group-2086" transform="translate(63.977785, 0.000000)">
                        <mask id="mask-27" fill="white">
                            <use xlink:href="#path-26"></use>
                        </mask>
                        <g id="Clip-2085"></g>
                        <path d="M11.7022066,22.1617674 C11.6618396,22.1466977 11.6214727,22.1307907 11.5836287,22.1140465 C11.6054941,22.1106977 11.6282005,22.108186 11.649225,22.104 C11.6668855,22.1232558 11.684546,22.1425116 11.7022066,22.1617674 Z M4.01566916,27.9016744 C6.77239451,31.6130233 11.6147449,34.8111628 16.9112233,32.6737674 C22.5138176,30.4141395 25.9080042,24.8425116 22.2430228,20.0436279 C18.9606863,15.7462326 10.8679566,14.755814 8.81344771,18.8824186 C8.67636832,19.1570233 8.13393762,20.3676279 8.14571131,20.5275349 C7.74708782,22.9135814 10.5374523,24.9228837 13.3774344,24.9923721 C15.5076313,25.0442791 18.1659622,24.4666047 19.6620618,23.0140465 C20.6241404,24.3251163 21.1581614,26.3402791 20.5425656,27.6287442 C20.3163425,28.1026047 20.1044161,28.5948837 19.578805,29.1407442 C17.9061001,30.8762791 15.1746041,31.927814 12.6642852,31.5853953 C6.9624555,30.8067907 3.71712203,24.984 2.60534933,20.3274419 C1.17820995,14.3531163 3.29999702,7.69562791 9.60901274,4.21953488 C9.93867605,4.03702326 10.2742262,3.87293023 10.6114583,3.71804651 C10.7031249,3.71804651 10.7998374,3.70967442 10.9032776,3.6812093 C14.5514395,2.68493023 18.8639738,2.30148837 22.2270442,3.90893023 C25.0468429,5.25767442 28.6958457,7.59432558 28.0667943,10.7447442 C27.4654951,13.7545116 29.3400347,11.9084651 29.8278019,11.1055814 C30.9471434,9.26288372 30.7251252,7.33646512 30.1776486,5.47702326 C33.3321565,7.77097674 36.8516487,10.3093953 41.165024,9.82967442 C45.3430019,9.36502326 49.8809183,7.53823256 52.1431487,4.04288372 C52.4416958,3.58074419 52.4416958,2.99302326 52.0758705,2.7812093 C51.9219715,2.42790698 51.336651,2.36093023 50.8118808,2.55013953 C46.1352031,4.23293023 41.1187703,3.78083721 36.4210681,3.01562791 C31.4626628,2.20688372 26.5891962,1.02306977 21.5408063,0.594418605 C17.2425686,0.229395349 12.5179551,0.513209302 8.66375366,2.77451163 C4.88608122,4.99144186 1.49694055,8.9547907 0.583638618,12.9683721 C-0.579433728,18.0837209 0.94021322,23.7608372 4.01566916,27.9016744 L4.01566916,27.9016744 Z" id="Fill-2084" fill="url(#linearGradient-28)" mask="url(#mask-27)"></path>
                    </g>
                    <g id="Group-2089" transform="translate(28.989934, 44.984380)">
                        <mask id="mask-30" fill="white">
                            <use xlink:href="#path-29"></use>
                        </mask>
                        <g id="Clip-2088"></g>
                        <path d="M23.3901757,15.8069325 C23.3901757,15.8069325 16.5449039,20.0656643 14.3547184,15.6638243 C14.3547184,15.6638243 16.4980013,12.0297178 23.3901757,15.8069325 Z M11.186278,0.184567493 L10.8060317,0.215714573 L10.6184212,0.235918084 L10.4433738,0.276325106 C10.2113733,0.332726575 9.98272297,0.394178922 9.75993546,0.458156707 C9.55557398,0.542338004 9.35623779,0.631570178 9.16025179,0.720802353 C9.06142124,0.767943879 8.97012862,0.80498365 8.86794788,0.862226931 L8.56224322,1.04405853 C7.77076128,1.56850801 7.22886835,2.27899815 6.9055752,2.98696286 C6.58395715,3.70250388 6.45162472,4.42393759 6.51779093,5.15631488 C6.5563181,5.52250352 6.64342299,5.90216116 6.86202276,6.28518606 C6.91813841,6.38115274 6.97509161,6.47206854 7.05549612,6.56550978 C7.12668762,6.65558377 7.20960477,6.74144869 7.30843532,6.82057911 C7.49185812,6.97883995 7.72553374,7.09585195 7.94580861,7.15141161 C8.39724645,7.26337273 8.73896564,7.16235518 8.98269182,7.06386306 C9.21804253,6.95358556 9.38220175,6.82562999 9.5095089,6.70440892 C9.98523561,6.20268839 10.0187375,5.81966349 9.87886714,5.63867371 C9.72894622,5.44084766 9.34534968,5.48041287 8.89726202,5.48293831 C8.82439543,5.47957106 8.75487903,5.46862749 8.692063,5.45347485 C8.73226526,5.42906228 8.77665525,5.4046497 8.8327709,5.38023713 C8.92657617,5.34656461 8.89474938,5.35161548 8.91317542,5.34067192 C8.91903825,5.33898829 8.93076391,5.31457571 8.93662673,5.30279033 C8.95254013,5.27080144 8.96761597,5.22618535 8.9893922,5.17399295 C9.06895916,4.96438152 9.21971763,4.66132885 9.43496721,4.40962677 C9.6502168,4.15371563 9.9173943,3.94999689 10.1946224,3.83466852 C10.2314744,3.82372495 10.267489,3.81109775 10.3018284,3.79678693 C10.3403555,3.78331793 10.3998214,3.77153255 10.446724,3.75722172 C10.5472297,3.73028371 10.6460602,3.697453 10.7440532,3.66546411 C10.8370209,3.65788779 10.9283136,3.64694423 11.0196062,3.63010797 L11.0874475,3.61663896 L11.149426,3.62168984 C11.1913033,3.62505709 11.2323431,3.6258989 11.2725454,3.6258989 C11.595001,3.64441879 11.8546406,3.73196734 12.1486196,3.9441042 C12.4308729,4.15034838 12.8580219,4.57630574 13.1461381,5.31625934 C13.3027594,5.67318804 13.4066152,6.10082903 13.4602182,6.55288259 C13.5230342,7.00746159 13.501258,7.48392773 13.403265,7.99659183 C13.2231924,9.01855277 12.663711,10.1230114 11.8613409,11.1054071 C11.8563157,11.1112998 11.8504528,11.1180343 11.84459,11.1247688 C11.7842866,11.150865 11.7214706,11.1719103 11.6620047,11.1996902 C10.4458865,12.420319 8.97934163,13.342946 7.44244285,14.1696063 C6.74895391,14.3994213 6.05043969,14.5315859 5.3862649,14.540004 C4.82175821,14.5585239 4.28405302,14.4827607 3.7991133,14.3354435 C3.55036183,14.2748329 3.33008696,14.1653972 3.10562436,14.0761651 C2.89707515,13.9616785 2.68433821,13.860661 2.5025905,13.7293381 C1.75884875,13.2225667 1.26218336,12.6097269 0.945590589,12.1660915 C0.636535737,11.7165633 0.46148841,11.4454996 0.405372759,11.4682285 C0.365170502,11.4833811 0.414585776,11.7999028 0.601358762,12.3479231 C0.79901986,12.8866834 1.17591602,13.6636767 1.93222098,14.4255175 C2.11648133,14.6182926 2.34261902,14.787497 2.57294445,14.9701704 C2.81918328,15.1275895 3.07128493,15.3077374 3.36191375,15.435693 C3.54868674,15.5375524 3.75053557,15.615841 3.95740968,15.6890787 C3.70112029,15.7757855 3.45153128,15.8616504 3.2220434,15.9828714 C2.92890194,16.1074598 2.6734501,16.2850823 2.42386108,16.4408177 C2.19102301,16.6209657 1.96237267,16.7884865 1.77476214,16.979578 C1.00589397,17.735526 0.620622344,18.5116776 0.418773511,19.0512797 C0.226975243,19.5993 0.179235063,19.9175053 0.226137696,19.9360251 C0.275552971,19.9570705 0.448925204,19.6860067 0.761330244,19.2373204 C1.08043566,18.7953686 1.58380142,18.1842124 2.33591865,17.6824918 C2.52017899,17.5536944 2.73542858,17.4535187 2.94649043,17.3407158 C3.17262812,17.254009 3.39541563,17.146257 3.64584219,17.0890137 C4.13496965,16.9459055 4.67602503,16.8768768 5.24304436,16.9021312 C6.37540794,16.9307528 7.59906414,17.3129359 8.72640243,17.9367193 C9.85541582,18.5630282 10.8939741,19.4376719 11.6871312,20.4326948 C12.476938,21.4277177 13.0213436,22.5422781 13.1871779,23.5684481 C13.2784705,24.0827958 13.2927088,24.5601038 13.2240299,25.0146828 C13.1637266,25.4667363 13.0531704,25.8935355 12.8915238,26.247097 C12.593357,26.9836833 12.1595077,27.403748 11.8755792,27.6066249 C11.57825,27.8145527 11.3177729,27.898734 10.9953173,27.9138866 C10.9542775,27.912203 10.9140753,27.9130448 10.8721979,27.9155703 L10.8102194,27.9206211 L10.7423781,27.9063103 C10.651923,27.8886322 10.5606304,27.876005 10.4668251,27.8675869 C10.3696697,27.8339144 10.2708391,27.8002419 10.171171,27.7716202 C10.1242684,27.7573094 10.0648026,27.7446822 10.027113,27.7303714 C9.99277353,27.7160606 9.95675901,27.7025916 9.92074449,27.6908062 C9.64435397,27.5729524 9.37968911,27.3650246 9.16695217,27.106588 C8.95505277,26.8523605 8.80848204,26.5476242 8.73142771,26.3363291 C8.71048904,26.2841367 8.69541319,26.2403624 8.68117489,26.2083736 C8.67447452,26.1957464 8.66274886,26.1721756 8.65688603,26.1696502 C8.63845999,26.1578648 8.67028678,26.1637575 8.57731906,26.1292431 C8.52204096,26.1039887 8.47681342,26.0787344 8.43828626,26.05348 C8.50026474,26.040011 8.56978114,26.0299092 8.64348528,26.0273838 C9.09073539,26.0358019 9.47349438,26.0795762 9.62676548,25.8842756 C9.76831093,25.7049694 9.73983433,25.3211027 9.270808,24.8134895 C9.1443384,24.6905848 8.98185427,24.5609456 8.74817865,24.446459 C8.50529002,24.3454415 8.16524593,24.2410567 7.71213299,24.3471251 C7.49185812,24.4001593 7.25650741,24.5138041 7.07140951,24.6686976 C6.97174142,24.7478281 6.88714917,24.8320094 6.81512013,24.9220833 C6.73304052,25.0146828 6.67524977,25.1047568 6.61829657,25.1990398 C6.39550907,25.5786975 6.30254135,25.9583551 6.25982645,26.3237019 C6.18444722,27.0552374 6.30756663,27.7783547 6.61997167,28.4981048 C6.9357269,29.2102786 7.4684068,29.9275032 8.25318836,30.4612127 L8.55721793,30.6472533 C8.65772358,30.7053384 8.7490162,30.7440618 8.84784675,30.7920452 C9.04215766,30.8846446 9.23981876,30.9755604 9.44418023,31.0622671 C9.66529264,31.1296122 9.89310543,31.1935899 10.125106,31.2525169 L10.2993157,31.2962911 L10.4860887,31.3173365 L10.8663351,31.3535344 C11.8898175,31.4309812 13.0389321,31.1043578 13.9016055,30.4696308 C14.7793548,29.8492146 15.6244397,28.7742195 16.0599642,27.430686 C16.29699,26.7622865 16.4293224,26.0231747 16.4603116,25.2428141 C16.5013514,24.4632953 16.394983,23.6282168 16.1663326,22.8394381 C15.9343321,22.0009923 15.559111,21.2113718 15.0909223,20.4823618 C22.0375373,21.2694569 29.9490064,16.241308 30.8602576,15.6436208 L30.8778461,15.6436208 C30.876171,15.6419372 30.8711457,15.6394118 30.8694706,15.6377281 C30.8711457,15.6360445 30.876171,15.6335191 30.8786836,15.6318354 L30.8602576,15.6318354 C29.9900462,15.0206792 22.5903183,9.9815868 15.7592848,10.2635941 C16.0097113,9.78376076 16.2207732,9.28456567 16.3732068,8.76264163 C16.6119077,7.97807194 16.7300018,7.14551892 16.6998501,6.3651583 C16.6789114,5.58479768 16.5566295,4.84484408 16.3279792,4.17307733 C15.9108808,2.82449296 15.0800341,1.73771242 14.2098228,1.1071945 C13.3555248,0.460682146 12.2097605,0.119747895 11.186278,0.184567493 L11.186278,0.184567493 Z" id="Fill-2087" fill="url(#linearGradient-31)" mask="url(#mask-30)"></path>
                    </g>
                    <g id="Group-2092" transform="translate(0.000000, 55.980562)">
                        <mask id="mask-33" fill="white">
                            <use xlink:href="#path-32"></use>
                        </mask>
                        <g id="Clip-2091"></g>
                        <path d="M8.30211732,0.168274905 C12.4031933,1.97348143 18.1561958,2.45581395 18.9150989,2.513294 C18.9634155,2.51662617 18.9992364,2.54494967 18.9992364,2.57743839 L20.99521,4.34015967 C21.259285,4.57341201 21.260118,4.98576883 20.996043,5.21902117 L19.0009025,6.98257549 C19.0009025,7.01589726 18.9650816,7.04422076 18.916765,7.04838598 C18.1578619,7.10586602 12.8472058,7.51655675 8.30628254,9.40173551 C8.27046165,9.4167303 1.75105866,5.77216244 0.388198542,4.95161402 C0.250746269,4.86914266 0.250746269,4.70753211 0.388198542,4.6242277 C1.75022562,3.80284623 8.26712947,0.152447067 8.30211732,0.168274905" id="Fill-2090" fill="url(#linearGradient-34)" mask="url(#mask-33)"></path>
                    </g>
                    <g id="Group-2095" transform="translate(21.992364, 57.480042)">
                        <mask id="mask-36" fill="white">
                            <use xlink:href="#path-35"></use>
                        </mask>
                        <g id="Clip-2094"></g>
                        <path d="M0.230070115,2.96834432 L3.03154738,5.78836515 C3.74444984,5.2799167 7.85192364,2.96509545 7.85192364,2.96509545 C7.85192364,2.96509545 3.74275043,0.76317251 3.02899826,0.254724054 L0.230070115,2.96834432" id="Fill-2093" fill="url(#linearGradient-37)" mask="url(#mask-36)"></path>
                    </g>
                    <g id="Group-2098" transform="translate(5.997917, 70.975356)">
                        <mask id="mask-39" fill="white">
                            <use xlink:href="#path-38"></use>
                        </mask>
                        <g id="Clip-2097"></g>
                        <path d="M6.5214856,12.5567283 C6.52743353,12.8858493 6.38978133,13.1962121 6.06859285,13.4699112 C5.74910378,13.7342312 5.23588199,13.9328975 4.5535689,13.9397186 C3.87550434,13.9465398 3.0291982,13.7069465 2.25426727,13.1569904 C1.47508782,12.6138555 0.81996529,11.7577998 0.45884068,10.7926055 C0.260859424,10.310861 0.12660604,9.65688221 0.0858202013,8.91508096 C0.047583478,8.17242706 0.136802499,7.34621394 0.372170774,6.53279049 C0.604140229,5.71766176 0.976311003,4.9153227 1.44874696,4.19739551 C1.92118292,3.47861568 2.49133495,2.84339506 3.08952725,2.31390244 C3.6970663,1.79293628 4.32754738,1.37599281 4.92404026,1.05369296 C5.22653523,0.898511546 5.51798403,0.761235682 5.79328844,0.645275946 C6.07454078,0.538695306 6.33285109,0.437230537 6.57671642,0.363050411 C6.82228115,0.293986157 7.04575356,0.236006289 7.2420354,0.190816097 C7.44001666,0.146478551 7.617605,0.128573004 7.76205484,0.113225392 C8.05350364,0.0867933928 8.22684346,0.105551585 8.25828254,0.17461584 C8.2854731,0.234300998 8.18860673,0.380103314 7.99827282,0.588148723 C7.78329747,0.814099679 7.5156404,1.09206199 7.21144603,1.40924597 C7.05170149,1.57892235 6.88855814,1.77247279 6.7109698,1.96517059 C6.54102881,2.16724748 6.36683929,2.38381934 6.19180007,2.60891766 C5.85021867,3.06764073 5.52308226,3.57581722 5.24777785,4.10616248 C4.98266991,4.64418155 4.7753419,5.20181146 4.64703645,5.74068318 C4.51788129,6.28040754 4.4685984,6.79881577 4.48049427,7.25327562 C4.49069073,7.70773547 4.56376536,8.09739429 4.65298438,8.39923066 C4.66827907,8.47767401 4.70056786,8.54418033 4.72011107,8.61153929 C4.74050399,8.67804561 4.7583478,8.74114135 4.78468865,8.79485799 C4.80763068,8.85027993 4.82632419,8.90399657 4.84161888,8.95430263 C4.86456092,8.99949282 4.88240472,9.04212508 4.89769941,9.08305204 C5.02005692,9.40620454 5.11692329,9.66711395 5.22228671,9.92376013 C5.32680042,10.1795537 5.44660882,10.4583686 5.62419715,10.7422994 C5.96322943,11.3186875 6.50789032,11.8908124 6.5214856,12.5567283" id="Fill-2096" fill="url(#linearGradient-40)" mask="url(#mask-39)"></path>
                    </g>
                    <g id="Group-2101" transform="translate(9.496703, 96.466505)">
                        <mask id="mask-42" fill="white">
                            <use xlink:href="#path-41"></use>
                        </mask>
                        <g id="Clip-2100"></g>
                        <path d="M6.74511249,0.158345019 C6.91278155,0.12075807 7.08699378,0.157545297 7.26120602,0.291098924 C7.43051087,0.423852829 7.58754725,0.660570635 7.66361175,1.00285179 C7.73967625,1.34273377 7.70777823,1.79297744 7.50902906,2.24002221 C7.31436938,2.68786671 6.94549746,3.10692121 6.48992837,3.38922319 C6.26500647,3.53797154 5.94439052,3.67472405 5.56897542,3.77229018 C5.19274242,3.86825686 4.76007447,3.90984242 4.31759175,3.8770538 C3.87510902,3.84506491 3.42526522,3.74190073 3.00650153,3.5795571 C2.58773784,3.41641375 2.20169007,3.19649011 1.86635196,2.95097536 C1.53510334,2.69986255 1.25374649,2.42715724 1.0247351,2.1608497 C0.912683096,2.02489691 0.811263766,1.89294273 0.722930801,1.7665866 C0.637869427,1.63623186 0.558533338,1.51707324 0.494737307,1.40271295 C0.432577072,1.28595349 0.379413714,1.18039014 0.334429333,1.08602291 C0.291080748,0.991655675 0.262454325,0.90368622 0.239553185,0.833310656 C0.194568805,0.689360639 0.185571929,0.600591461 0.217469944,0.577399514 C0.24527847,0.557406456 0.330339844,0.590994793 0.457114007,0.664569247 C0.596156638,0.750139535 0.767097283,0.854903159 0.961756966,0.974861506 C1.06562999,1.03723985 1.18258938,1.09881847 1.30036667,1.16759459 C1.42223344,1.23237209 1.5514613,1.2971496 1.68559654,1.36192711 C1.95713862,1.48508435 2.25239973,1.59704547 2.55338613,1.68021659 C2.85682623,1.75698993 3.16517371,1.80337383 3.45470954,1.81137105 C3.74506327,1.820168 4.01578745,1.79057827 4.24725253,1.73699688 C4.47953551,1.68501493 4.67092361,1.60744186 4.81569152,1.53066852 C4.85413272,1.51547379 4.88521284,1.49228185 4.91711085,1.47468796 C4.94900887,1.45789379 4.98008898,1.44189934 5.00462592,1.42350573 C5.03079865,1.40591184 5.05533558,1.39071711 5.07987252,1.37792156 C5.10031996,1.36192711 5.11994951,1.34833183 5.13957906,1.33633599 C5.29252595,1.24116904 5.41521063,1.16519542 5.53544161,1.08522319 C5.65567259,1.0068504 5.78490044,0.917281499 5.91167461,0.798922596 C6.17094822,0.567802846 6.40568489,0.235118362 6.74511249,0.158345019" id="Fill-2099" fill="url(#linearGradient-43)" mask="url(#mask-42)"></path>
                    </g>
                    <g id="Group-2104" transform="translate(0.499826, 64.477612)">
                        <mask id="mask-45" fill="white">
                            <use xlink:href="#path-44"></use>
                        </mask>
                        <g id="Clip-2103"></g>
                        <path d="M21.8905116,11.5996073 C21.8955349,11.5777419 21.8972093,11.5558764 21.9013953,11.534011 C21.9173023,11.571855 21.9332093,11.6122219 21.9491163,11.6525889 C21.9298605,11.6340874 21.9106047,11.6164268 21.8905116,11.5996073 Z M12.7498605,0.538225814 C8.73795349,1.45236872 4.77544186,4.84403233 2.56018605,8.62170477 C0.29972093,12.4767472 0.0184186047,17.2022016 0.385116279,21.4995984 C0.81544186,26.5479883 2.00176744,31.4214549 2.81218605,36.3798602 C3.57906977,41.0775624 4.03451163,46.0931542 2.35339535,50.7698319 C2.16418605,51.2946021 2.23116279,51.8799226 2.58446512,52.0346626 C2.79711628,52.3996469 3.384,52.4004879 3.84697674,52.1002588 C7.34148837,49.8371875 9.16576744,45.2984301 9.62874419,41.1204522 C10.1067907,36.8062359 7.56669767,33.2884256 5.27190698,30.1347588 C7.13134884,30.6813944 9.05860465,30.9025715 10.8996279,29.7823891 C11.7025116,29.2937809 13.5477209,27.4192413 10.5387907,28.0213815 C7.38837209,28.6521148 5.05004651,25.003953 3.70046512,22.1841543 C2.09134884,18.8219249 2.47311628,14.5093906 3.46772093,10.8612287 C3.49618605,10.7577885 3.50455814,10.661076 3.50455814,10.5685685 C3.65860465,10.2321773 3.82353488,9.89662716 4.0052093,9.56612287 C7.4787907,3.25626618 14.1354419,1.13111519 20.1106047,2.55573164 C24.7671628,3.66582238 30.5916279,6.90947389 31.3727442,12.6104626 C31.716,15.1207815 30.6653023,17.8531185 28.9306047,19.5258234 C28.3855814,20.0514345 27.8933023,20.2633609 27.4194419,20.490425 C26.1309767,21.1068617 24.115814,20.5736818 22.8047442,19.6124441 C24.2564651,18.1155035 24.8324651,15.4571726 24.7797209,13.3269758 C24.7093953,10.4869936 22.6984186,7.69662915 20.3132093,8.0969346 C20.1533023,8.08431993 18.9426977,8.62843259 18.668093,8.76551198 C14.5423256,10.8208618 15.536093,18.9135915 19.8351628,22.194246 C24.6348837,25.8567045 30.2048372,22.460836 32.4627907,16.8565597 C34.5976744,11.5600813 31.3978605,6.71857192 27.6856744,3.96352854 C23.5431628,0.88975455 17.8652093,-0.628210443 12.7498605,0.538225814 L12.7498605,0.538225814 Z" id="Fill-2102" fill="url(#linearGradient-46)" mask="url(#mask-45)"></path>
                    </g>
                    <g id="Group-2107" transform="translate(5.997917, 36.487331)">
                        <mask id="mask-48" fill="white">
                            <use xlink:href="#path-47"></use>
                        </mask>
                        <g id="Clip-2106"></g>
                        <path d="M6.50279209,1.6535925 C6.50874002,1.33287053 6.37023811,1.02880944 6.04904964,0.763068379 C5.72956057,0.504824714 5.21633877,0.310725443 4.53317598,0.304894134 C3.85511142,0.299062825 3.00880528,0.533981257 2.23472405,1.07212773 C1.45639431,1.60277681 0.802121486,2.43998612 0.440996876,3.38382506 C0.243865325,3.85449497 0.10961194,4.49260673 0.069675807,5.21818813 C0.0322887886,5.94293648 0.122357515,6.75098924 0.358575495,7.54571329 C0.59054495,8.34210344 0.963565429,9.12433183 1.43685109,9.82575495 C1.90928705,10.5280111 2.48028879,11.1477959 3.07933079,11.6642832 C3.68686984,12.1732732 4.31735092,12.5806317 4.91469351,12.8946893 C5.21718848,13.0463034 5.50863728,13.1795904 5.78394169,13.2937175 C6.06604373,13.3970149 6.32435404,13.4953141 6.56736966,13.567789 C6.8137841,13.6352655 7.0364068,13.6919125 7.23353835,13.7360639 C7.43066991,13.7785491 7.60910795,13.7968761 7.75355779,13.8110378 C8.04500659,13.8360292 8.2174967,13.8177022 8.24893579,13.7510587 C8.27697605,13.6927456 8.17925998,13.549462 7.98977577,13.3470323 C7.77310101,13.1262756 7.50629365,12.8547032 7.20124957,12.5456439 C7.04150503,12.3798681 6.87921138,12.1907671 6.70077334,12.0024991 C6.53083235,11.8050677 6.35579313,11.5934745 6.1807539,11.3743839 C5.83917251,10.9262062 5.51118639,10.4297119 5.23588199,9.91155849 C4.96992433,9.38674072 4.76174662,8.84192989 4.63344117,8.31544603 C4.50428601,7.78812912 4.45415342,7.28163832 4.46604929,6.83845887 C4.47539604,6.39361333 4.54847067,6.01291218 4.63768969,5.71884762 C4.65213468,5.64137452 4.68442346,5.57639708 4.70396668,5.5105866 C4.7252093,5.44560916 4.7422034,5.38313086 4.76939396,5.33148212 C4.79233599,5.27733426 4.8101798,5.22485248 4.82547449,5.17570288 C4.84841652,5.13155154 4.86711003,5.0890663 4.88155502,5.04991322 C5.00391253,4.73335647 5.1007789,4.47927803 5.20614231,4.22769872 C5.30980632,3.97778549 5.42961472,3.70538008 5.60635335,3.4279764 C5.94538563,2.8648386 6.48919681,2.30503297 6.50279209,1.6535925" id="Fill-2105" fill="url(#linearGradient-49)" mask="url(#mask-48)"></path>
                    </g>
                    <g id="Group-2110" transform="translate(8.996876, 20.992711)">
                        <mask id="mask-51" fill="white">
                            <use xlink:href="#path-50"></use>
                        </mask>
                        <g id="Clip-2109"></g>
                        <path d="M6.99627074,3.75709545 C7.17130996,3.7946824 7.35144741,3.75709545 7.53243457,3.62434155 C7.7083235,3.49158764 7.87061715,3.25407011 7.95048941,2.91178896 C8.02866227,2.57190698 7.99467407,2.12086359 7.78819577,1.67461854 C7.58596598,1.22677404 7.20274905,0.808519264 6.72861368,0.526217286 C6.49409511,0.377468934 6.16186047,0.24151614 5.77099618,0.143950017 C5.3801319,0.0479833391 4.93063797,0.00719750087 4.47094759,0.0407858383 C4.01210691,0.0719750087 3.54476918,0.17593891 3.10972024,0.339082263 C2.67467129,0.501425894 2.27361055,0.722149254 1.92608122,0.967664006 C1.58195071,1.21877681 1.2896522,1.49228185 1.05258452,1.7593891 C0.936174939,1.89454217 0.830811524,2.02729608 0.738193683,2.15285248 C0.650674072,2.28400694 0.56825269,2.40316557 0.501975703,2.51752586 C0.437398126,2.63428532 0.381317598,2.73984866 0.33543353,2.8342159 C0.291248872,2.92938285 0.260659493,3.01655259 0.237717459,3.08772787 C0.190983686,3.23167789 0.181636932,3.31964734 0.214775425,3.34283929 C0.243665394,3.36363207 0.33203471,3.32924401 0.46373898,3.25566956 C0.607339118,3.17089899 0.785777161,3.06533565 0.988006942,2.9453773 C1.09506977,2.88299896 1.21657758,2.82062062 1.33893509,2.7518445 C1.46554113,2.68706699 1.60064422,2.62228948 1.73914613,2.55751198 C2.02124818,2.43355502 2.32799167,2.32159389 2.6406831,2.23922249 C2.95592364,2.16164943 3.27626241,2.11526553 3.57705797,2.10646859 C3.87870323,2.09767164 4.15995557,2.12726137 4.39957237,2.18004304 C4.64088858,2.23282471 4.83971954,2.30959806 4.99011732,2.38557168 C5.03090316,2.40156612 5.06319195,2.42475807 5.09633044,2.44155224 C5.12946893,2.45914613 5.16090802,2.47434085 5.18724887,2.49353419 C5.21358973,2.51032836 5.23993058,2.52552308 5.26542173,2.53831864 C5.28666435,2.55431309 5.30790698,2.56790837 5.32745019,2.5799042 C5.48634502,2.67507116 5.61380076,2.75104478 5.73870739,2.83101701 C5.86361402,2.9093898 5.99871711,2.99895869 6.13042138,3.1173176 C6.39977785,3.34843735 6.64364318,3.68112183 6.99627074,3.75709545" id="Fill-2108" fill="url(#linearGradient-52)" mask="url(#mask-51)"></path>
                    </g>
                    <g id="Group-2113" transform="translate(0.499826, 4.498438)">
                        <mask id="mask-54" fill="white">
                            <use xlink:href="#path-53"></use>
                        </mask>
                        <g id="Clip-2112"></g>
                        <path d="M21.9365581,40.7366807 C21.919814,40.7770477 21.903907,40.8165736 21.888,40.8552586 C21.8846512,40.8333932 21.8829767,40.8115277 21.8779535,40.7896623 C21.8972093,40.7720018 21.9164651,40.7543413 21.9365581,40.7366807 Z M27.6789767,48.4206952 C31.3894884,45.6622879 34.5842791,40.8182556 32.4460465,35.5226181 C30.1830698,29.9208648 24.6106047,26.5300421 19.8133953,30.1967055 C15.5168372,33.480724 14.5297674,41.5742946 18.6572093,43.6262806 C18.9326512,43.7633599 20.1424186,44.3057906 20.3023256,44.293176 C22.6883721,44.6909585 24.6976744,41.8997531 24.7654884,39.0597709 C24.8165581,36.9295741 24.2380465,34.2712431 22.7846512,32.7759845 C24.0957209,31.8139059 26.1100465,31.279044 27.3985116,31.8937988 C27.8732093,32.1200218 28.3654884,32.3319482 28.9113488,32.8575594 C30.6477209,34.5285823 31.7009302,37.2600783 31.3585116,39.7703972 C30.5832558,45.4722269 24.7613023,48.7209243 20.1055814,49.8343789 C14.1312558,51.2640413 7.47376744,49.1456181 3.99348837,42.8374433 C3.81181395,42.50778 3.64688372,42.1730709 3.49283721,41.8349978 C3.492,41.7433312 3.48362791,41.6466187 3.45516279,41.5431785 C2.4572093,37.8958576 2.07209302,33.5833233 3.67869767,30.2194119 C5.02660465,27.3987723 7.3615814,23.7480875 10.512,24.3771389 C13.5217674,24.9767561 11.6748837,23.1030575 10.872,22.6161313 C9.02930233,21.4976308 7.10288372,21.7196489 5.24427907,22.2679665 C7.53572093,19.1126176 10.0733023,15.5922844 9.59106977,11.2789091 C9.12474419,7.10093122 7.29711628,2.5638558 3.80009302,0.304148361 C3.33795349,0.0047602519 2.75023256,0.00560122973 2.5384186,0.37058561 C2.18511628,0.525325532 2.11897674,1.11064611 2.30818605,1.63541627 C3.99265116,6.31125304 3.54223256,11.3268448 2.77869767,16.025388 C1.97246512,20.9846343 0.790325581,25.8589418 0.364186047,30.9073318 C0.0016744186,35.2055695 0.286325581,39.930183 2.55013953,43.7827024 C4.76874419,47.5595339 8.73376744,50.9478336 12.7465116,51.8586126 C17.8626977,53.020003 23.5389767,51.4978331 27.6789767,48.4206952 L27.6789767,48.4206952 Z" id="Fill-2111" fill="url(#linearGradient-55)" mask="url(#mask-54)"></path>
                    </g>
                </g>
            </g>
        </g>
    </g>
</svg>