<?xml version="1.0" encoding="UTF-8"?>
<svg width="223px" height="36px" viewBox="0 0 223 36" version="1.1" xmlns="http://www.w3.org/2000/svg" xmlns:xlink="http://www.w3.org/1999/xlink">
    <!-- Generator: Sketch 54.1 (76490) - https://sketchapp.com -->
    <title>powered_by_carto_2</title>
    <desc>Created with Sketch.</desc>
    <defs>
        <path d="M2.22900391,18.5375977 L4.06591797,18.5375977 C4.31657026,18.5268554 4.5672188,18.4301767 4.81787109,18.2475586 C5.31559494,17.8823224 5.56445312,17.2646528 5.56445312,16.3945312 C5.56445312,15.4456333 5.30843355,14.7008491 4.79638672,14.1601562 C4.37743931,13.7197244 3.90836848,13.4995117 3.38916016,13.4995117 C2.86995183,13.4995117 2.57812532,13.5138345 2.51367188,13.5424805 C2.35253826,13.6105147 2.27197266,13.839679 2.27197266,14.2299805 C2.27197266,14.7993193 2.25764988,16.2351773 2.22900391,18.5375977 Z M5.18310547,18.902832 C5.13297501,18.9708662 4.97184381,19.0388994 4.69970703,19.1069336 C4.15543348,19.2394212 3.331874,19.3056641 2.22900391,19.3056641 L2.22900391,22.9902344 C2.25048839,23.2874364 2.41161959,23.5452463 2.71240234,23.7636719 C2.86279372,23.8710943 3.0113925,23.9498695 3.15820312,24 L0.0268554688,24 C0.173666099,23.9498695 0.322264873,23.8710943 0.47265625,23.7636719 C0.773439004,23.5452463 0.934570205,23.2874364 0.956054688,22.9902344 L0.956054688,14.0795898 C0.934570205,13.7859686 0.773439004,13.529949 0.47265625,13.3115234 C0.322264873,13.2005203 0.173666099,13.1199547 0.0268554688,13.0698242 L2.22900391,13.0698242 C2.99886453,12.9444981 3.7687136,12.9606112 4.53857422,13.1181641 C6.08187621,13.4332698 6.85351562,14.2997976 6.85351562,15.7177734 C6.87858085,15.9755872 6.8266608,16.3032207 6.69775391,16.7006836 C6.44710161,17.4920287 5.94222385,18.2260708 5.18310547,18.902832 Z M13.9111328,13.7680664 L13.9111328,23.3662109 C14.7382854,23.1907543 15.4150364,22.8129912 15.9414062,22.2329102 C16.6862016,21.4129191 17.0585938,20.2420323 17.0585938,18.7202148 C17.0585938,17.1948166 16.6862016,15.9863326 15.9414062,15.0947266 C15.4150364,14.4645151 14.7382854,14.0222994 13.9111328,13.7680664 Z M8.80859375,18.5 C8.80859375,19.9788485 9.17382447,21.1479449 9.90429688,22.0073242 C10.4235052,22.6160512 11.0948852,23.0403634 11.918457,23.2802734 L11.918457,13.746582 C11.0948852,13.9829113 10.4235052,14.4018525 9.90429688,15.003418 C9.17382447,15.8556358 8.80859375,17.0211515 8.80859375,18.5 Z M13.1484375,13.6015625 L13.1484375,23.4575195 C13.2845059,23.4539388 13.429524,23.4431967 13.5834961,23.425293 L13.5834961,13.6767578 C13.4366855,13.6445311 13.2916674,13.6194662 13.1484375,13.6015625 Z M12.605957,23.4306641 L12.605957,13.6069336 C12.4842116,13.6212566 12.3642584,13.6409504 12.2460938,13.6660156 L12.2460938,23.3662109 C12.3714199,23.3912762 12.4913731,23.4127603 12.605957,23.4306641 Z M13.1108398,13.0053711 C14.3784243,13.0053711 15.5546821,13.5227813 16.6396484,14.5576172 C17.8320372,15.6998755 18.4282227,17.0873942 18.4282227,18.7202148 C18.4282227,20.317228 17.8141337,21.6313425 16.5859375,22.6625977 C15.5224556,23.5542037 14.3641013,24 13.1108398,24 C11.750156,24 10.5327202,23.6114948 9.45849609,22.8344727 C8.10855445,21.8569287 7.43359375,20.4729907 7.43359375,18.6826172 C7.43359375,16.179675 8.38068714,14.4824263 10.2749023,13.5908203 C11.2202196,13.1432269 12.1655226,12.9480791 13.1108398,13.0053711 Z M27.784668,21.4433594 L31.0073242,14.0151367 C30.982259,13.7179347 30.8175471,13.4601248 30.5131836,13.2416992 C30.3592115,13.1306961 30.2088223,13.0501305 30.0620117,13 L33.2416992,13 C33.1235346,13.028646 33.0000006,13.0895178 32.8710938,13.1826172 C32.6096992,13.368816 32.4521487,13.626626 32.3984375,13.9560547 L27.8276367,24 L27.8276367,23.9033203 L27.784668,24 L25.0561523,18.1079102 L22.3276367,24 L22.284668,23.9033203 L22.284668,24 L17.7138672,13.9560547 C17.660156,13.626626 17.5026055,13.368816 17.2412109,13.1826172 C17.112304,13.0895178 16.9887701,13.028646 16.8706055,13 L20.0556641,13 C19.9052727,13.0501305 19.7548836,13.1306961 19.6044922,13.2416992 C19.2965479,13.4601248 19.131836,13.7179347 19.1103516,14.0151367 L22.3276367,21.4433594 L24.3955078,16.6791992 L25.0561523,15.0195312 L25.722168,16.6791992 L27.784668,21.4433594 Z M39.3969727,13.1933594 L39.8105469,13 L39.3969727,15.0087891 C39.3826497,14.8082672 39.3235682,14.6095387 39.2197266,14.4125977 C39.015624,14.011554 38.6915712,13.8110352 38.2475586,13.8110352 L36.1582031,13.8110352 L36.1582031,17.925293 L38.4570312,17.925293 C38.9010439,17.9145507 39.2662746,17.7928072 39.5527344,17.5600586 L39.2841797,19.7138672 C39.2770182,19.5169261 39.2143561,19.3217783 39.0961914,19.128418 C38.8598621,18.7416973 38.4659858,18.5483398 37.9145508,18.5483398 L36.1582031,18.5483398 L36.1582031,22.6303711 C36.2763678,22.7843432 36.4446604,22.938313 36.6630859,23.0922852 C37.1035178,23.4002294 37.5779597,23.5541992 38.0864258,23.5541992 C38.5984726,23.5541992 39.0764952,23.3125024 39.5205078,22.8291016 C39.7425141,22.5856108 39.9125971,22.343914 40.0307617,22.1040039 L39.8105469,24 L33.9453125,24 C34.0992846,23.9462888 34.2550448,23.8621425 34.4125977,23.7475586 C34.7277034,23.5112293 34.8852539,23.2337256 34.8852539,22.9150391 C34.8852539,22.406573 34.8798829,19.4149037 34.8691406,13.9399414 C34.708007,13.6105127 34.3356149,13.3616545 33.7519531,13.1933594 L39.3969727,13.1933594 Z M42.8505859,18.5375977 L44.6875,18.5375977 C44.9381523,18.5268554 45.1888008,18.4301767 45.4394531,18.2475586 C45.937177,17.8823224 46.1860352,17.2646528 46.1860352,16.3945312 C46.1860352,15.4456333 45.9300156,14.7008491 45.4179688,14.1601562 C44.9990213,13.7197244 44.5299505,13.4995117 44.0107422,13.4995117 C43.4915339,13.4995117 43.1997074,13.5138345 43.1352539,13.5424805 C42.9741203,13.6105147 42.8935547,13.839679 42.8935547,14.2299805 C42.8935547,14.7993193 42.8792319,16.2351773 42.8505859,18.5375977 Z M47.0722656,20.4658203 C47.6917349,21.3789108 48.2360003,22.0646136 48.7050781,22.5229492 C49.5429729,23.3393596 50.3092413,23.6759447 51.0039062,23.5327148 C50.9716795,23.6079105 50.8767912,23.6848954 50.7192383,23.7636719 C50.411294,23.9212247 49.9493846,24 49.3334961,24 C48.7176076,24 47.9692427,23.4718477 47.0883789,22.4155273 C46.647947,21.8855768 46.2701839,21.3556342 45.9550781,20.8256836 C45.815429,20.5714506 45.5808936,20.3190117 45.2514648,20.0683594 C44.5926074,19.5598933 43.7923224,19.3056641 42.8505859,19.3056641 L42.8505859,22.9902344 C42.8720704,23.2874364 43.0332016,23.5452463 43.3339844,23.7636719 C43.4843758,23.8710943 43.6329745,23.9498695 43.7797852,24 L40.6484375,24 C40.7952481,23.9498695 40.9438469,23.8710943 41.0942383,23.7636719 C41.395021,23.5452463 41.5561522,23.2874364 41.5776367,22.9902344 L41.5776367,14.0795898 C41.5561522,13.7859686 41.395021,13.529949 41.0942383,13.3115234 C40.9438469,13.2005203 40.7952481,13.1199547 40.6484375,13.0698242 L42.8505859,13.0698242 C43.6204466,12.9444981 44.3902956,12.9606112 45.1601562,13.1181641 C46.7034582,13.4332698 47.4750977,14.2997976 47.4750977,15.7177734 C47.5001629,15.9755872 47.4482428,16.3032207 47.3193359,16.7006836 C47.0686836,17.4920287 46.5638059,18.2260708 45.8046875,18.902832 C46.1735044,19.243003 46.5960263,19.7639939 47.0722656,20.4658203 Z M56.7026367,13.1933594 L57.1162109,13 L56.7026367,15.0087891 C56.6883137,14.8082672 56.6292323,14.6095387 56.5253906,14.4125977 C56.321288,14.011554 55.9972353,13.8110352 55.5532227,13.8110352 L53.4638672,13.8110352 L53.4638672,17.925293 L55.7626953,17.925293 C56.2067079,17.9145507 56.5719387,17.7928072 56.8583984,17.5600586 L56.5898438,19.7138672 C56.5826823,19.5169261 56.5200201,19.3217783 56.4018555,19.128418 C56.1655262,18.7416973 55.7716499,18.5483398 55.2202148,18.5483398 L53.4638672,18.5483398 L53.4638672,22.6303711 C53.5820318,22.7843432 53.7503244,22.938313 53.96875,23.0922852 C54.4091819,23.4002294 54.8836238,23.5541992 55.3920898,23.5541992 C55.9041367,23.5541992 56.3821592,23.3125024 56.8261719,22.8291016 C57.0481782,22.5856108 57.2182611,22.343914 57.3364258,22.1040039 L57.1162109,24 L51.2509766,24 C51.4049487,23.9462888 51.5607088,23.8621425 51.7182617,23.7475586 C52.0333675,23.5112293 52.190918,23.2337256 52.190918,22.9150391 C52.190918,22.406573 52.1855469,19.4149037 52.1748047,13.9399414 C52.0136711,13.6105127 51.641279,13.3616545 51.0576172,13.1933594 L56.7026367,13.1933594 Z M61.9609375,23.3662109 C63.228522,23.3662109 64.3940377,22.886398 65.4575195,21.9267578 C66.5997778,20.8990834 67.1708984,19.678067 67.1708984,18.2636719 C67.1708984,16.7919848 66.7537477,15.6372112 65.9194336,14.7993164 C65.0994425,13.9685831 63.9768951,13.5532227 62.5517578,13.5532227 C61.6422481,13.5532227 60.8938831,13.7931291 60.3066406,14.2729492 L60.3066406,22.8666992 C60.7005228,23.2283547 61.2519496,23.3948569 61.9609375,23.3662109 Z M57.9541016,13 L62.6699219,13 C65.1406374,13 66.8289343,13.8736892 67.7348633,15.6210938 C68.1860374,16.494796 68.3901369,17.3684852 68.347168,18.2421875 C68.347168,20.1578872 67.7491922,21.6241811 66.5532227,22.6411133 C65.4825793,23.5470423 64.0735764,24 62.3261719,24 L57.9541016,24 L58.5019531,23.8173828 C58.8242204,23.6705722 59.003255,23.5040699 59.0390625,23.3178711 L59.0390625,13.7949219 C59.0677085,13.7125647 59.0426436,13.6194667 58.9638672,13.515625 C58.8098951,13.3043609 58.4733099,13.1324876 57.9541016,13 Z M80.1743164,23.5004883 C80.6935247,23.5004883 81.1625956,23.2802756 81.581543,22.8398438 C82.0935898,22.2991509 82.3496094,21.5543667 82.3496094,20.6054688 C82.3496094,19.7353472 82.0989608,19.1176776 81.5976562,18.7524414 C81.347004,18.5698233 81.0981458,18.4731446 80.8510742,18.4624023 L78.8852539,18.4624023 C78.9138999,20.7648227 78.9282227,22.2006807 78.9282227,22.7700195 C78.9282227,23.1531595 79.0302724,23.3823238 79.234375,23.4575195 C79.3131514,23.4861655 79.6264621,23.5004883 80.1743164,23.5004883 Z M78.9282227,14.2299805 C78.9282227,14.7993193 78.9138999,15.9433508 78.8852539,17.6621094 L80.8510742,17.6621094 C81.0587575,17.5904944 81.2664378,17.4687509 81.4741211,17.296875 C81.8894878,16.9531233 82.097168,16.5234401 82.097168,16.0078125 C82.097168,15.066076 81.8823264,14.3857443 81.4526367,13.9667969 C81.1303695,13.6552719 80.704267,13.4995117 80.1743164,13.4995117 C79.6264621,13.4995117 79.3131514,13.5138345 79.234375,13.5424805 C79.0302724,13.6176762 78.9282227,13.8468405 78.9282227,14.2299805 Z M76.6611646,13.0043134 L76.8173828,13.0698242 C76.7529294,13.0375975 76.6974286,13.014323 76.6508789,13 L79.2182617,13 C80.2459361,13.014323 81.0175755,13.1163727 81.5332031,13.3061523 C82.4892626,13.6606463 82.9672852,14.335607 82.9672852,15.3310547 C82.8097323,16.5950584 82.3818394,17.4938124 81.6835938,18.0273438 C81.6764323,18.038086 81.6621095,18.0488281 81.640625,18.0595703 C81.6621095,18.0738933 81.6764323,18.0864257 81.6835938,18.097168 C82.4391314,18.7739292 82.9440091,19.5079713 83.1982422,20.2993164 C83.3235683,20.6967793 83.373698,21.0244128 83.3486328,21.2822266 C83.3486328,22.3492892 82.9010461,23.1083962 82.0058594,23.5595703 C81.3899709,23.8675146 80.6040087,24.014323 79.6479492,24 L76.6508789,24 C76.6974286,23.985677 76.7529294,23.9624025 76.8173828,23.9301758 L76.6611644,23.9956867 C76.8046291,23.9348473 76.9497994,23.8449773 77.0966797,23.7260742 C77.3974624,23.4825834 77.5585936,23.2140314 77.5800781,22.9204102 L77.5800781,14.0795898 C77.5585936,13.7859686 77.3974624,13.5174166 77.0966797,13.2739258 C76.9497994,13.1550227 76.8046291,13.0651527 76.6611644,13.0043133 L76.6611646,13.0043134 Z M88.2094727,13 L91.3891602,13 C91.2709955,13.028646 91.1456712,13.0895178 91.0131836,13.1826172 C90.7517891,13.368816 90.5942385,13.626626 90.5405273,13.9560547 L87.6025391,18.6289062 L87.6025391,22.9848633 C87.6240235,23.2820653 87.7869451,23.5398752 88.0913086,23.7583008 C88.2417,23.8693039 88.3902987,23.9498695 88.5371094,24 L85.3842773,24 C85.531088,23.9498695 85.6796867,23.8693039 85.8300781,23.7583008 C86.1344416,23.5398752 86.2973632,23.2820653 86.3188477,22.9848633 L86.3188477,18.6772461 L83.3754883,13.9560547 C83.3217771,13.626626 83.1642266,13.368816 82.902832,13.1826172 C82.7739251,13.0895178 82.6503912,13.028646 82.5322266,13 L85.7119141,13 C85.5651034,13.0501305 85.4147143,13.1306961 85.2607422,13.2416992 C84.9563787,13.4601248 84.7916668,13.7179347 84.7666016,14.0151367 L86.9633789,17.7265625 L89.1547852,14.0151367 C89.1333007,13.7179347 88.9685888,13.4601248 88.6606445,13.2416992 C88.5102532,13.1306961 88.359864,13.0501305 88.2094727,13 Z" id="path-1"></path>
        <polygon id="path-2" points="0.518 3.784 3.67 3.784 6.47 11.896 9.286 3.784 12.294 3.784 7.91 15 4.87 15"></polygon>
        <polygon id="path-3" points="19.08 3.784 22.008 3.784 22.008 12.504 26.76 12.504 26.76 15 19.08 15"></polygon>
    </defs>
    <g id="Page-1" stroke="none" stroke-width="1" fill="none" fill-rule="evenodd">
        <g id="powered_by_carto_2" fill-rule="nonzero">
            <g id="Group-3">
                <g id="Group-13" transform="translate(99.000000, 0.000000)">
                    <g id="Logo-/-Positive" transform="translate(0.000000, 12.000000)" fill="#F5E36C">
                        <path d="M6.25280899,11.981602 C8.76747566,11.981602 10.220757,10.882802 11.2984713,9.39040195 L8.9144367,7.68480195 C8.22861851,8.52120195 7.52647133,9.07880195 6.33445401,9.07880195 C4.73421159,9.07880195 3.60751029,7.73400195 3.60751029,6.01200195 L3.60751029,5.97920195 C3.60751029,4.30640195 4.73421159,2.92880195 6.33445401,2.92880195 C7.4284973,2.92880195 8.1796315,3.47000195 8.83279168,4.27360195 L11.2168263,2.42040195 C10.204428,1.02640195 8.70215964,0.0424019531 6.36711202,0.0424019531 C2.9053631,0.0424019531 0.358038428,2.66640195 0.358038428,6.01200195 L0.358038428,6.04480195 C0.358038428,9.47240195 2.98700813,11.981602 6.25280899,11.981602 L6.25280899,11.981602 Z M16.732047,11.752002 L20.0468349,11.752002 L20.8632851,9.68560195 L25.2884453,9.68560195 L26.1048955,11.752002 L29.5013284,11.752002 L24.6352851,0.190001953 L21.5817613,0.190001953 L16.732047,11.752002 Z M21.7940384,7.20920195 L23.0840297,3.96200195 L24.357692,7.20920195 L21.7940384,7.20920195 Z M35.6697093,11.752002 L38.8375361,11.752002 L38.8375361,8.27520195 L40.2418305,8.27520195 L42.5442201,11.752002 L46.1855881,11.752002 L43.4586443,7.75040195 C44.8792677,7.14360195 45.810021,5.97920195 45.810021,4.20800195 L45.810021,4.17520195 C45.810021,3.04360195 45.4671119,2.17440195 44.7976227,1.50200195 C44.0301595,0.731201953 42.8218132,0.272001953 41.0746097,0.272001953 L35.6697093,0.272001953 L35.6697093,11.752002 Z M38.8375361,5.78240195 L38.8375361,3.01080195 L40.9276487,3.01080195 C41.9727049,3.01080195 42.6421941,3.47000195 42.6421941,4.38840195 L42.6421941,4.42120195 C42.6421941,5.25760195 42.005363,5.78240195 40.9439777,5.78240195 L38.8375361,5.78240195 Z M55.2605317,11.752002 L58.4283585,11.752002 L58.4283585,3.06000195 L61.8574495,3.06000195 L61.8574495,0.272001953 L51.8477698,0.272001953 L51.8477698,3.06000195 L55.2605317,3.06000195 L55.2605317,11.752002 Z" id="Logo"></path>
                    </g>
                    <path d="M74,36 C83.9411255,36 92,27.9411255 92,18 C92,8.0588745 83.9411255,0 74,0 C64.0588745,0 56,8.0588745 56,18 C56,27.9411255 64.0588745,36 74,36 Z" id="Halo" fill="#FFFFFF" opacity="0.1"></path>
                    <circle id="Oval-81" fill="#F5E36C" cx="74" cy="18" r="6"></circle>
                </g>
                <g id="Poweredby">
                    <use fill="#FFFFFF" xlink:href="#path-1"></use>
                    <use fill="#F5E36C" xlink:href="#path-1"></use>
                </g>
            </g>
            <g id="VL" transform="translate(196.000000, 9.000000)">
                <g id="V">
                    <use fill="#000000" xlink:href="#path-2"></use>
                    <use fill="#F5E36C" xlink:href="#path-2"></use>
                </g>
                <g id="L">
                    <use fill="#000000" xlink:href="#path-3"></use>
                    <use fill="#F5E36C" xlink:href="#path-3"></use>
                </g>
            </g>
        </g>
    </g>
</svg>