<?xml version="1.0" encoding="UTF-8"?>
<svg width="223px" height="36px" viewBox="0 0 223 36" version="1.1" xmlns="http://www.w3.org/2000/svg" xmlns:xlink="http://www.w3.org/1999/xlink">
    <!-- Generator: Sketch 54.1 (76490) - https://sketchapp.com -->
    <title>powered_by_carto_2</title>
    <desc>Created with Sketch.</desc>
    <g id="Page-1" stroke="none" stroke-width="1" fill="none" fill-rule="evenodd">
        <g id="powered_by_carto_2">
            <g id="Group-3">
                <g id="Group-13" transform="translate(99.000000, 0.000000)" fill-rule="nonzero">
                    <g id="Logo-/-Positive" transform="translate(0.000000, 12.000000)" fill="#F5E36C">
                        <path d="M6.25280899,11.981602 C8.76747566,11.981602 10.220757,10.882802 11.2984713,9.39040195 L8.9144367,7.68480195 C8.22861851,8.52120195 7.52647133,9.07880195 6.33445401,9.07880195 C4.73421159,9.07880195 3.60751029,7.73400195 3.60751029,6.01200195 L3.60751029,5.97920195 C3.60751029,4.30640195 4.73421159,2.92880195 6.33445401,2.92880195 C7.4284973,2.92880195 8.1796315,3.47000195 8.83279168,4.27360195 L11.2168263,2.42040195 C10.204428,1.02640195 8.70215964,0.0424019531 6.36711202,0.0424019531 C2.9053631,0.0424019531 0.358038428,2.66640195 0.358038428,6.01200195 L0.358038428,6.04480195 C0.358038428,9.47240195 2.98700813,11.981602 6.25280899,11.981602 L6.25280899,11.981602 Z M16.732047,11.752002 L20.0468349,11.752002 L20.8632851,9.68560195 L25.2884453,9.68560195 L26.1048955,11.752002 L29.5013284,11.752002 L24.6352851,0.190001953 L21.5817613,0.190001953 L16.732047,11.752002 Z M21.7940384,7.20920195 L23.0840297,3.96200195 L24.357692,7.20920195 L21.7940384,7.20920195 Z M35.6697093,11.752002 L38.8375361,11.752002 L38.8375361,8.27520195 L40.2418305,8.27520195 L42.5442201,11.752002 L46.1855881,11.752002 L43.4586443,7.75040195 C44.8792677,7.14360195 45.810021,5.97920195 45.810021,4.20800195 L45.810021,4.17520195 C45.810021,3.04360195 45.4671119,2.17440195 44.7976227,1.50200195 C44.0301595,0.731201953 42.8218132,0.272001953 41.0746097,0.272001953 L35.6697093,0.272001953 L35.6697093,11.752002 Z M38.8375361,5.78240195 L38.8375361,3.01080195 L40.9276487,3.01080195 C41.9727049,3.01080195 42.6421941,3.47000195 42.6421941,4.38840195 L42.6421941,4.42120195 C42.6421941,5.25760195 42.005363,5.78240195 40.9439777,5.78240195 L38.8375361,5.78240195 Z M55.2605317,11.752002 L58.4283585,11.752002 L58.4283585,3.06000195 L61.8574495,3.06000195 L61.8574495,0.272001953 L51.8477698,0.272001953 L51.8477698,3.06000195 L55.2605317,3.06000195 L55.2605317,11.752002 Z" id="Logo"></path>
                    </g>
                    <path d="M74,36 C83.9411255,36 92,27.9411255 92,18 C92,8.0588745 83.9411255,0 74,0 C64.0588745,0 56,8.0588745 56,18 C56,27.9411255 64.0588745,36 74,36 Z" id="Halo" fill="#FFFFFF" opacity="0.1"></path>
                    <circle id="Oval-81" fill="#F5E36C" cx="74" cy="18" r="6"></circle>
                </g>
                <text id="Powered-by" fill="#F5E36C" font-family="GameofThrones, Game of Thrones" font-size="11" font-weight="normal">
                    <tspan x="0" y="24">Powered   by</tspan>
                </text>
            </g>
            <g id="VL" transform="translate(196.000000, 9.000000)" fill="#F5E36C" font-family="Montserrat-Bold, Montserrat" font-size="16" font-weight="bold">
                <text id="V">
                    <tspan x="0.55" y="15">V</tspan>
                </text>
                <text id="L">
                    <tspan x="17.992" y="15">L</tspan>
                </text>
            </g>
        </g>
    </g>
</svg>