<?xml version="1.0" encoding="UTF-8"?>
<svg width="295px" height="29px" viewBox="0 0 295 29" version="1.1" xmlns="http://www.w3.org/2000/svg" xmlns:xlink="http://www.w3.org/1999/xlink">
    <!-- Generator: Sketch 53 (72520) - https://sketchapp.com -->
    <title>ornament</title>
    <desc>Created with Sketch.</desc>
    <defs>
        <filter x="-4.2%" y="-55.8%" width="108.4%" height="214.0%" filterUnits="objectBoundingBox" id="filter-1">
            <feOffset dx="0" dy="2" in="SourceAlpha" result="shadowOffsetOuter1"></feOffset>
            <feGaussianBlur stdDeviation="2" in="shadowOffsetOuter1" result="shadowBlurOuter1"></feGaussianBlur>
            <feColorMatrix values="0 0 0 0 0   0 0 0 0 0   0 0 0 0 0  0 0 0 0.5 0" type="matrix" in="shadowBlurOuter1" result="shadowMatrixOuter1"></feColorMatrix>
            <feMerge>
                <feMergeNode in="shadowMatrixOuter1"></feMergeNode>
                <feMergeNode in="SourceGraphic"></feMergeNode>
            </feMerge>
        </filter>
        <path d="M38.8408181,14.6775 C38.8408181,14.6775 38.9596869,14.7515 39.1909833,14.895 C39.4216942,15.04 39.7677605,15.251 40.2250833,15.525 C41.1420712,16.066 42.5023284,16.862 44.3538709,17.7355 C45.2808133,18.169 46.3307234,18.6225 47.5164835,19.0415 C48.1096564,19.2515 48.7362062,19.4515 49.3955474,19.639 C50.0566453,19.8215 50.7487779,19.995 51.4760441,20.139 C52.2033103,20.282 52.9627824,20.403 53.7515325,20.492 C54.5414537,20.578 55.3600673,20.6305 56.2038601,20.6455 C56.4152475,20.647 56.6272204,20.654 56.8415356,20.65 C57.0552652,20.6465 57.2707515,20.643 57.4874089,20.639 C57.7040663,20.63 57.9218948,20.62 58.14148,20.6105 C58.3610653,20.6025 58.581236,20.5805 58.8031635,20.566 C59.6902877,20.497 60.5961499,20.3865 61.51548,20.2335 C62.4312968,20.0785 63.3553114,19.868 64.2705425,19.5895 C65.1863593,19.3135 66.0887081,18.9575 66.9529955,18.52 C67.3810403,18.296 67.8044006,18.0575 68.204924,17.788 C68.6048619,17.5185 68.9901607,17.228 69.3502805,16.9115 C70.0605654,16.2735 70.6836019,15.541 71.1233579,14.7165 C71.5648705,13.894 71.8465252,12.9925 71.9220625,12.0585 C71.9367015,11.9425 71.9355304,11.824 71.9425571,11.707 C71.9513405,11.59 71.9484127,11.4715 71.946656,11.3535 L71.9448993,11.1765 C71.9431427,11.117 71.9361159,11.059 71.9326026,11 C71.9232336,10.8825 71.9138646,10.7645 71.9044957,10.6465 C71.8430118,10.177 71.7352687,9.711 71.5754106,9.254 C71.4055981,8.8 71.183085,8.3575 70.9096283,7.9335 C70.6390993,7.509 70.3035731,7.11 69.9317421,6.733 C69.5575689,6.357 69.1441631,6.0025 68.6915248,5.6785 C68.2388865,5.3555 67.7534568,5.0575 67.2434335,4.7855 C66.223387,4.2395 65.0979396,3.8055 63.922134,3.468 C62.7457428,3.133 61.5113811,2.8945 60.2582815,2.8 C58.9922995,2.703 57.7040663,2.7165 56.4164186,2.8405 C55.1287709,2.9725 53.8434655,3.214 52.5751413,3.552 C50.0367362,4.2325 47.5814807,5.281 45.16253,6.469 C42.7388948,7.656 40.3392676,8.982 37.8266272,10.238 C37.2000774,10.5475 36.5758698,10.8555 35.953419,11.163 C35.335067,11.47 34.720814,11.782 34.1071465,12.0935 C32.8815682,12.7165 31.66126,13.34 30.4386095,13.946 C27.9938941,15.158 25.5362964,16.307 23.0195571,17.278 C21.7611874,17.7625 20.4887643,18.203 19.1976033,18.577 C17.9076133,18.9515 16.5977143,19.259 15.2731763,19.468 C13.9498094,19.677 12.6106324,19.788 11.2808244,19.765 C11.1145252,19.761 10.9488115,19.7605 10.7825123,19.7545 C10.6173842,19.7435 10.4516706,19.733 10.2865425,19.722 L10.039436,19.7055 L9.91588268,19.6975 L9.79291496,19.6835 C9.628958,19.6645 9.46500104,19.6455 9.30162964,19.6265 L9.05686532,19.5975 C8.97547241,19.5885 8.89525061,19.5715 8.81502881,19.5585 C8.65399965,19.5315 8.49355606,19.504 8.33369802,19.4765 C8.01163971,19.429 7.69719368,19.3475 7.3821621,19.277 C7.06537383,19.2125 6.75971121,19.111 6.45170635,19.0225 L6.22158105,18.9545 C6.14545817,18.929 6.07109198,18.9005 5.99614023,18.8735 C5.84682228,18.819 5.69691878,18.764 5.54818639,18.71 C5.39711177,18.659 5.25482055,18.591 5.11077265,18.5275 C4.96672475,18.4635 4.82326241,18.3995 4.67980007,18.3355 C4.53867997,18.267 4.40341548,18.19 4.26580875,18.1175 L4.06027699,18.0075 L3.95838945,17.9525 C3.9250125,17.933 3.89280666,17.9115 3.86060083,17.891 C3.73060639,17.8085 3.6011975,17.726 3.47237418,17.6435 C3.40854807,17.6015 3.34120861,17.564 3.28148143,17.5175 L3.09995765,17.381 C2.97991774,17.2895 2.85987782,17.1985 2.7398379,17.1075 C2.6285814,17.0085 2.51791045,16.9095 2.4072395,16.8105 L2.24211142,16.662 C2.18941097,16.611 2.14080944,16.5565 2.09045123,16.504 C1.99032037,16.398 1.89018952,16.292 1.79064422,16.186 C1.69695453,16.076 1.61087713,15.9625 1.52187192,15.8505 L1.38894967,15.6825 C1.34503263,15.6265 1.30989899,15.566 1.27008087,15.508 C1.19278688,15.3905 1.11549288,15.2735 1.03878445,15.1565 C0.967931621,15.037 0.90527664,14.914 0.839108296,14.7935 L0.741319681,14.612 C0.70969941,14.5515 0.685691427,14.488 0.657584519,14.426 C0.603712947,14.302 0.549841375,14.177 0.496555363,14.0535 C0.449710517,13.9275 0.409892398,13.801 0.366560916,13.6745 L0.303320375,13.4855 C0.283996876,13.422 0.270528983,13.3575 0.254133287,13.294 C0.222513016,13.166 0.191478306,13.0385 0.160443596,12.9115 C0.135264491,12.7835 0.117112114,12.655 0.0954463728,12.5275 L0.0649972232,12.3355 C0.0550426935,12.2715 0.0527004512,12.207 0.046259285,12.1435 C0.0357191947,12.015 0.0251791045,11.8875 0.0146390142,11.76 C0.00819784797,11.6325 0.0111256508,11.505 0.00936896911,11.378 C0.00878340854,11.251 0.00468448455,11.124 0.0163956959,10.998 C0.0245935439,10.872 0.0333769524,10.7465 0.0415748004,10.621 C0.0486015272,10.495 0.0726095106,10.3715 0.0878340854,10.247 L0.11301319,10.061 L0.126481083,9.9685 L0.145219021,9.8765 C0.170398126,9.754 0.196162791,9.632 0.221341895,9.51 C0.671637973,7.57 1.73794377,5.8085 3.26742798,4.5025 C4.0274856,3.8685 4.83321694,3.31 5.67232523,2.823 C5.88546928,2.705 6.09217216,2.5815 6.30648733,2.471 C6.52314474,2.3635 6.73863103,2.2565 6.95236064,2.1495 C7.39094551,1.9525 7.82426033,1.757 8.26987192,1.596 C9.15582506,1.2655 10.0488049,0.9955 10.9423704,0.8135 C11.1637123,0.7595 11.3885675,0.725 11.6099094,0.685 C11.8318369,0.6465 12.0508365,0.603 12.272764,0.5785 C12.4935203,0.5505 12.71252,0.522 12.9303485,0.4935 C13.1493481,0.475 13.3671767,0.457 13.5832485,0.439 C13.7981493,0.417 14.0136355,0.4115 14.2273652,0.4035 C14.3339372,0.3995 14.4405092,0.395 14.5464957,0.391 C14.6518966,0.386 14.757883,0.3825 14.8632839,0.385 C15.0735002,0.386 15.2825453,0.387 15.4892482,0.3885 L15.6444217,0.39 L15.7984242,0.3975 C15.9014828,0.403 16.0033704,0.4075 16.1052579,0.413 C16.2071454,0.418 16.3078619,0.423 16.4091638,0.428 L16.5602385,0.436 L16.7095564,0.45 C16.9092326,0.469 17.107152,0.488 17.3027293,0.506 C17.4994776,0.5205 17.6915415,0.5545 17.8830198,0.579 C18.0739125,0.607 18.2648053,0.629 18.4515991,0.6605 C19.9471208,0.91 21.2974235,1.2905 22.4913815,1.728 C23.6865106,2.1655 24.7247095,2.6595 25.6258872,3.144 C27.4136036,4.136 28.6503075,5.0805 29.4525255,5.7425 C29.8606612,6.069 30.1475859,6.338 30.3460909,6.514 C30.5434249,6.691 30.6441413,6.7815 30.6441413,6.7815 C30.6441413,6.7815 30.5393259,6.694 30.3349653,6.523 C30.1294335,6.353 29.8331399,6.0925 29.413293,5.7785 C28.5882381,5.1405 27.321085,4.2335 25.5163874,3.2955 C24.6070118,2.838 23.5641284,2.3755 22.3730982,1.972 C21.1838247,1.5695 19.8458188,1.227 18.3772329,1.0155 C18.1939524,0.9885 18.0071586,0.971 17.8197792,0.948 C17.6318143,0.9285 17.4438494,0.899 17.2517855,0.889 C17.0603072,0.8755 16.8670722,0.862 16.6726661,0.8475 L16.5262759,0.837 L16.3787147,0.832 C16.2803405,0.8295 16.1819663,0.8265 16.082421,0.8235 C15.9834613,0.821 15.883916,0.8185 15.7837851,0.8155 L15.6338816,0.811 L15.4833926,0.813 C15.2819597,0.816 15.0793558,0.819 14.8749951,0.8225 C14.772522,0.822 14.6706345,0.8275 14.5681614,0.8345 C14.4651027,0.8405 14.3620441,0.8465 14.2589854,0.853 C14.0522825,0.865 13.843823,0.8745 13.6353634,0.9005 C13.4274894,0.922 13.2172732,0.944 13.0058858,0.966 C12.7962551,0.9975 12.5854533,1.0295 12.3728948,1.061 C12.1591652,1.089 11.948949,1.1355 11.7352194,1.1765 C11.5232464,1.219 11.3071746,1.2565 11.0957872,1.313 C10.2391121,1.505 9.38770705,1.782 8.54625651,2.1145 C6.85867095,2.776 5.24779382,3.753 3.83015168,4.978 C3.66385248,5.135 3.48701319,5.284 3.335353,5.455 C3.25688789,5.5385 3.17666609,5.6205 3.09937209,5.7055 C3.02676258,5.7935 2.95356751,5.8815 2.88037244,5.9695 L2.77028705,6.102 C2.73515342,6.147 2.70294759,6.194 2.66839951,6.2395 C2.60106005,6.332 2.53372058,6.425 2.46579556,6.5175 C2.40021277,6.611 2.34224228,6.7095 2.2795873,6.805 C2.21986012,6.903 2.15193509,6.9965 2.0998202,7.0975 C1.99090594,7.2985 1.8726227,7.496 1.78068969,7.705 C1.73267372,7.8085 1.68114439,7.9115 1.63547067,8.0165 C1.59331031,8.1225 1.55056439,8.2285 1.50840403,8.3355 L1.44457792,8.495 L1.39070635,8.658 C1.35557272,8.7665 1.31985352,8.876 1.28413433,8.985 C1.25134294,9.0945 1.22616383,9.2065 1.19630024,9.3175 C1.16936446,9.4285 1.13540194,9.5395 1.11842069,9.653 C1.09675495,9.7655 1.07567477,9.8785 1.05459459,9.9915 L1.03878445,10.0765 L1.02882992,10.162 L1.00892086,10.3335 C0.99779521,10.448 0.97730059,10.5625 0.973201666,10.6775 C0.967931621,10.793 0.962661576,10.908 0.957391531,11.024 C0.948022562,11.139 0.955049288,11.255 0.957391531,11.371 C0.962076015,11.487 0.960904894,11.603 0.969688303,11.719 C0.981399514,11.835 0.993110725,11.9505 1.00482194,12.067 C1.01184866,12.125 1.01477647,12.183 1.024731,12.2405 L1.05635127,12.4135 C1.07801701,12.529 1.09616939,12.645 1.12076293,12.7605 C1.15121208,12.874 1.18166123,12.9885 1.21211038,13.103 C1.22792051,13.1595 1.24080285,13.218 1.25895522,13.274 L1.31926796,13.4425 C1.36084276,13.5545 1.39773308,13.668 1.44106456,13.78 C1.49142277,13.889 1.54119542,13.999 1.59155363,14.1095 C1.61731829,14.164 1.63898403,14.22 1.66826206,14.2735 L1.75843839,14.433 C1.81933669,14.5395 1.8755505,14.6475 1.94054773,14.7525 C2.01022943,14.855 2.0804967,14.9575 2.15076397,15.06 C2.18648317,15.111 2.21810344,15.164 2.25792156,15.213 L2.37796147,15.3595 C2.45876883,15.4565 2.53547726,15.556 2.61979799,15.652 C2.70880319,15.7435 2.79839396,15.836 2.88857029,15.928 C2.93365845,15.974 2.97698993,16.0215 3.02383478,16.066 L3.17256716,16.195 C3.27094134,16.281 3.36990108,16.3665 3.46944637,16.453 C3.57660396,16.532 3.6843471,16.6115 3.79209025,16.6905 L3.95370496,16.8095 C4.00699098,16.85 4.06847484,16.8825 4.12527421,16.9195 C4.2412152,16.991 4.3571562,17.063 4.47368275,17.135 C4.50296078,17.153 4.53106768,17.1715 4.56093127,17.1885 L4.6540354,17.2365 L4.83907254,17.3325 C4.96321138,17.3955 5.08442242,17.4635 5.21148907,17.523 C5.34148351,17.579 5.47206352,17.635 5.60205797,17.691 C5.73263797,17.7465 5.86087574,17.807 5.99906803,17.851 C6.13550364,17.899 6.2713537,17.9475 6.40837487,17.995 C6.4762999,18.019 6.54422492,18.0445 6.61332107,18.067 L6.825294,18.126 C7.10870531,18.2035 7.38743214,18.294 7.68196911,18.35 C7.97357827,18.4115 8.26225963,18.485 8.56382333,18.5255 C8.71314127,18.5495 8.86245922,18.573 9.01236272,18.597 C9.08672891,18.608 9.16168067,18.6235 9.23721798,18.631 L9.46324436,18.655 C9.61431899,18.6715 9.76597917,18.6875 9.9170538,18.7035 L10.0312381,18.7155 L10.146008,18.7215 L10.3755477,18.7345 C10.528379,18.743 10.6817959,18.752 10.8352128,18.7605 C10.9892152,18.764 11.1438032,18.7635 11.2983912,18.765 C12.5356807,18.7755 13.7928792,18.6605 15.0459788,18.4515 C16.3002496,18.243 17.5515925,17.9405 18.7929809,17.5705 C20.0343693,17.2005 21.2663888,16.7655 22.4907959,16.2855 C24.9396102,15.3235 27.3527053,14.183 29.7739983,12.9725 C30.9849375,12.367 32.198219,11.7435 33.4261395,11.117 C34.0403926,10.8045 34.6564023,10.49 35.2811954,10.1795 C35.9024752,9.872 36.5266827,9.564 37.1520614,9.255 C39.632496,8.015 42.0373933,6.691 44.5078733,5.491 C46.9724977,4.29 49.5191007,3.2115 52.1980403,2.51 C53.5366317,2.1615 54.9039157,1.913 56.2770552,1.782 C57.6507803,1.659 59.0274332,1.656 60.3742225,1.77 C61.7338941,1.885 63.0473065,2.152 64.2998205,2.521 C65.5505779,2.894 66.7486348,3.3695 67.8448042,3.9725 C68.3928889,4.273 68.9163801,4.603 69.4076654,4.963 C69.8983652,5.324 70.3498323,5.7205 70.7591392,6.144 C71.1666893,6.569 71.5344214,7.0205 71.8324717,7.503 C72.1322787,7.984 72.3752864,8.487 72.5568101,9.0015 C72.7289649,9.5185 72.8396359,10.044 72.8981919,10.5685 C72.9063898,10.6995 72.9140021,10.8305 72.9221999,10.9615 C72.9251277,11.027 72.9309833,11.0925 72.9321545,11.157 L72.9303978,11.352 C72.9298122,11.482 72.9303978,11.6115 72.9186866,11.7405 C72.9081465,11.8695 72.9069754,11.9985 72.8882374,12.127 C72.7851788,13.155 72.454337,14.1505 71.9478271,15.0495 C71.4436595,15.952 70.7433291,16.7435 69.9586779,17.4225 C69.5610823,17.7585 69.1394787,18.065 68.7044072,18.346 C68.2687501,18.6275 67.8125984,18.8735 67.3529334,19.103 C66.4271621,19.552 65.4703561,19.9075 64.5082801,20.178 C63.5473752,20.4515 62.5852992,20.652 61.6378622,20.7935 C60.6921819,20.933 59.7611406,21.028 58.8505939,21.081 C58.6228108,21.0915 58.3967844,21.1095 58.1719292,21.113 C57.9464884,21.118 57.7233898,21.1235 57.5008768,21.129 C57.2789493,21.1285 57.058193,21.1275 56.8391933,21.1265 C56.6196081,21.126 56.4023652,21.1145 56.1862933,21.109 C55.3237626,21.075 54.4875821,21.0045 53.684193,20.8995 C52.8808039,20.791 52.1107917,20.651 51.3747421,20.4895 C50.639278,20.326 49.9412898,20.134 49.2766786,19.9335 C48.613824,19.728 47.9861031,19.5105 47.3941014,19.284 C46.2095123,18.832 45.1678001,18.349 44.2513978,17.89 C42.4203499,16.965 41.0881996,16.132 40.1911208,15.5645 C39.7449236,15.278 39.4064696,15.0565 39.1816144,14.9055 C38.9567591,14.755 38.8408181,14.6775 38.8408181,14.6775" id="path-2"></path>
        <linearGradient x1="-4.19250398e-06%" y1="49.9995845%" x2="100%" y2="49.9995845%" id="linearGradient-4">
            <stop stop-color="#FDF175" offset="0%"></stop>
            <stop stop-color="#BCA22B" offset="100%"></stop>
        </linearGradient>
        <path d="M28.7439972,0.1455 C28.7439972,0.1455 28.6333263,0.16 28.4236956,0.1875 C28.3188802,0.2015 28.1888858,0.216 28.0366401,0.239 C27.8843943,0.2625 27.7087261,0.2905 27.5119778,0.322 C26.7249844,0.453 25.6018792,0.696 24.2726567,1.119 C22.9422631,1.54 21.4174634,2.159 19.7819927,2.944 C18.1441798,3.7275 16.3945248,4.676 14.5277577,5.661 C13.5943742,6.153 12.6732874,6.628 11.7656685,7.067 C11.3118591,7.2865 10.861563,7.4975 10.4159514,7.698 C9.98029434,7.896 9.55400625,8.09 9.13708712,8.2795 C7.48229295,9.05 5.99379799,9.7855 4.7090781,10.3545 C4.54922006,10.4265 4.39287539,10.496 4.24062964,10.5645 C4.08662721,10.6295 3.93613815,10.6935 3.789748,10.7555 C3.49755328,10.8775 3.22058313,10.9925 2.96176536,11.1005 C2.43476085,11.3005 1.98505033,11.476 1.609706,11.606 C0.85374731,11.8555 0.436242624,11.986 0.436242624,11.986 C0.436242624,11.986 0.821541479,11.7895 1.51660187,11.447 C1.86091149,11.27 2.27373169,11.0405 2.75740472,10.785 C2.99514231,10.6505 3.2492756,10.5065 3.5180479,10.354 C3.65272683,10.278 3.79091913,10.1995 3.93321034,10.1195 C4.07374488,10.037 4.21837834,9.952 4.36652516,9.8655 C4.96086914,9.5175 5.61025581,9.137 6.30473065,8.7305 C6.65548143,8.527 7.01735786,8.3155 7.39387331,8.1015 C7.77331656,7.8895 8.16212877,7.6695 8.56733669,7.45 C8.97547241,7.236 9.40058938,7.0115 9.82512079,6.795 C10.2484811,6.5805 10.6788681,6.3575 11.1156963,6.128 C11.992866,5.663 12.8993138,5.183 13.8280128,4.691 C15.6941944,3.706 17.5223145,2.7995 19.2637716,2.09 C21.0040576,1.379 22.6541673,0.87 24.0759084,0.5745 C25.4976494,0.276 26.6763829,0.171 27.4867987,0.145 C27.6894026,0.1405 27.8697553,0.137 28.0255144,0.134 C28.1812735,0.1325 28.3136102,0.1375 28.4201822,0.1385 C28.6321552,0.143 28.7439972,0.1455 28.7439972,0.1455" id="path-5"></path>
        <linearGradient x1="0%" y1="50.0011751%" x2="100.001034%" y2="50.0011751%" id="linearGradient-7">
            <stop stop-color="#FDF175" offset="0%"></stop>
            <stop stop-color="#BCA22B" offset="100%"></stop>
        </linearGradient>
        <path d="M28.3692385,0.1855 C28.3692385,0.1855 28.257982,0.2 28.0483513,0.2275 C27.9435359,0.242 27.8135415,0.256 27.6612957,0.279 C27.50905,0.303 27.3339674,0.3305 27.1366335,0.362 C26.3496401,0.493 25.2265349,0.736 23.8973124,1.159 C22.5669188,1.58 21.0421191,2.199 19.4066484,2.984 C17.7688355,3.768 16.0191805,4.716 14.152999,5.701 C13.2190299,6.193 12.2979431,6.668 11.3903242,7.107 C10.9365148,7.3265 10.4868042,7.538 10.0406071,7.738 C9.60553558,7.936 9.17866192,8.13 8.76232836,8.32 C7.10694863,9.0905 5.61903922,9.826 4.33431933,10.3945 C4.1744613,10.4665 4.01811663,10.536 3.86528532,10.6045 C3.71128289,10.67 3.56079382,10.7335 3.41440368,10.7955 C3.12220896,10.9175 2.84582437,11.0325 2.58700659,11.1405 C2.05941652,11.3405 1.609706,11.516 1.23494724,11.646 C0.478402985,11.8955 0.0608982992,12.0265 0.0608982992,12.0265 C0.0608982992,12.0265 0.446197154,11.8295 1.14184311,11.4875 C1.48556716,11.31 1.89897293,11.0805 2.3820604,10.825 C2.61979799,10.6905 2.87393127,10.5465 3.14328914,10.394 C3.27796807,10.318 3.41616036,10.2395 3.55786602,10.1595 C3.69898612,10.077 3.84303402,9.9925 3.99118084,9.906 C4.58552482,9.5575 5.23491149,9.177 5.92938632,8.7705 C6.28013711,8.567 6.64201354,8.356 7.01852898,8.1415 C7.39797223,7.9295 7.78678445,7.7095 8.19257792,7.49 C8.60012808,7.2765 9.02524505,7.052 9.44977647,6.835 C9.87313676,6.6205 10.3035238,6.398 10.7409375,6.168 C11.6175217,5.7035 12.524555,5.223 13.4526685,4.7315 C15.3188501,3.746 17.1475557,2.84 18.8884273,2.1305 C20.6287133,1.4195 22.278823,0.9105 23.700564,0.6145 C25.1228907,0.316 26.3016241,0.2115 27.1120399,0.185 C27.3140583,0.181 27.494411,0.177 27.6507556,0.1745 C27.8065148,0.173 27.9382659,0.1775 28.0448379,0.1785 C28.2568108,0.183 28.3692385,0.1855 28.3692385,0.1855" id="path-8"></path>
        <linearGradient x1="0%" y1="49.9970608%" x2="99.9989657%" y2="49.9970608%" id="linearGradient-10">
            <stop stop-color="#FDF175" offset="0%"></stop>
            <stop stop-color="#BCA22B" offset="100%"></stop>
        </linearGradient>
        <path d="M2.91316383,3.594 C2.91316383,3.594 3.59124297,1.4425 8.41977543,3.5755 C8.41977543,3.5755 3.91740021,5.783 2.91316383,3.594 Z M9.94984519,3.5795 C9.95043075,3.769 9.77124922,3.9235 9.54990732,3.924 C9.32797987,3.925 9.14762721,3.772 9.14645609,3.5825 C9.14587053,3.393 9.32505207,3.2395 9.54639396,3.2385 C9.76832142,3.238 9.94867407,3.3905 9.94984519,3.5795 Z M12.3687959,3.5395 C12.3687959,3.5395 10.8270149,-3.609 0.304491496,3.581 C0.304491496,3.581 10.2244731,10.844 12.3687959,3.5395 L12.3687959,3.5395 Z" id="path-11"></path>
        <linearGradient x1="0%" y1="50.0047622%" x2="99.9995146%" y2="50.0047622%" id="linearGradient-13">
            <stop stop-color="#FDF175" offset="0%"></stop>
            <stop stop-color="#BCA22B" offset="100%"></stop>
        </linearGradient>
        <path d="M1.28179209,2.062 C0.669295731,2.0645 0.170983686,1.642 0.168641444,1.119 C0.166299202,0.596 0.660512322,0.171 1.27300868,0.1685 C1.88550503,0.1665 2.38381708,0.589 2.38615932,1.112 C2.38850156,1.6345 1.89428844,2.06 1.28179209,2.062" id="path-14"></path>
        <linearGradient x1="0.000373892893%" y1="50.0130982%" x2="99.9969855%" y2="50.0130982%" id="linearGradient-16">
            <stop stop-color="#FDF175" offset="0%"></stop>
            <stop stop-color="#BCA22B" offset="100%"></stop>
        </linearGradient>
        <path d="M1.54705102,2.0915 C0.935140229,2.0935 0.436242624,1.6715 0.434485942,1.1485 C0.43155814,0.6255 0.92577126,0.1995 1.53826762,0.198 C2.15076397,0.196 2.64907602,0.6175 2.65141826,1.1405 C2.65434606,1.6635 2.15954738,2.0895 1.54705102,2.0915" id="path-17"></path>
        <linearGradient x1="-0.0258290342%" y1="49.9867973%" x2="99.9967756%" y2="49.9867973%" id="linearGradient-19">
            <stop stop-color="#FDF175" offset="0%"></stop>
            <stop stop-color="#BCA22B" offset="100%"></stop>
        </linearGradient>
        <path d="M4.04446685,5.1385 C4.04446685,5.1385 7.83831378,2.6305 7.80493683,2.617 C7.83831378,2.604 4.02104443,0.1215 4.02104443,0.1215 C3.57953176,0.9415 0.238323152,2.6395 0.245349879,2.643 C0.190892746,2.67 3.5953419,4.3215 4.04446685,5.1385" id="path-20"></path>
        <linearGradient x1="0.000801993421%" y1="50%" x2="99.9994276%" y2="50%" id="linearGradient-22">
            <stop stop-color="#FDF175" offset="0%"></stop>
            <stop stop-color="#BCA22B" offset="100%"></stop>
        </linearGradient>
        <path d="M2.8838858,2.099 C6.0277605,0.7105 6.46985873,2.112 6.46985873,2.112 C5.81578757,3.537 2.8838858,2.099 2.8838858,2.099 Z M2.14959285,1.88 C2.29422631,1.8805 2.41075286,1.9805 2.4101673,2.104 C2.40958174,2.227 2.29188407,2.3265 2.14783617,2.326 C2.00320271,2.3255 1.88667615,2.2255 1.88726171,2.102 C1.88784728,1.979 2.00554495,1.8795 2.14959285,1.88 Z M8.16856994,2.103 C1.3157546,-2.579 0.312103783,2.076 0.312103783,2.076 C1.70808018,6.8325 8.16856994,2.103 8.16856994,2.103 L8.16856994,2.103 Z" id="path-23"></path>
        <linearGradient x1="0%" y1="49.9974803%" x2="99.9992547%" y2="49.9974803%" id="linearGradient-25">
            <stop stop-color="#FDF175" offset="0%"></stop>
            <stop stop-color="#BCA22B" offset="100%"></stop>
        </linearGradient>
        <path d="M1.06337799,1.2415 C1.46214474,1.243 1.78713086,0.9685 1.78888754,0.628 C1.79005866,0.287 1.46800035,0.0105 1.0692336,0.009 C0.670466852,0.0075 0.346066296,0.282 0.344309615,0.623 C0.342552933,0.9635 0.664611246,1.2405 1.06337799,1.2415" id="path-26"></path>
        <linearGradient x1="0.000495115359%" y1="50.016227%" x2="99.9632983%" y2="50.016227%" id="linearGradient-28">
            <stop stop-color="#FDF175" offset="0%"></stop>
            <stop stop-color="#BCA22B" offset="100%"></stop>
        </linearGradient>
        <linearGradient x1="-0.000626644943%" y1="50%" x2="99.9993734%" y2="50%" id="linearGradient-29">
            <stop stop-color="#FDF175" offset="0%"></stop>
            <stop stop-color="#BCA22B" offset="100%"></stop>
        </linearGradient>
        <path d="M4.42215342,3.5755 C9.25010031,1.4425 9.92817945,3.594 9.92817945,3.594 C8.92394308,5.783 4.42215342,3.5755 4.42215342,3.5755 Z M3.29494932,3.2385 C3.51687678,3.2395 3.69605831,3.393 3.69488719,3.5825 C3.69371607,3.772 3.51336342,3.925 3.29202152,3.924 C3.07009406,3.9235 2.89091253,3.769 2.89208365,3.5795 C2.89325477,3.3905 3.07360743,3.238 3.29494932,3.2385 Z M12.5374373,3.581 C2.01491392,-3.609 0.47313294,3.5395 0.47313294,3.5395 C2.61745574,10.844 12.5374373,3.581 12.5374373,3.581 L12.5374373,3.581 Z" id="path-30"></path>
        <path d="M1.60560708,2.062 C2.21751788,2.0645 2.71582992,1.642 2.71875772,1.119 C2.72109997,0.596 2.22630128,0.171 1.61439049,0.1685 C1.00189413,0.1665 0.50358209,0.589 0.500654287,1.112 C0.498312044,1.6345 0.993110725,2.06 1.60560708,2.062" id="path-32"></path>
        <linearGradient x1="0.0135728331%" y1="50.0130982%" x2="99.9864272%" y2="50.0130982%" id="linearGradient-34">
            <stop stop-color="#FDF175" offset="0%"></stop>
            <stop stop-color="#BCA22B" offset="100%"></stop>
        </linearGradient>
        <path d="M1.34034814,2.0915 C1.95225894,2.0935 2.45057098,1.6715 2.45291322,1.1485 C2.45584103,0.6255 1.96104235,0.1995 1.34913155,0.198 C0.736635196,0.196 0.238323152,0.6175 0.235395349,1.1405 C0.233053107,1.6635 0.727851788,2.0895 1.34034814,2.0915" id="path-35"></path>
        <linearGradient x1="0.00829521399%" y1="49.9867973%" x2="100.007339%" y2="49.9867973%" id="linearGradient-37">
            <stop stop-color="#FDF175" offset="0%"></stop>
            <stop stop-color="#BCA22B" offset="100%"></stop>
        </linearGradient>
        <path d="M4.11239188,5.1385 C4.11239188,5.1385 0.31913051,2.6305 0.352507463,2.617 C0.31913051,2.604 4.1358143,0.1215 4.1358143,0.1215 C4.57791253,0.9415 7.91853558,2.6395 7.91209441,2.643 C7.96655154,2.67 4.5621024,4.3215 4.11239188,5.1385" id="path-38"></path>
        <linearGradient x1="-0.00175066493%" y1="50%" x2="99.9968745%" y2="50%" id="linearGradient-40">
            <stop stop-color="#FDF175" offset="0%"></stop>
            <stop stop-color="#BCA22B" offset="100%"></stop>
        </linearGradient>
        <path d="M2.27314613,2.112 C2.27314613,2.112 2.71524436,0.7105 5.85911906,2.099 C5.85911906,2.099 2.92721729,3.537 2.27314613,2.112 Z M6.85515758,2.102 C6.85574314,2.2255 6.73921659,2.3255 6.59516869,2.326 C6.45053523,2.3265 6.33342312,2.227 6.33283756,2.104 C6.332252,1.9805 6.44877855,1.8805 6.59282645,1.88 C6.73745991,1.8795 6.85457202,1.979 6.85515758,2.102 Z M8.43090108,2.076 C8.43090108,2.076 7.4266647,-2.579 0.574434918,2.103 C0.574434918,2.103 7.03433912,6.8325 8.43090108,2.076 L8.43090108,2.076 Z" id="path-41"></path>
        <path d="M1.23787504,1.2415 C0.839108296,1.243 0.51470774,0.9685 0.512951059,0.628 C0.511779938,0.287 0.833838251,0.0105 1.23201944,0.009 C1.63137175,0.0075 1.9557723,0.282 1.95752898,0.623 C1.9587001,0.9635 1.63664179,1.2405 1.23787504,1.2415" id="path-43"></path>
        <linearGradient x1="0.00022040009%" y1="50.016227%" x2="99.9632982%" y2="50.016227%" id="linearGradient-45">
            <stop stop-color="#FDF175" offset="0%"></stop>
            <stop stop-color="#BCA22B" offset="100%"></stop>
        </linearGradient>
        <linearGradient x1="-6.26644943e-05%" y1="50%" x2="99.9999373%" y2="50%" id="linearGradient-46">
            <stop stop-color="#FDF175" offset="0%"></stop>
            <stop stop-color="#BCA22B" offset="100%"></stop>
        </linearGradient>
    </defs>
    <g id="Page-1" stroke="none" stroke-width="1" fill="none" fill-rule="evenodd">
        <g id="Level" transform="translate(-573.000000, -264.000000)">
            <g id="content" transform="translate(420.000000, 183.000000)">
                <g id="ornament" filter="url(#filter-1)" transform="translate(156.000000, 83.000000)">
                    <g id="Group-766" transform="translate(107.743145, 0.000000)">
                        <mask id="mask-3" fill="white">
                            <use xlink:href="#path-2"></use>
                        </mask>
                        <g id="Clip-765"></g>
                        <path d="M38.8408181,14.6775 C38.8408181,14.6775 38.9596869,14.7515 39.1909833,14.895 C39.4216942,15.04 39.7677605,15.251 40.2250833,15.525 C41.1420712,16.066 42.5023284,16.862 44.3538709,17.7355 C45.2808133,18.169 46.3307234,18.6225 47.5164835,19.0415 C48.1096564,19.2515 48.7362062,19.4515 49.3955474,19.639 C50.0566453,19.8215 50.7487779,19.995 51.4760441,20.139 C52.2033103,20.282 52.9627824,20.403 53.7515325,20.492 C54.5414537,20.578 55.3600673,20.6305 56.2038601,20.6455 C56.4152475,20.647 56.6272204,20.654 56.8415356,20.65 C57.0552652,20.6465 57.2707515,20.643 57.4874089,20.639 C57.7040663,20.63 57.9218948,20.62 58.14148,20.6105 C58.3610653,20.6025 58.581236,20.5805 58.8031635,20.566 C59.6902877,20.497 60.5961499,20.3865 61.51548,20.2335 C62.4312968,20.0785 63.3553114,19.868 64.2705425,19.5895 C65.1863593,19.3135 66.0887081,18.9575 66.9529955,18.52 C67.3810403,18.296 67.8044006,18.0575 68.204924,17.788 C68.6048619,17.5185 68.9901607,17.228 69.3502805,16.9115 C70.0605654,16.2735 70.6836019,15.541 71.1233579,14.7165 C71.5648705,13.894 71.8465252,12.9925 71.9220625,12.0585 C71.9367015,11.9425 71.9355304,11.824 71.9425571,11.707 C71.9513405,11.59 71.9484127,11.4715 71.946656,11.3535 L71.9448993,11.1765 C71.9431427,11.117 71.9361159,11.059 71.9326026,11 C71.9232336,10.8825 71.9138646,10.7645 71.9044957,10.6465 C71.8430118,10.177 71.7352687,9.711 71.5754106,9.254 C71.4055981,8.8 71.183085,8.3575 70.9096283,7.9335 C70.6390993,7.509 70.3035731,7.11 69.9317421,6.733 C69.5575689,6.357 69.1441631,6.0025 68.6915248,5.6785 C68.2388865,5.3555 67.7534568,5.0575 67.2434335,4.7855 C66.223387,4.2395 65.0979396,3.8055 63.922134,3.468 C62.7457428,3.133 61.5113811,2.8945 60.2582815,2.8 C58.9922995,2.703 57.7040663,2.7165 56.4164186,2.8405 C55.1287709,2.9725 53.8434655,3.214 52.5751413,3.552 C50.0367362,4.2325 47.5814807,5.281 45.16253,6.469 C42.7388948,7.656 40.3392676,8.982 37.8266272,10.238 C37.2000774,10.5475 36.5758698,10.8555 35.953419,11.163 C35.335067,11.47 34.720814,11.782 34.1071465,12.0935 C32.8815682,12.7165 31.66126,13.34 30.4386095,13.946 C27.9938941,15.158 25.5362964,16.307 23.0195571,17.278 C21.7611874,17.7625 20.4887643,18.203 19.1976033,18.577 C17.9076133,18.9515 16.5977143,19.259 15.2731763,19.468 C13.9498094,19.677 12.6106324,19.788 11.2808244,19.765 C11.1145252,19.761 10.9488115,19.7605 10.7825123,19.7545 C10.6173842,19.7435 10.4516706,19.733 10.2865425,19.722 L10.039436,19.7055 L9.91588268,19.6975 L9.79291496,19.6835 C9.628958,19.6645 9.46500104,19.6455 9.30162964,19.6265 L9.05686532,19.5975 C8.97547241,19.5885 8.89525061,19.5715 8.81502881,19.5585 C8.65399965,19.5315 8.49355606,19.504 8.33369802,19.4765 C8.01163971,19.429 7.69719368,19.3475 7.3821621,19.277 C7.06537383,19.2125 6.75971121,19.111 6.45170635,19.0225 L6.22158105,18.9545 C6.14545817,18.929 6.07109198,18.9005 5.99614023,18.8735 C5.84682228,18.819 5.69691878,18.764 5.54818639,18.71 C5.39711177,18.659 5.25482055,18.591 5.11077265,18.5275 C4.96672475,18.4635 4.82326241,18.3995 4.67980007,18.3355 C4.53867997,18.267 4.40341548,18.19 4.26580875,18.1175 L4.06027699,18.0075 L3.95838945,17.9525 C3.9250125,17.933 3.89280666,17.9115 3.86060083,17.891 C3.73060639,17.8085 3.6011975,17.726 3.47237418,17.6435 C3.40854807,17.6015 3.34120861,17.564 3.28148143,17.5175 L3.09995765,17.381 C2.97991774,17.2895 2.85987782,17.1985 2.7398379,17.1075 C2.6285814,17.0085 2.51791045,16.9095 2.4072395,16.8105 L2.24211142,16.662 C2.18941097,16.611 2.14080944,16.5565 2.09045123,16.504 C1.99032037,16.398 1.89018952,16.292 1.79064422,16.186 C1.69695453,16.076 1.61087713,15.9625 1.52187192,15.8505 L1.38894967,15.6825 C1.34503263,15.6265 1.30989899,15.566 1.27008087,15.508 C1.19278688,15.3905 1.11549288,15.2735 1.03878445,15.1565 C0.967931621,15.037 0.90527664,14.914 0.839108296,14.7935 L0.741319681,14.612 C0.70969941,14.5515 0.685691427,14.488 0.657584519,14.426 C0.603712947,14.302 0.549841375,14.177 0.496555363,14.0535 C0.449710517,13.9275 0.409892398,13.801 0.366560916,13.6745 L0.303320375,13.4855 C0.283996876,13.422 0.270528983,13.3575 0.254133287,13.294 C0.222513016,13.166 0.191478306,13.0385 0.160443596,12.9115 C0.135264491,12.7835 0.117112114,12.655 0.0954463728,12.5275 L0.0649972232,12.3355 C0.0550426935,12.2715 0.0527004512,12.207 0.046259285,12.1435 C0.0357191947,12.015 0.0251791045,11.8875 0.0146390142,11.76 C0.00819784797,11.6325 0.0111256508,11.505 0.00936896911,11.378 C0.00878340854,11.251 0.00468448455,11.124 0.0163956959,10.998 C0.0245935439,10.872 0.0333769524,10.7465 0.0415748004,10.621 C0.0486015272,10.495 0.0726095106,10.3715 0.0878340854,10.247 L0.11301319,10.061 L0.126481083,9.9685 L0.145219021,9.8765 C0.170398126,9.754 0.196162791,9.632 0.221341895,9.51 C0.671637973,7.57 1.73794377,5.8085 3.26742798,4.5025 C4.0274856,3.8685 4.83321694,3.31 5.67232523,2.823 C5.88546928,2.705 6.09217216,2.5815 6.30648733,2.471 C6.52314474,2.3635 6.73863103,2.2565 6.95236064,2.1495 C7.39094551,1.9525 7.82426033,1.757 8.26987192,1.596 C9.15582506,1.2655 10.0488049,0.9955 10.9423704,0.8135 C11.1637123,0.7595 11.3885675,0.725 11.6099094,0.685 C11.8318369,0.6465 12.0508365,0.603 12.272764,0.5785 C12.4935203,0.5505 12.71252,0.522 12.9303485,0.4935 C13.1493481,0.475 13.3671767,0.457 13.5832485,0.439 C13.7981493,0.417 14.0136355,0.4115 14.2273652,0.4035 C14.3339372,0.3995 14.4405092,0.395 14.5464957,0.391 C14.6518966,0.386 14.757883,0.3825 14.8632839,0.385 C15.0735002,0.386 15.2825453,0.387 15.4892482,0.3885 L15.6444217,0.39 L15.7984242,0.3975 C15.9014828,0.403 16.0033704,0.4075 16.1052579,0.413 C16.2071454,0.418 16.3078619,0.423 16.4091638,0.428 L16.5602385,0.436 L16.7095564,0.45 C16.9092326,0.469 17.107152,0.488 17.3027293,0.506 C17.4994776,0.5205 17.6915415,0.5545 17.8830198,0.579 C18.0739125,0.607 18.2648053,0.629 18.4515991,0.6605 C19.9471208,0.91 21.2974235,1.2905 22.4913815,1.728 C23.6865106,2.1655 24.7247095,2.6595 25.6258872,3.144 C27.4136036,4.136 28.6503075,5.0805 29.4525255,5.7425 C29.8606612,6.069 30.1475859,6.338 30.3460909,6.514 C30.5434249,6.691 30.6441413,6.7815 30.6441413,6.7815 C30.6441413,6.7815 30.5393259,6.694 30.3349653,6.523 C30.1294335,6.353 29.8331399,6.0925 29.413293,5.7785 C28.5882381,5.1405 27.321085,4.2335 25.5163874,3.2955 C24.6070118,2.838 23.5641284,2.3755 22.3730982,1.972 C21.1838247,1.5695 19.8458188,1.227 18.3772329,1.0155 C18.1939524,0.9885 18.0071586,0.971 17.8197792,0.948 C17.6318143,0.9285 17.4438494,0.899 17.2517855,0.889 C17.0603072,0.8755 16.8670722,0.862 16.6726661,0.8475 L16.5262759,0.837 L16.3787147,0.832 C16.2803405,0.8295 16.1819663,0.8265 16.082421,0.8235 C15.9834613,0.821 15.883916,0.8185 15.7837851,0.8155 L15.6338816,0.811 L15.4833926,0.813 C15.2819597,0.816 15.0793558,0.819 14.8749951,0.8225 C14.772522,0.822 14.6706345,0.8275 14.5681614,0.8345 C14.4651027,0.8405 14.3620441,0.8465 14.2589854,0.853 C14.0522825,0.865 13.843823,0.8745 13.6353634,0.9005 C13.4274894,0.922 13.2172732,0.944 13.0058858,0.966 C12.7962551,0.9975 12.5854533,1.0295 12.3728948,1.061 C12.1591652,1.089 11.948949,1.1355 11.7352194,1.1765 C11.5232464,1.219 11.3071746,1.2565 11.0957872,1.313 C10.2391121,1.505 9.38770705,1.782 8.54625651,2.1145 C6.85867095,2.776 5.24779382,3.753 3.83015168,4.978 C3.66385248,5.135 3.48701319,5.284 3.335353,5.455 C3.25688789,5.5385 3.17666609,5.6205 3.09937209,5.7055 C3.02676258,5.7935 2.95356751,5.8815 2.88037244,5.9695 L2.77028705,6.102 C2.73515342,6.147 2.70294759,6.194 2.66839951,6.2395 C2.60106005,6.332 2.53372058,6.425 2.46579556,6.5175 C2.40021277,6.611 2.34224228,6.7095 2.2795873,6.805 C2.21986012,6.903 2.15193509,6.9965 2.0998202,7.0975 C1.99090594,7.2985 1.8726227,7.496 1.78068969,7.705 C1.73267372,7.8085 1.68114439,7.9115 1.63547067,8.0165 C1.59331031,8.1225 1.55056439,8.2285 1.50840403,8.3355 L1.44457792,8.495 L1.39070635,8.658 C1.35557272,8.7665 1.31985352,8.876 1.28413433,8.985 C1.25134294,9.0945 1.22616383,9.2065 1.19630024,9.3175 C1.16936446,9.4285 1.13540194,9.5395 1.11842069,9.653 C1.09675495,9.7655 1.07567477,9.8785 1.05459459,9.9915 L1.03878445,10.0765 L1.02882992,10.162 L1.00892086,10.3335 C0.99779521,10.448 0.97730059,10.5625 0.973201666,10.6775 C0.967931621,10.793 0.962661576,10.908 0.957391531,11.024 C0.948022562,11.139 0.955049288,11.255 0.957391531,11.371 C0.962076015,11.487 0.960904894,11.603 0.969688303,11.719 C0.981399514,11.835 0.993110725,11.9505 1.00482194,12.067 C1.01184866,12.125 1.01477647,12.183 1.024731,12.2405 L1.05635127,12.4135 C1.07801701,12.529 1.09616939,12.645 1.12076293,12.7605 C1.15121208,12.874 1.18166123,12.9885 1.21211038,13.103 C1.22792051,13.1595 1.24080285,13.218 1.25895522,13.274 L1.31926796,13.4425 C1.36084276,13.5545 1.39773308,13.668 1.44106456,13.78 C1.49142277,13.889 1.54119542,13.999 1.59155363,14.1095 C1.61731829,14.164 1.63898403,14.22 1.66826206,14.2735 L1.75843839,14.433 C1.81933669,14.5395 1.8755505,14.6475 1.94054773,14.7525 C2.01022943,14.855 2.0804967,14.9575 2.15076397,15.06 C2.18648317,15.111 2.21810344,15.164 2.25792156,15.213 L2.37796147,15.3595 C2.45876883,15.4565 2.53547726,15.556 2.61979799,15.652 C2.70880319,15.7435 2.79839396,15.836 2.88857029,15.928 C2.93365845,15.974 2.97698993,16.0215 3.02383478,16.066 L3.17256716,16.195 C3.27094134,16.281 3.36990108,16.3665 3.46944637,16.453 C3.57660396,16.532 3.6843471,16.6115 3.79209025,16.6905 L3.95370496,16.8095 C4.00699098,16.85 4.06847484,16.8825 4.12527421,16.9195 C4.2412152,16.991 4.3571562,17.063 4.47368275,17.135 C4.50296078,17.153 4.53106768,17.1715 4.56093127,17.1885 L4.6540354,17.2365 L4.83907254,17.3325 C4.96321138,17.3955 5.08442242,17.4635 5.21148907,17.523 C5.34148351,17.579 5.47206352,17.635 5.60205797,17.691 C5.73263797,17.7465 5.86087574,17.807 5.99906803,17.851 C6.13550364,17.899 6.2713537,17.9475 6.40837487,17.995 C6.4762999,18.019 6.54422492,18.0445 6.61332107,18.067 L6.825294,18.126 C7.10870531,18.2035 7.38743214,18.294 7.68196911,18.35 C7.97357827,18.4115 8.26225963,18.485 8.56382333,18.5255 C8.71314127,18.5495 8.86245922,18.573 9.01236272,18.597 C9.08672891,18.608 9.16168067,18.6235 9.23721798,18.631 L9.46324436,18.655 C9.61431899,18.6715 9.76597917,18.6875 9.9170538,18.7035 L10.0312381,18.7155 L10.146008,18.7215 L10.3755477,18.7345 C10.528379,18.743 10.6817959,18.752 10.8352128,18.7605 C10.9892152,18.764 11.1438032,18.7635 11.2983912,18.765 C12.5356807,18.7755 13.7928792,18.6605 15.0459788,18.4515 C16.3002496,18.243 17.5515925,17.9405 18.7929809,17.5705 C20.0343693,17.2005 21.2663888,16.7655 22.4907959,16.2855 C24.9396102,15.3235 27.3527053,14.183 29.7739983,12.9725 C30.9849375,12.367 32.198219,11.7435 33.4261395,11.117 C34.0403926,10.8045 34.6564023,10.49 35.2811954,10.1795 C35.9024752,9.872 36.5266827,9.564 37.1520614,9.255 C39.632496,8.015 42.0373933,6.691 44.5078733,5.491 C46.9724977,4.29 49.5191007,3.2115 52.1980403,2.51 C53.5366317,2.1615 54.9039157,1.913 56.2770552,1.782 C57.6507803,1.659 59.0274332,1.656 60.3742225,1.77 C61.7338941,1.885 63.0473065,2.152 64.2998205,2.521 C65.5505779,2.894 66.7486348,3.3695 67.8448042,3.9725 C68.3928889,4.273 68.9163801,4.603 69.4076654,4.963 C69.8983652,5.324 70.3498323,5.7205 70.7591392,6.144 C71.1666893,6.569 71.5344214,7.0205 71.8324717,7.503 C72.1322787,7.984 72.3752864,8.487 72.5568101,9.0015 C72.7289649,9.5185 72.8396359,10.044 72.8981919,10.5685 C72.9063898,10.6995 72.9140021,10.8305 72.9221999,10.9615 C72.9251277,11.027 72.9309833,11.0925 72.9321545,11.157 L72.9303978,11.352 C72.9298122,11.482 72.9303978,11.6115 72.9186866,11.7405 C72.9081465,11.8695 72.9069754,11.9985 72.8882374,12.127 C72.7851788,13.155 72.454337,14.1505 71.9478271,15.0495 C71.4436595,15.952 70.7433291,16.7435 69.9586779,17.4225 C69.5610823,17.7585 69.1394787,18.065 68.7044072,18.346 C68.2687501,18.6275 67.8125984,18.8735 67.3529334,19.103 C66.4271621,19.552 65.4703561,19.9075 64.5082801,20.178 C63.5473752,20.4515 62.5852992,20.652 61.6378622,20.7935 C60.6921819,20.933 59.7611406,21.028 58.8505939,21.081 C58.6228108,21.0915 58.3967844,21.1095 58.1719292,21.113 C57.9464884,21.118 57.7233898,21.1235 57.5008768,21.129 C57.2789493,21.1285 57.058193,21.1275 56.8391933,21.1265 C56.6196081,21.126 56.4023652,21.1145 56.1862933,21.109 C55.3237626,21.075 54.4875821,21.0045 53.684193,20.8995 C52.8808039,20.791 52.1107917,20.651 51.3747421,20.4895 C50.639278,20.326 49.9412898,20.134 49.2766786,19.9335 C48.613824,19.728 47.9861031,19.5105 47.3941014,19.284 C46.2095123,18.832 45.1678001,18.349 44.2513978,17.89 C42.4203499,16.965 41.0881996,16.132 40.1911208,15.5645 C39.7449236,15.278 39.4064696,15.0565 39.1816144,14.9055 C38.9567591,14.755 38.8408181,14.6775 38.8408181,14.6775" id="Fill-764" fill="url(#linearGradient-4)" mask="url(#mask-3)"></path>
                    </g>
                    <g id="Group-769" transform="translate(131.751128, 7.000000)">
                        <mask id="mask-6" fill="white">
                            <use xlink:href="#path-5"></use>
                        </mask>
                        <g id="Clip-768"></g>
                        <path d="M28.7439972,0.1455 C28.7439972,0.1455 28.6333263,0.16 28.4236956,0.1875 C28.3188802,0.2015 28.1888858,0.216 28.0366401,0.239 C27.8843943,0.2625 27.7087261,0.2905 27.5119778,0.322 C26.7249844,0.453 25.6018792,0.696 24.2726567,1.119 C22.9422631,1.54 21.4174634,2.159 19.7819927,2.944 C18.1441798,3.7275 16.3945248,4.676 14.5277577,5.661 C13.5943742,6.153 12.6732874,6.628 11.7656685,7.067 C11.3118591,7.2865 10.861563,7.4975 10.4159514,7.698 C9.98029434,7.896 9.55400625,8.09 9.13708712,8.2795 C7.48229295,9.05 5.99379799,9.7855 4.7090781,10.3545 C4.54922006,10.4265 4.39287539,10.496 4.24062964,10.5645 C4.08662721,10.6295 3.93613815,10.6935 3.789748,10.7555 C3.49755328,10.8775 3.22058313,10.9925 2.96176536,11.1005 C2.43476085,11.3005 1.98505033,11.476 1.609706,11.606 C0.85374731,11.8555 0.436242624,11.986 0.436242624,11.986 C0.436242624,11.986 0.821541479,11.7895 1.51660187,11.447 C1.86091149,11.27 2.27373169,11.0405 2.75740472,10.785 C2.99514231,10.6505 3.2492756,10.5065 3.5180479,10.354 C3.65272683,10.278 3.79091913,10.1995 3.93321034,10.1195 C4.07374488,10.037 4.21837834,9.952 4.36652516,9.8655 C4.96086914,9.5175 5.61025581,9.137 6.30473065,8.7305 C6.65548143,8.527 7.01735786,8.3155 7.39387331,8.1015 C7.77331656,7.8895 8.16212877,7.6695 8.56733669,7.45 C8.97547241,7.236 9.40058938,7.0115 9.82512079,6.795 C10.2484811,6.5805 10.6788681,6.3575 11.1156963,6.128 C11.992866,5.663 12.8993138,5.183 13.8280128,4.691 C15.6941944,3.706 17.5223145,2.7995 19.2637716,2.09 C21.0040576,1.379 22.6541673,0.87 24.0759084,0.5745 C25.4976494,0.276 26.6763829,0.171 27.4867987,0.145 C27.6894026,0.1405 27.8697553,0.137 28.0255144,0.134 C28.1812735,0.1325 28.3136102,0.1375 28.4201822,0.1385 C28.6321552,0.143 28.7439972,0.1455 28.7439972,0.1455" id="Fill-767" fill="url(#linearGradient-7)" mask="url(#mask-6)"></path>
                    </g>
                    <g id="Group-772" transform="translate(128.823325, 3.000000)">
                        <mask id="mask-9" fill="white">
                            <use xlink:href="#path-8"></use>
                        </mask>
                        <g id="Clip-771"></g>
                        <path d="M28.3692385,0.1855 C28.3692385,0.1855 28.257982,0.2 28.0483513,0.2275 C27.9435359,0.242 27.8135415,0.256 27.6612957,0.279 C27.50905,0.303 27.3339674,0.3305 27.1366335,0.362 C26.3496401,0.493 25.2265349,0.736 23.8973124,1.159 C22.5669188,1.58 21.0421191,2.199 19.4066484,2.984 C17.7688355,3.768 16.0191805,4.716 14.152999,5.701 C13.2190299,6.193 12.2979431,6.668 11.3903242,7.107 C10.9365148,7.3265 10.4868042,7.538 10.0406071,7.738 C9.60553558,7.936 9.17866192,8.13 8.76232836,8.32 C7.10694863,9.0905 5.61903922,9.826 4.33431933,10.3945 C4.1744613,10.4665 4.01811663,10.536 3.86528532,10.6045 C3.71128289,10.67 3.56079382,10.7335 3.41440368,10.7955 C3.12220896,10.9175 2.84582437,11.0325 2.58700659,11.1405 C2.05941652,11.3405 1.609706,11.516 1.23494724,11.646 C0.478402985,11.8955 0.0608982992,12.0265 0.0608982992,12.0265 C0.0608982992,12.0265 0.446197154,11.8295 1.14184311,11.4875 C1.48556716,11.31 1.89897293,11.0805 2.3820604,10.825 C2.61979799,10.6905 2.87393127,10.5465 3.14328914,10.394 C3.27796807,10.318 3.41616036,10.2395 3.55786602,10.1595 C3.69898612,10.077 3.84303402,9.9925 3.99118084,9.906 C4.58552482,9.5575 5.23491149,9.177 5.92938632,8.7705 C6.28013711,8.567 6.64201354,8.356 7.01852898,8.1415 C7.39797223,7.9295 7.78678445,7.7095 8.19257792,7.49 C8.60012808,7.2765 9.02524505,7.052 9.44977647,6.835 C9.87313676,6.6205 10.3035238,6.398 10.7409375,6.168 C11.6175217,5.7035 12.524555,5.223 13.4526685,4.7315 C15.3188501,3.746 17.1475557,2.84 18.8884273,2.1305 C20.6287133,1.4195 22.278823,0.9105 23.700564,0.6145 C25.1228907,0.316 26.3016241,0.2115 27.1120399,0.185 C27.3140583,0.181 27.494411,0.177 27.6507556,0.1745 C27.8065148,0.173 27.9382659,0.1775 28.0448379,0.1785 C28.2568108,0.183 28.3692385,0.1855 28.3692385,0.1855" id="Fill-770" fill="url(#linearGradient-10)" mask="url(#mask-9)"></path>
                    </g>
                    <g id="Group-775" transform="translate(275.799028, 8.500000)">
                        <mask id="mask-12" fill="white">
                            <use xlink:href="#path-11"></use>
                        </mask>
                        <g id="Clip-774"></g>
                        <path d="M2.91316383,3.594 C2.91316383,3.594 3.59124297,1.4425 8.41977543,3.5755 C8.41977543,3.5755 3.91740021,5.783 2.91316383,3.594 Z M9.94984519,3.5795 C9.95043075,3.769 9.77124922,3.9235 9.54990732,3.924 C9.32797987,3.925 9.14762721,3.772 9.14645609,3.5825 C9.14587053,3.393 9.32505207,3.2395 9.54639396,3.2385 C9.76832142,3.238 9.94867407,3.3905 9.94984519,3.5795 Z M12.3687959,3.5395 C12.3687959,3.5395 10.8270149,-3.609 0.304491496,3.581 C0.304491496,3.581 10.2244731,10.844 12.3687959,3.5395 L12.3687959,3.5395 Z" id="Fill-773" fill="url(#linearGradient-13)" mask="url(#mask-12)"></path>
                    </g>
                    <g id="Group-778" transform="translate(274.042346, 11.000000)">
                        <mask id="mask-15" fill="white">
                            <use xlink:href="#path-14"></use>
                        </mask>
                        <g id="Clip-777"></g>
                        <path d="M1.28179209,2.062 C0.669295731,2.0645 0.170983686,1.642 0.168641444,1.119 C0.166299202,0.596 0.660512322,0.171 1.27300868,0.1685 C1.88550503,0.1665 2.38381708,0.589 2.38615932,1.112 C2.38850156,1.6345 1.89428844,2.06 1.28179209,2.062" id="Fill-776" fill="url(#linearGradient-16)" mask="url(#mask-15)"></path>
                    </g>
                    <g id="Group-781" transform="translate(265.258938, 11.000000)">
                        <mask id="mask-18" fill="white">
                            <use xlink:href="#path-17"></use>
                        </mask>
                        <g id="Clip-780"></g>
                        <path d="M1.54705102,2.0915 C0.935140229,2.0935 0.436242624,1.6715 0.434485942,1.1485 C0.43155814,0.6255 0.92577126,0.1995 1.53826762,0.198 C2.15076397,0.196 2.64907602,0.6175 2.65141826,1.1405 C2.65434606,1.6635 2.15954738,2.0895 1.54705102,2.0915" id="Fill-779" fill="url(#linearGradient-19)" mask="url(#mask-18)"></path>
                    </g>
                    <g id="Group-784" transform="translate(267.015620, 9.500000)">
                        <mask id="mask-21" fill="white">
                            <use xlink:href="#path-20"></use>
                        </mask>
                        <g id="Clip-783"></g>
                        <path d="M4.04446685,5.1385 C4.04446685,5.1385 7.83831378,2.6305 7.80493683,2.617 C7.83831378,2.604 4.02104443,0.1215 4.02104443,0.1215 C3.57953176,0.9415 0.238323152,2.6395 0.245349879,2.643 C0.190892746,2.67 3.5953419,4.3215 4.04446685,5.1385" id="Fill-782" fill="url(#linearGradient-22)" mask="url(#mask-21)"></path>
                    </g>
                    <g id="Group-787" transform="translate(163.956959, 10.000000)">
                        <mask id="mask-24" fill="white">
                            <use xlink:href="#path-23"></use>
                        </mask>
                        <g id="Clip-786"></g>
                        <path d="M2.8838858,2.099 C6.0277605,0.7105 6.46985873,2.112 6.46985873,2.112 C5.81578757,3.537 2.8838858,2.099 2.8838858,2.099 Z M2.14959285,1.88 C2.29422631,1.8805 2.41075286,1.9805 2.4101673,2.104 C2.40958174,2.227 2.29188407,2.3265 2.14783617,2.326 C2.00320271,2.3255 1.88667615,2.2255 1.88726171,2.102 C1.88784728,1.979 2.00554495,1.8795 2.14959285,1.88 Z M8.16856994,2.103 C1.3157546,-2.579 0.312103783,2.076 0.312103783,2.076 C1.70808018,6.8325 8.16856994,2.103 8.16856994,2.103 L8.16856994,2.103 Z" id="Fill-785" fill="url(#linearGradient-25)" mask="url(#mask-24)"></path>
                    </g>
                    <g id="Group-790" transform="translate(171.569247, 11.500000)">
                        <mask id="mask-27" fill="white">
                            <use xlink:href="#path-26"></use>
                        </mask>
                        <g id="Clip-789"></g>
                        <path d="M1.06337799,1.2415 C1.46214474,1.243 1.78713086,0.9685 1.78888754,0.628 C1.79005866,0.287 1.46800035,0.0105 1.0692336,0.009 C0.670466852,0.0075 0.346066296,0.282 0.344309615,0.623 C0.342552933,0.9635 0.664611246,1.2405 1.06337799,1.2415" id="Fill-788" fill="url(#linearGradient-28)" mask="url(#mask-27)"></path>
                    </g>
                    <polygon id="Fill-791" fill="url(#linearGradient-29)" points="173.358134 12.4795 266.80189 12.4795 266.80189 11.8095 173.358134 11.8095"></polygon>
                    <g id="Group-795" transform="translate(0.000000, 8.500000)">
                        <mask id="mask-31" fill="white">
                            <use xlink:href="#path-30"></use>
                        </mask>
                        <g id="Clip-794"></g>
                        <path d="M4.42215342,3.5755 C9.25010031,1.4425 9.92817945,3.594 9.92817945,3.594 C8.92394308,5.783 4.42215342,3.5755 4.42215342,3.5755 Z M3.29494932,3.2385 C3.51687678,3.2395 3.69605831,3.393 3.69488719,3.5825 C3.69371607,3.772 3.51336342,3.925 3.29202152,3.924 C3.07009406,3.9235 2.89091253,3.769 2.89208365,3.5795 C2.89325477,3.3905 3.07360743,3.238 3.29494932,3.2385 Z M12.5374373,3.581 C2.01491392,-3.609 0.47313294,3.5395 0.47313294,3.5395 C2.61745574,10.844 12.5374373,3.581 12.5374373,3.581 L12.5374373,3.581 Z" id="Fill-793" fill="url(#linearGradient-13)" mask="url(#mask-31)"></path>
                    </g>
                    <g id="Group-798" transform="translate(11.711211, 11.000000)">
                        <mask id="mask-33" fill="white">
                            <use xlink:href="#path-32"></use>
                        </mask>
                        <g id="Clip-797"></g>
                        <path d="M1.60560708,2.062 C2.21751788,2.0645 2.71582992,1.642 2.71875772,1.119 C2.72109997,0.596 2.22630128,0.171 1.61439049,0.1685 C1.00189413,0.1665 0.50358209,0.589 0.500654287,1.112 C0.498312044,1.6345 0.993110725,2.06 1.60560708,2.062" id="Fill-796" fill="url(#linearGradient-34)" mask="url(#mask-33)"></path>
                    </g>
                    <g id="Group-801" transform="translate(20.494620, 11.000000)">
                        <mask id="mask-36" fill="white">
                            <use xlink:href="#path-35"></use>
                        </mask>
                        <g id="Clip-800"></g>
                        <path d="M1.34034814,2.0915 C1.95225894,2.0935 2.45057098,1.6715 2.45291322,1.1485 C2.45584103,0.6255 1.96104235,0.1995 1.34913155,0.198 C0.736635196,0.196 0.238323152,0.6175 0.235395349,1.1405 C0.233053107,1.6635 0.727851788,2.0895 1.34034814,2.0915" id="Fill-799" fill="url(#linearGradient-37)" mask="url(#mask-36)"></path>
                    </g>
                    <g id="Group-804" transform="translate(13.467893, 9.500000)">
                        <mask id="mask-39" fill="white">
                            <use xlink:href="#path-38"></use>
                        </mask>
                        <g id="Clip-803"></g>
                        <path d="M4.11239188,5.1385 C4.11239188,5.1385 0.31913051,2.6305 0.352507463,2.617 C0.31913051,2.604 4.1358143,0.1215 4.1358143,0.1215 C4.57791253,0.9415 7.91853558,2.6395 7.91209441,2.643 C7.96655154,2.67 4.5621024,4.3215 4.11239188,5.1385" id="Fill-802" fill="url(#linearGradient-40)" mask="url(#mask-39)"></path>
                    </g>
                    <g id="Group-807" transform="translate(115.940993, 10.000000)">
                        <mask id="mask-42" fill="white">
                            <use xlink:href="#path-41"></use>
                        </mask>
                        <g id="Clip-806"></g>
                        <path d="M2.27314613,2.112 C2.27314613,2.112 2.71524436,0.7105 5.85911906,2.099 C5.85911906,2.099 2.92721729,3.537 2.27314613,2.112 Z M6.85515758,2.102 C6.85574314,2.2255 6.73921659,2.3255 6.59516869,2.326 C6.45053523,2.3265 6.33342312,2.227 6.33283756,2.104 C6.332252,1.9805 6.44877855,1.8805 6.59282645,1.88 C6.73745991,1.8795 6.85457202,1.979 6.85515758,2.102 Z M8.43090108,2.076 C8.43090108,2.076 7.4266647,-2.579 0.574434918,2.103 C0.574434918,2.103 7.03433912,6.8325 8.43090108,2.076 L8.43090108,2.076 Z" id="Fill-805" fill="url(#linearGradient-25)" mask="url(#mask-42)"></path>
                    </g>
                    <g id="Group-810" transform="translate(114.769872, 11.500000)">
                        <mask id="mask-44" fill="white">
                            <use xlink:href="#path-43"></use>
                        </mask>
                        <g id="Clip-809"></g>
                        <path d="M1.23787504,1.2415 C0.839108296,1.243 0.51470774,0.9685 0.512951059,0.628 C0.511779938,0.287 0.833838251,0.0105 1.23201944,0.009 C1.63137175,0.0075 1.9557723,0.282 1.95752898,0.623 C1.9587001,0.9635 1.63664179,1.2405 1.23787504,1.2415" id="Fill-808" fill="url(#linearGradient-45)" mask="url(#mask-44)"></path>
                    </g>
                    <polygon id="Fill-811" fill="url(#linearGradient-46)" points="21.839067 12.4795 115.282823 12.4795 115.282823 11.8095 21.839067 11.8095"></polygon>
                </g>
            </g>
        </g>
    </g>
</svg>